M48
INCH,TZ
T1C0.0157
T2C0.0236
T3C0.0315
T4C0.0394
T5C0.0433
T6C0.0591
%
G90
G05
T1
X24606Y-17913
T3
X19752Y-21496
X19791Y-19921
X21720Y-21496
X21760Y-19921
X22937Y-19882
X22937Y-21457
X25937Y-19882
X25937Y-21457
X32402Y-18543
X32402Y-20512
X32402Y-21614
X32402Y-23583
X32402Y-24843
X32402Y-26811
T4
X10165Y-25315
X11165Y-25315
X12118Y-17346
X12118Y-23346
X12165Y-25315
X13118Y-17346
X13118Y-23346
X13165Y-25315
X13441Y-12953
X14118Y-17346
X14118Y-23346
X14165Y-25315
X14213Y-19331
X14213Y-20315
X14213Y-21299
X15118Y-17346
X15118Y-23346
X16118Y-17346
X16118Y-23346
X16803Y-12913
X17118Y-17346
X17118Y-23346
X17803Y-12913
X18118Y-17346
X18118Y-23346
X18803Y-12913
X19118Y-17346
X19118Y-23346
X19433Y-25551
X19803Y-12913
X19961Y-15419
X20118Y-17346
X20118Y-23346
X20433Y-25551
X20945Y-15419
X21118Y-17346
X21118Y-23346
X21929Y-15419
X22118Y-17346
X22118Y-23346
X22913Y-15419
X23118Y-17346
X23118Y-23346
X23425Y-27461
X23425Y-33169
X24118Y-17346
X24118Y-23346
X24409Y-27461
X25118Y-17346
X25118Y-23346
X25394Y-27461
X25394Y-33169
X26118Y-17346
X26118Y-23346
X26772Y-12953
X27772Y-12953
X28819Y-18144
X28819Y-19144
X28819Y-20144
X28819Y-21144
X28819Y-22144
X28819Y-23144
X28819Y-24144
X30104Y-12913
X31104Y-12913
X34016Y-18835
X34016Y-19835
X34016Y-20835
X34016Y-21835
X34016Y-22835
X34016Y-23835
T5
X10709Y-28110
X10709Y-30079
X12677Y-28110
X12677Y-30079
X15827Y-28110
X15827Y-30079
X17795Y-28110
X17795Y-30079
T2
G00X30472Y-29764
M15
G01X30472Y-29370
M16
G05
G00X33740Y-29764
M15
G01X33740Y-29370
M16
G05
G00X34961Y-29764
M15
G01X34961Y-29370
M16
G05
T5
G00X11398Y-18425
M15
G01X11122Y-18425
M16
G05
G00X11398Y-22205
M15
G01X11122Y-22205
M16
G05
T6
G00X22205Y-30157
M15
G01X22205Y-30669
M16
G05
G00X26614Y-30157
M15
G01X26614Y-30669
M16
G05
T0
M30
