G04 #@! TF.GenerationSoftware,KiCad,Pcbnew,7.0.8*
G04 #@! TF.CreationDate,2024-01-30T12:30:03+00:00*
G04 #@! TF.ProjectId,NanoVFO,4e616e6f-5646-44f2-9e6b-696361645f70,rev?*
G04 #@! TF.SameCoordinates,Original*
G04 #@! TF.FileFunction,Legend,Bot*
G04 #@! TF.FilePolarity,Positive*
%FSLAX46Y46*%
G04 Gerber Fmt 4.6, Leading zero omitted, Abs format (unit mm)*
G04 Created by KiCad (PCBNEW 7.0.8) date 2024-01-30 12:30:03*
%MOMM*%
%LPD*%
G01*
G04 APERTURE LIST*
G04 Aperture macros list*
%AMRoundRect*
0 Rectangle with rounded corners*
0 $1 Rounding radius*
0 $2 $3 $4 $5 $6 $7 $8 $9 X,Y pos of 4 corners*
0 Add a 4 corners polygon primitive as box body*
4,1,4,$2,$3,$4,$5,$6,$7,$8,$9,$2,$3,0*
0 Add four circle primitives for the rounded corners*
1,1,$1+$1,$2,$3*
1,1,$1+$1,$4,$5*
1,1,$1+$1,$6,$7*
1,1,$1+$1,$8,$9*
0 Add four rect primitives between the rounded corners*
20,1,$1+$1,$2,$3,$4,$5,0*
20,1,$1+$1,$4,$5,$6,$7,0*
20,1,$1+$1,$6,$7,$8,$9,0*
20,1,$1+$1,$8,$9,$2,$3,0*%
G04 Aperture macros list end*
%ADD10C,0.150000*%
%ADD11C,0.100000*%
%ADD12C,0.120000*%
%ADD13O,3.800000X2.900000*%
%ADD14R,1.700000X1.700000*%
%ADD15O,1.700000X1.700000*%
%ADD16R,2.000000X2.000000*%
%ADD17C,2.000000*%
%ADD18R,2.000000X3.200000*%
%ADD19C,3.200000*%
%ADD20RoundRect,0.650000X0.650000X-0.650000X0.650000X0.650000X-0.650000X0.650000X-0.650000X-0.650000X0*%
%ADD21O,2.100000X3.100000*%
%ADD22O,3.240000X2.720000*%
%ADD23R,1.800000X1.800000*%
%ADD24C,1.800000*%
%ADD25C,1.600000*%
%ADD26O,1.600000X1.600000*%
%ADD27R,1.600000X1.600000*%
G04 APERTURE END LIST*
D10*
X82563220Y-87269819D02*
X82563220Y-86269819D01*
X82563220Y-86269819D02*
X81991792Y-87269819D01*
X81991792Y-87269819D02*
X81991792Y-86269819D01*
X81087030Y-87269819D02*
X81087030Y-86746009D01*
X81087030Y-86746009D02*
X81134649Y-86650771D01*
X81134649Y-86650771D02*
X81229887Y-86603152D01*
X81229887Y-86603152D02*
X81420363Y-86603152D01*
X81420363Y-86603152D02*
X81515601Y-86650771D01*
X81087030Y-87222200D02*
X81182268Y-87269819D01*
X81182268Y-87269819D02*
X81420363Y-87269819D01*
X81420363Y-87269819D02*
X81515601Y-87222200D01*
X81515601Y-87222200D02*
X81563220Y-87126961D01*
X81563220Y-87126961D02*
X81563220Y-87031723D01*
X81563220Y-87031723D02*
X81515601Y-86936485D01*
X81515601Y-86936485D02*
X81420363Y-86888866D01*
X81420363Y-86888866D02*
X81182268Y-86888866D01*
X81182268Y-86888866D02*
X81087030Y-86841247D01*
X80610839Y-86603152D02*
X80610839Y-87269819D01*
X80610839Y-86698390D02*
X80563220Y-86650771D01*
X80563220Y-86650771D02*
X80467982Y-86603152D01*
X80467982Y-86603152D02*
X80325125Y-86603152D01*
X80325125Y-86603152D02*
X80229887Y-86650771D01*
X80229887Y-86650771D02*
X80182268Y-86746009D01*
X80182268Y-86746009D02*
X80182268Y-87269819D01*
X79563220Y-87269819D02*
X79658458Y-87222200D01*
X79658458Y-87222200D02*
X79706077Y-87174580D01*
X79706077Y-87174580D02*
X79753696Y-87079342D01*
X79753696Y-87079342D02*
X79753696Y-86793628D01*
X79753696Y-86793628D02*
X79706077Y-86698390D01*
X79706077Y-86698390D02*
X79658458Y-86650771D01*
X79658458Y-86650771D02*
X79563220Y-86603152D01*
X79563220Y-86603152D02*
X79420363Y-86603152D01*
X79420363Y-86603152D02*
X79325125Y-86650771D01*
X79325125Y-86650771D02*
X79277506Y-86698390D01*
X79277506Y-86698390D02*
X79229887Y-86793628D01*
X79229887Y-86793628D02*
X79229887Y-87079342D01*
X79229887Y-87079342D02*
X79277506Y-87174580D01*
X79277506Y-87174580D02*
X79325125Y-87222200D01*
X79325125Y-87222200D02*
X79420363Y-87269819D01*
X79420363Y-87269819D02*
X79563220Y-87269819D01*
X78944172Y-86269819D02*
X78610839Y-87269819D01*
X78610839Y-87269819D02*
X78277506Y-86269819D01*
X77610839Y-86746009D02*
X77944172Y-86746009D01*
X77944172Y-87269819D02*
X77944172Y-86269819D01*
X77944172Y-86269819D02*
X77467982Y-86269819D01*
X76896553Y-86269819D02*
X76706077Y-86269819D01*
X76706077Y-86269819D02*
X76610839Y-86317438D01*
X76610839Y-86317438D02*
X76515601Y-86412676D01*
X76515601Y-86412676D02*
X76467982Y-86603152D01*
X76467982Y-86603152D02*
X76467982Y-86936485D01*
X76467982Y-86936485D02*
X76515601Y-87126961D01*
X76515601Y-87126961D02*
X76610839Y-87222200D01*
X76610839Y-87222200D02*
X76706077Y-87269819D01*
X76706077Y-87269819D02*
X76896553Y-87269819D01*
X76896553Y-87269819D02*
X76991791Y-87222200D01*
X76991791Y-87222200D02*
X77087029Y-87126961D01*
X77087029Y-87126961D02*
X77134648Y-86936485D01*
X77134648Y-86936485D02*
X77134648Y-86603152D01*
X77134648Y-86603152D02*
X77087029Y-86412676D01*
X77087029Y-86412676D02*
X76991791Y-86317438D01*
X76991791Y-86317438D02*
X76896553Y-86269819D01*
X75372743Y-86603152D02*
X75134648Y-87269819D01*
X75134648Y-87269819D02*
X74896553Y-86603152D01*
X73991791Y-87269819D02*
X74563219Y-87269819D01*
X74277505Y-87269819D02*
X74277505Y-86269819D01*
X74277505Y-86269819D02*
X74372743Y-86412676D01*
X74372743Y-86412676D02*
X74467981Y-86507914D01*
X74467981Y-86507914D02*
X74563219Y-86555533D01*
X73563219Y-87174580D02*
X73515600Y-87222200D01*
X73515600Y-87222200D02*
X73563219Y-87269819D01*
X73563219Y-87269819D02*
X73610838Y-87222200D01*
X73610838Y-87222200D02*
X73563219Y-87174580D01*
X73563219Y-87174580D02*
X73563219Y-87269819D01*
X72563220Y-87269819D02*
X73134648Y-87269819D01*
X72848934Y-87269819D02*
X72848934Y-86269819D01*
X72848934Y-86269819D02*
X72944172Y-86412676D01*
X72944172Y-86412676D02*
X73039410Y-86507914D01*
X73039410Y-86507914D02*
X73134648Y-86555533D01*
X71372743Y-87269819D02*
X71372743Y-86269819D01*
X71372743Y-86269819D02*
X71134648Y-86269819D01*
X71134648Y-86269819D02*
X70991791Y-86317438D01*
X70991791Y-86317438D02*
X70896553Y-86412676D01*
X70896553Y-86412676D02*
X70848934Y-86507914D01*
X70848934Y-86507914D02*
X70801315Y-86698390D01*
X70801315Y-86698390D02*
X70801315Y-86841247D01*
X70801315Y-86841247D02*
X70848934Y-87031723D01*
X70848934Y-87031723D02*
X70896553Y-87126961D01*
X70896553Y-87126961D02*
X70991791Y-87222200D01*
X70991791Y-87222200D02*
X71134648Y-87269819D01*
X71134648Y-87269819D02*
X71372743Y-87269819D01*
X69944172Y-87269819D02*
X69944172Y-86746009D01*
X69944172Y-86746009D02*
X69991791Y-86650771D01*
X69991791Y-86650771D02*
X70087029Y-86603152D01*
X70087029Y-86603152D02*
X70277505Y-86603152D01*
X70277505Y-86603152D02*
X70372743Y-86650771D01*
X69944172Y-87222200D02*
X70039410Y-87269819D01*
X70039410Y-87269819D02*
X70277505Y-87269819D01*
X70277505Y-87269819D02*
X70372743Y-87222200D01*
X70372743Y-87222200D02*
X70420362Y-87126961D01*
X70420362Y-87126961D02*
X70420362Y-87031723D01*
X70420362Y-87031723D02*
X70372743Y-86936485D01*
X70372743Y-86936485D02*
X70277505Y-86888866D01*
X70277505Y-86888866D02*
X70039410Y-86888866D01*
X70039410Y-86888866D02*
X69944172Y-86841247D01*
X69467981Y-87269819D02*
X69467981Y-86603152D01*
X69467981Y-86269819D02*
X69515600Y-86317438D01*
X69515600Y-86317438D02*
X69467981Y-86365057D01*
X69467981Y-86365057D02*
X69420362Y-86317438D01*
X69420362Y-86317438D02*
X69467981Y-86269819D01*
X69467981Y-86269819D02*
X69467981Y-86365057D01*
X68991791Y-87269819D02*
X68991791Y-86603152D01*
X68991791Y-86698390D02*
X68944172Y-86650771D01*
X68944172Y-86650771D02*
X68848934Y-86603152D01*
X68848934Y-86603152D02*
X68706077Y-86603152D01*
X68706077Y-86603152D02*
X68610839Y-86650771D01*
X68610839Y-86650771D02*
X68563220Y-86746009D01*
X68563220Y-86746009D02*
X68563220Y-87269819D01*
X68563220Y-86746009D02*
X68515601Y-86650771D01*
X68515601Y-86650771D02*
X68420363Y-86603152D01*
X68420363Y-86603152D02*
X68277506Y-86603152D01*
X68277506Y-86603152D02*
X68182267Y-86650771D01*
X68182267Y-86650771D02*
X68134648Y-86746009D01*
X68134648Y-86746009D02*
X68134648Y-87269819D01*
X67515601Y-87269819D02*
X67610839Y-87222200D01*
X67610839Y-87222200D02*
X67658458Y-87174580D01*
X67658458Y-87174580D02*
X67706077Y-87079342D01*
X67706077Y-87079342D02*
X67706077Y-86793628D01*
X67706077Y-86793628D02*
X67658458Y-86698390D01*
X67658458Y-86698390D02*
X67610839Y-86650771D01*
X67610839Y-86650771D02*
X67515601Y-86603152D01*
X67515601Y-86603152D02*
X67372744Y-86603152D01*
X67372744Y-86603152D02*
X67277506Y-86650771D01*
X67277506Y-86650771D02*
X67229887Y-86698390D01*
X67229887Y-86698390D02*
X67182268Y-86793628D01*
X67182268Y-86793628D02*
X67182268Y-87079342D01*
X67182268Y-87079342D02*
X67229887Y-87174580D01*
X67229887Y-87174580D02*
X67277506Y-87222200D01*
X67277506Y-87222200D02*
X67372744Y-87269819D01*
X67372744Y-87269819D02*
X67515601Y-87269819D01*
X66753696Y-86603152D02*
X66753696Y-87269819D01*
X66753696Y-86698390D02*
X66706077Y-86650771D01*
X66706077Y-86650771D02*
X66610839Y-86603152D01*
X66610839Y-86603152D02*
X66467982Y-86603152D01*
X66467982Y-86603152D02*
X66372744Y-86650771D01*
X66372744Y-86650771D02*
X66325125Y-86746009D01*
X66325125Y-86746009D02*
X66325125Y-87269819D01*
X65229886Y-86269819D02*
X64658458Y-86269819D01*
X64944172Y-87269819D02*
X64944172Y-86269819D01*
X64325124Y-87269819D02*
X64325124Y-86603152D01*
X64325124Y-86269819D02*
X64372743Y-86317438D01*
X64372743Y-86317438D02*
X64325124Y-86365057D01*
X64325124Y-86365057D02*
X64277505Y-86317438D01*
X64277505Y-86317438D02*
X64325124Y-86269819D01*
X64325124Y-86269819D02*
X64325124Y-86365057D01*
X63706077Y-87269819D02*
X63801315Y-87222200D01*
X63801315Y-87222200D02*
X63848934Y-87126961D01*
X63848934Y-87126961D02*
X63848934Y-86269819D01*
X63182267Y-87269819D02*
X63277505Y-87222200D01*
X63277505Y-87222200D02*
X63325124Y-87126961D01*
X63325124Y-87126961D02*
X63325124Y-86269819D01*
X62420362Y-87222200D02*
X62515600Y-87269819D01*
X62515600Y-87269819D02*
X62706076Y-87269819D01*
X62706076Y-87269819D02*
X62801314Y-87222200D01*
X62801314Y-87222200D02*
X62848933Y-87126961D01*
X62848933Y-87126961D02*
X62848933Y-86746009D01*
X62848933Y-86746009D02*
X62801314Y-86650771D01*
X62801314Y-86650771D02*
X62706076Y-86603152D01*
X62706076Y-86603152D02*
X62515600Y-86603152D01*
X62515600Y-86603152D02*
X62420362Y-86650771D01*
X62420362Y-86650771D02*
X62372743Y-86746009D01*
X62372743Y-86746009D02*
X62372743Y-86841247D01*
X62372743Y-86841247D02*
X62848933Y-86936485D01*
X62039409Y-86603152D02*
X61801314Y-87269819D01*
X61563219Y-86603152D02*
X61801314Y-87269819D01*
X61801314Y-87269819D02*
X61896552Y-87507914D01*
X61896552Y-87507914D02*
X61944171Y-87555533D01*
X61944171Y-87555533D02*
X62039409Y-87603152D01*
X59896552Y-86317438D02*
X59991790Y-86269819D01*
X59991790Y-86269819D02*
X60134647Y-86269819D01*
X60134647Y-86269819D02*
X60277504Y-86317438D01*
X60277504Y-86317438D02*
X60372742Y-86412676D01*
X60372742Y-86412676D02*
X60420361Y-86507914D01*
X60420361Y-86507914D02*
X60467980Y-86698390D01*
X60467980Y-86698390D02*
X60467980Y-86841247D01*
X60467980Y-86841247D02*
X60420361Y-87031723D01*
X60420361Y-87031723D02*
X60372742Y-87126961D01*
X60372742Y-87126961D02*
X60277504Y-87222200D01*
X60277504Y-87222200D02*
X60134647Y-87269819D01*
X60134647Y-87269819D02*
X60039409Y-87269819D01*
X60039409Y-87269819D02*
X59896552Y-87222200D01*
X59896552Y-87222200D02*
X59848933Y-87174580D01*
X59848933Y-87174580D02*
X59848933Y-86841247D01*
X59848933Y-86841247D02*
X60039409Y-86841247D01*
X58991790Y-86603152D02*
X58991790Y-87269819D01*
X59229885Y-86222200D02*
X59467980Y-86936485D01*
X59467980Y-86936485D02*
X58848933Y-86936485D01*
X58467980Y-86269819D02*
X58467980Y-87079342D01*
X58467980Y-87079342D02*
X58420361Y-87174580D01*
X58420361Y-87174580D02*
X58372742Y-87222200D01*
X58372742Y-87222200D02*
X58277504Y-87269819D01*
X58277504Y-87269819D02*
X58087028Y-87269819D01*
X58087028Y-87269819D02*
X57991790Y-87222200D01*
X57991790Y-87222200D02*
X57944171Y-87174580D01*
X57944171Y-87174580D02*
X57896552Y-87079342D01*
X57896552Y-87079342D02*
X57896552Y-86269819D01*
X57467980Y-87222200D02*
X57325123Y-87269819D01*
X57325123Y-87269819D02*
X57087028Y-87269819D01*
X57087028Y-87269819D02*
X56991790Y-87222200D01*
X56991790Y-87222200D02*
X56944171Y-87174580D01*
X56944171Y-87174580D02*
X56896552Y-87079342D01*
X56896552Y-87079342D02*
X56896552Y-86984104D01*
X56896552Y-86984104D02*
X56944171Y-86888866D01*
X56944171Y-86888866D02*
X56991790Y-86841247D01*
X56991790Y-86841247D02*
X57087028Y-86793628D01*
X57087028Y-86793628D02*
X57277504Y-86746009D01*
X57277504Y-86746009D02*
X57372742Y-86698390D01*
X57372742Y-86698390D02*
X57420361Y-86650771D01*
X57420361Y-86650771D02*
X57467980Y-86555533D01*
X57467980Y-86555533D02*
X57467980Y-86460295D01*
X57467980Y-86460295D02*
X57420361Y-86365057D01*
X57420361Y-86365057D02*
X57372742Y-86317438D01*
X57372742Y-86317438D02*
X57277504Y-86269819D01*
X57277504Y-86269819D02*
X57039409Y-86269819D01*
X57039409Y-86269819D02*
X56896552Y-86317438D01*
X56467980Y-87269819D02*
X56467980Y-86269819D01*
X55944171Y-87222200D02*
X55944171Y-87269819D01*
X55944171Y-87269819D02*
X55991790Y-87365057D01*
X55991790Y-87365057D02*
X56039409Y-87412676D01*
X54801314Y-86365057D02*
X54753695Y-86317438D01*
X54753695Y-86317438D02*
X54658457Y-86269819D01*
X54658457Y-86269819D02*
X54420362Y-86269819D01*
X54420362Y-86269819D02*
X54325124Y-86317438D01*
X54325124Y-86317438D02*
X54277505Y-86365057D01*
X54277505Y-86365057D02*
X54229886Y-86460295D01*
X54229886Y-86460295D02*
X54229886Y-86555533D01*
X54229886Y-86555533D02*
X54277505Y-86698390D01*
X54277505Y-86698390D02*
X54848933Y-87269819D01*
X54848933Y-87269819D02*
X54229886Y-87269819D01*
X53610838Y-86269819D02*
X53515600Y-86269819D01*
X53515600Y-86269819D02*
X53420362Y-86317438D01*
X53420362Y-86317438D02*
X53372743Y-86365057D01*
X53372743Y-86365057D02*
X53325124Y-86460295D01*
X53325124Y-86460295D02*
X53277505Y-86650771D01*
X53277505Y-86650771D02*
X53277505Y-86888866D01*
X53277505Y-86888866D02*
X53325124Y-87079342D01*
X53325124Y-87079342D02*
X53372743Y-87174580D01*
X53372743Y-87174580D02*
X53420362Y-87222200D01*
X53420362Y-87222200D02*
X53515600Y-87269819D01*
X53515600Y-87269819D02*
X53610838Y-87269819D01*
X53610838Y-87269819D02*
X53706076Y-87222200D01*
X53706076Y-87222200D02*
X53753695Y-87174580D01*
X53753695Y-87174580D02*
X53801314Y-87079342D01*
X53801314Y-87079342D02*
X53848933Y-86888866D01*
X53848933Y-86888866D02*
X53848933Y-86650771D01*
X53848933Y-86650771D02*
X53801314Y-86460295D01*
X53801314Y-86460295D02*
X53753695Y-86365057D01*
X53753695Y-86365057D02*
X53706076Y-86317438D01*
X53706076Y-86317438D02*
X53610838Y-86269819D01*
X52896552Y-86365057D02*
X52848933Y-86317438D01*
X52848933Y-86317438D02*
X52753695Y-86269819D01*
X52753695Y-86269819D02*
X52515600Y-86269819D01*
X52515600Y-86269819D02*
X52420362Y-86317438D01*
X52420362Y-86317438D02*
X52372743Y-86365057D01*
X52372743Y-86365057D02*
X52325124Y-86460295D01*
X52325124Y-86460295D02*
X52325124Y-86555533D01*
X52325124Y-86555533D02*
X52372743Y-86698390D01*
X52372743Y-86698390D02*
X52944171Y-87269819D01*
X52944171Y-87269819D02*
X52325124Y-87269819D01*
X51467981Y-86603152D02*
X51467981Y-87269819D01*
X51706076Y-86222200D02*
X51944171Y-86936485D01*
X51944171Y-86936485D02*
X51325124Y-86936485D01*
X75269819Y-44893922D02*
X76269819Y-45227255D01*
X76269819Y-45227255D02*
X75269819Y-45560588D01*
X76269819Y-45893922D02*
X75269819Y-45893922D01*
X76269819Y-46370112D02*
X75269819Y-46370112D01*
X75269819Y-46370112D02*
X76269819Y-46941540D01*
X76269819Y-46941540D02*
X75269819Y-46941540D01*
X78291792Y-63374580D02*
X78339411Y-63422200D01*
X78339411Y-63422200D02*
X78482268Y-63469819D01*
X78482268Y-63469819D02*
X78577506Y-63469819D01*
X78577506Y-63469819D02*
X78720363Y-63422200D01*
X78720363Y-63422200D02*
X78815601Y-63326961D01*
X78815601Y-63326961D02*
X78863220Y-63231723D01*
X78863220Y-63231723D02*
X78910839Y-63041247D01*
X78910839Y-63041247D02*
X78910839Y-62898390D01*
X78910839Y-62898390D02*
X78863220Y-62707914D01*
X78863220Y-62707914D02*
X78815601Y-62612676D01*
X78815601Y-62612676D02*
X78720363Y-62517438D01*
X78720363Y-62517438D02*
X78577506Y-62469819D01*
X78577506Y-62469819D02*
X78482268Y-62469819D01*
X78482268Y-62469819D02*
X78339411Y-62517438D01*
X78339411Y-62517438D02*
X78291792Y-62565057D01*
X77720363Y-63469819D02*
X77815601Y-63422200D01*
X77815601Y-63422200D02*
X77863220Y-63326961D01*
X77863220Y-63326961D02*
X77863220Y-62469819D01*
X77339410Y-63469819D02*
X77339410Y-62469819D01*
X77244172Y-63088866D02*
X76958458Y-63469819D01*
X76958458Y-62803152D02*
X77339410Y-63184104D01*
X75577505Y-62469819D02*
X75482267Y-62469819D01*
X75482267Y-62469819D02*
X75387029Y-62517438D01*
X75387029Y-62517438D02*
X75339410Y-62565057D01*
X75339410Y-62565057D02*
X75291791Y-62660295D01*
X75291791Y-62660295D02*
X75244172Y-62850771D01*
X75244172Y-62850771D02*
X75244172Y-63088866D01*
X75244172Y-63088866D02*
X75291791Y-63279342D01*
X75291791Y-63279342D02*
X75339410Y-63374580D01*
X75339410Y-63374580D02*
X75387029Y-63422200D01*
X75387029Y-63422200D02*
X75482267Y-63469819D01*
X75482267Y-63469819D02*
X75577505Y-63469819D01*
X75577505Y-63469819D02*
X75672743Y-63422200D01*
X75672743Y-63422200D02*
X75720362Y-63374580D01*
X75720362Y-63374580D02*
X75767981Y-63279342D01*
X75767981Y-63279342D02*
X75815600Y-63088866D01*
X75815600Y-63088866D02*
X75815600Y-62850771D01*
X75815600Y-62850771D02*
X75767981Y-62660295D01*
X75767981Y-62660295D02*
X75720362Y-62565057D01*
X75720362Y-62565057D02*
X75672743Y-62517438D01*
X75672743Y-62517438D02*
X75577505Y-62469819D01*
X37863220Y-30469819D02*
X37863220Y-29469819D01*
X37863220Y-29469819D02*
X37482268Y-29469819D01*
X37482268Y-29469819D02*
X37387030Y-29517438D01*
X37387030Y-29517438D02*
X37339411Y-29565057D01*
X37339411Y-29565057D02*
X37291792Y-29660295D01*
X37291792Y-29660295D02*
X37291792Y-29803152D01*
X37291792Y-29803152D02*
X37339411Y-29898390D01*
X37339411Y-29898390D02*
X37387030Y-29946009D01*
X37387030Y-29946009D02*
X37482268Y-29993628D01*
X37482268Y-29993628D02*
X37863220Y-29993628D01*
X36910839Y-30184104D02*
X36434649Y-30184104D01*
X37006077Y-30469819D02*
X36672744Y-29469819D01*
X36672744Y-29469819D02*
X36339411Y-30469819D01*
X35244172Y-30469819D02*
X35244172Y-29469819D01*
X34672744Y-30469819D02*
X35101315Y-29898390D01*
X34672744Y-29469819D02*
X35244172Y-30041247D01*
X33863220Y-30422200D02*
X33958458Y-30469819D01*
X33958458Y-30469819D02*
X34148934Y-30469819D01*
X34148934Y-30469819D02*
X34244172Y-30422200D01*
X34244172Y-30422200D02*
X34291791Y-30326961D01*
X34291791Y-30326961D02*
X34291791Y-29946009D01*
X34291791Y-29946009D02*
X34244172Y-29850771D01*
X34244172Y-29850771D02*
X34148934Y-29803152D01*
X34148934Y-29803152D02*
X33958458Y-29803152D01*
X33958458Y-29803152D02*
X33863220Y-29850771D01*
X33863220Y-29850771D02*
X33815601Y-29946009D01*
X33815601Y-29946009D02*
X33815601Y-30041247D01*
X33815601Y-30041247D02*
X34291791Y-30136485D01*
X33482267Y-29803152D02*
X33244172Y-30469819D01*
X33006077Y-29803152D02*
X33244172Y-30469819D01*
X33244172Y-30469819D02*
X33339410Y-30707914D01*
X33339410Y-30707914D02*
X33387029Y-30755533D01*
X33387029Y-30755533D02*
X33482267Y-30803152D01*
X32625124Y-30469819D02*
X32625124Y-29803152D01*
X32625124Y-29469819D02*
X32672743Y-29517438D01*
X32672743Y-29517438D02*
X32625124Y-29565057D01*
X32625124Y-29565057D02*
X32577505Y-29517438D01*
X32577505Y-29517438D02*
X32625124Y-29469819D01*
X32625124Y-29469819D02*
X32625124Y-29565057D01*
X32148934Y-29803152D02*
X32148934Y-30469819D01*
X32148934Y-29898390D02*
X32101315Y-29850771D01*
X32101315Y-29850771D02*
X32006077Y-29803152D01*
X32006077Y-29803152D02*
X31863220Y-29803152D01*
X31863220Y-29803152D02*
X31767982Y-29850771D01*
X31767982Y-29850771D02*
X31720363Y-29946009D01*
X31720363Y-29946009D02*
X31720363Y-30469819D01*
X30815601Y-29803152D02*
X30815601Y-30612676D01*
X30815601Y-30612676D02*
X30863220Y-30707914D01*
X30863220Y-30707914D02*
X30910839Y-30755533D01*
X30910839Y-30755533D02*
X31006077Y-30803152D01*
X31006077Y-30803152D02*
X31148934Y-30803152D01*
X31148934Y-30803152D02*
X31244172Y-30755533D01*
X30815601Y-30422200D02*
X30910839Y-30469819D01*
X30910839Y-30469819D02*
X31101315Y-30469819D01*
X31101315Y-30469819D02*
X31196553Y-30422200D01*
X31196553Y-30422200D02*
X31244172Y-30374580D01*
X31244172Y-30374580D02*
X31291791Y-30279342D01*
X31291791Y-30279342D02*
X31291791Y-29993628D01*
X31291791Y-29993628D02*
X31244172Y-29898390D01*
X31244172Y-29898390D02*
X31196553Y-29850771D01*
X31196553Y-29850771D02*
X31101315Y-29803152D01*
X31101315Y-29803152D02*
X30910839Y-29803152D01*
X30910839Y-29803152D02*
X30815601Y-29850771D01*
X51339411Y-29617438D02*
X51434649Y-29569819D01*
X51434649Y-29569819D02*
X51577506Y-29569819D01*
X51577506Y-29569819D02*
X51720363Y-29617438D01*
X51720363Y-29617438D02*
X51815601Y-29712676D01*
X51815601Y-29712676D02*
X51863220Y-29807914D01*
X51863220Y-29807914D02*
X51910839Y-29998390D01*
X51910839Y-29998390D02*
X51910839Y-30141247D01*
X51910839Y-30141247D02*
X51863220Y-30331723D01*
X51863220Y-30331723D02*
X51815601Y-30426961D01*
X51815601Y-30426961D02*
X51720363Y-30522200D01*
X51720363Y-30522200D02*
X51577506Y-30569819D01*
X51577506Y-30569819D02*
X51482268Y-30569819D01*
X51482268Y-30569819D02*
X51339411Y-30522200D01*
X51339411Y-30522200D02*
X51291792Y-30474580D01*
X51291792Y-30474580D02*
X51291792Y-30141247D01*
X51291792Y-30141247D02*
X51482268Y-30141247D01*
X50863220Y-29903152D02*
X50863220Y-30569819D01*
X50863220Y-29998390D02*
X50815601Y-29950771D01*
X50815601Y-29950771D02*
X50720363Y-29903152D01*
X50720363Y-29903152D02*
X50577506Y-29903152D01*
X50577506Y-29903152D02*
X50482268Y-29950771D01*
X50482268Y-29950771D02*
X50434649Y-30046009D01*
X50434649Y-30046009D02*
X50434649Y-30569819D01*
X49529887Y-30569819D02*
X49529887Y-29569819D01*
X49529887Y-30522200D02*
X49625125Y-30569819D01*
X49625125Y-30569819D02*
X49815601Y-30569819D01*
X49815601Y-30569819D02*
X49910839Y-30522200D01*
X49910839Y-30522200D02*
X49958458Y-30474580D01*
X49958458Y-30474580D02*
X50006077Y-30379342D01*
X50006077Y-30379342D02*
X50006077Y-30093628D01*
X50006077Y-30093628D02*
X49958458Y-29998390D01*
X49958458Y-29998390D02*
X49910839Y-29950771D01*
X49910839Y-29950771D02*
X49815601Y-29903152D01*
X49815601Y-29903152D02*
X49625125Y-29903152D01*
X49625125Y-29903152D02*
X49529887Y-29950771D01*
X48339410Y-30284104D02*
X47863220Y-30284104D01*
X48434648Y-30569819D02*
X48101315Y-29569819D01*
X48101315Y-29569819D02*
X47767982Y-30569819D01*
X47529886Y-29569819D02*
X46910839Y-29569819D01*
X46910839Y-29569819D02*
X47244172Y-29950771D01*
X47244172Y-29950771D02*
X47101315Y-29950771D01*
X47101315Y-29950771D02*
X47006077Y-29998390D01*
X47006077Y-29998390D02*
X46958458Y-30046009D01*
X46958458Y-30046009D02*
X46910839Y-30141247D01*
X46910839Y-30141247D02*
X46910839Y-30379342D01*
X46910839Y-30379342D02*
X46958458Y-30474580D01*
X46958458Y-30474580D02*
X47006077Y-30522200D01*
X47006077Y-30522200D02*
X47101315Y-30569819D01*
X47101315Y-30569819D02*
X47387029Y-30569819D01*
X47387029Y-30569819D02*
X47482267Y-30522200D01*
X47482267Y-30522200D02*
X47529886Y-30474580D01*
X45767981Y-30284104D02*
X45291791Y-30284104D01*
X45863219Y-30569819D02*
X45529886Y-29569819D01*
X45529886Y-29569819D02*
X45196553Y-30569819D01*
X44910838Y-29665057D02*
X44863219Y-29617438D01*
X44863219Y-29617438D02*
X44767981Y-29569819D01*
X44767981Y-29569819D02*
X44529886Y-29569819D01*
X44529886Y-29569819D02*
X44434648Y-29617438D01*
X44434648Y-29617438D02*
X44387029Y-29665057D01*
X44387029Y-29665057D02*
X44339410Y-29760295D01*
X44339410Y-29760295D02*
X44339410Y-29855533D01*
X44339410Y-29855533D02*
X44387029Y-29998390D01*
X44387029Y-29998390D02*
X44958457Y-30569819D01*
X44958457Y-30569819D02*
X44339410Y-30569819D01*
X43291790Y-29569819D02*
X42720362Y-29569819D01*
X43006076Y-30569819D02*
X43006076Y-29569819D01*
X41672743Y-29522200D02*
X42529885Y-30807914D01*
X40767981Y-30569819D02*
X41101314Y-30093628D01*
X41339409Y-30569819D02*
X41339409Y-29569819D01*
X41339409Y-29569819D02*
X40958457Y-29569819D01*
X40958457Y-29569819D02*
X40863219Y-29617438D01*
X40863219Y-29617438D02*
X40815600Y-29665057D01*
X40815600Y-29665057D02*
X40767981Y-29760295D01*
X40767981Y-29760295D02*
X40767981Y-29903152D01*
X40767981Y-29903152D02*
X40815600Y-29998390D01*
X40815600Y-29998390D02*
X40863219Y-30046009D01*
X40863219Y-30046009D02*
X40958457Y-30093628D01*
X40958457Y-30093628D02*
X41339409Y-30093628D01*
X71010839Y-30084104D02*
X70534649Y-30084104D01*
X71106077Y-30369819D02*
X70772744Y-29369819D01*
X70772744Y-29369819D02*
X70439411Y-30369819D01*
X70201315Y-29369819D02*
X69534649Y-29369819D01*
X69534649Y-29369819D02*
X69963220Y-30369819D01*
X68439410Y-30084104D02*
X67963220Y-30084104D01*
X68534648Y-30369819D02*
X68201315Y-29369819D01*
X68201315Y-29369819D02*
X67867982Y-30369819D01*
X67106077Y-29369819D02*
X67296553Y-29369819D01*
X67296553Y-29369819D02*
X67391791Y-29417438D01*
X67391791Y-29417438D02*
X67439410Y-29465057D01*
X67439410Y-29465057D02*
X67534648Y-29607914D01*
X67534648Y-29607914D02*
X67582267Y-29798390D01*
X67582267Y-29798390D02*
X67582267Y-30179342D01*
X67582267Y-30179342D02*
X67534648Y-30274580D01*
X67534648Y-30274580D02*
X67487029Y-30322200D01*
X67487029Y-30322200D02*
X67391791Y-30369819D01*
X67391791Y-30369819D02*
X67201315Y-30369819D01*
X67201315Y-30369819D02*
X67106077Y-30322200D01*
X67106077Y-30322200D02*
X67058458Y-30274580D01*
X67058458Y-30274580D02*
X67010839Y-30179342D01*
X67010839Y-30179342D02*
X67010839Y-29941247D01*
X67010839Y-29941247D02*
X67058458Y-29846009D01*
X67058458Y-29846009D02*
X67106077Y-29798390D01*
X67106077Y-29798390D02*
X67201315Y-29750771D01*
X67201315Y-29750771D02*
X67391791Y-29750771D01*
X67391791Y-29750771D02*
X67487029Y-29798390D01*
X67487029Y-29798390D02*
X67534648Y-29846009D01*
X67534648Y-29846009D02*
X67582267Y-29941247D01*
X79639411Y-29317438D02*
X79734649Y-29269819D01*
X79734649Y-29269819D02*
X79877506Y-29269819D01*
X79877506Y-29269819D02*
X80020363Y-29317438D01*
X80020363Y-29317438D02*
X80115601Y-29412676D01*
X80115601Y-29412676D02*
X80163220Y-29507914D01*
X80163220Y-29507914D02*
X80210839Y-29698390D01*
X80210839Y-29698390D02*
X80210839Y-29841247D01*
X80210839Y-29841247D02*
X80163220Y-30031723D01*
X80163220Y-30031723D02*
X80115601Y-30126961D01*
X80115601Y-30126961D02*
X80020363Y-30222200D01*
X80020363Y-30222200D02*
X79877506Y-30269819D01*
X79877506Y-30269819D02*
X79782268Y-30269819D01*
X79782268Y-30269819D02*
X79639411Y-30222200D01*
X79639411Y-30222200D02*
X79591792Y-30174580D01*
X79591792Y-30174580D02*
X79591792Y-29841247D01*
X79591792Y-29841247D02*
X79782268Y-29841247D01*
X79163220Y-29603152D02*
X79163220Y-30269819D01*
X79163220Y-29698390D02*
X79115601Y-29650771D01*
X79115601Y-29650771D02*
X79020363Y-29603152D01*
X79020363Y-29603152D02*
X78877506Y-29603152D01*
X78877506Y-29603152D02*
X78782268Y-29650771D01*
X78782268Y-29650771D02*
X78734649Y-29746009D01*
X78734649Y-29746009D02*
X78734649Y-30269819D01*
X77829887Y-30269819D02*
X77829887Y-29269819D01*
X77829887Y-30222200D02*
X77925125Y-30269819D01*
X77925125Y-30269819D02*
X78115601Y-30269819D01*
X78115601Y-30269819D02*
X78210839Y-30222200D01*
X78210839Y-30222200D02*
X78258458Y-30174580D01*
X78258458Y-30174580D02*
X78306077Y-30079342D01*
X78306077Y-30079342D02*
X78306077Y-29793628D01*
X78306077Y-29793628D02*
X78258458Y-29698390D01*
X78258458Y-29698390D02*
X78210839Y-29650771D01*
X78210839Y-29650771D02*
X78115601Y-29603152D01*
X78115601Y-29603152D02*
X77925125Y-29603152D01*
X77925125Y-29603152D02*
X77829887Y-29650771D01*
X76591791Y-29888866D02*
X75829887Y-29888866D01*
X76210839Y-30269819D02*
X76210839Y-29507914D01*
X74877506Y-29269819D02*
X75353696Y-29269819D01*
X75353696Y-29269819D02*
X75401315Y-29746009D01*
X75401315Y-29746009D02*
X75353696Y-29698390D01*
X75353696Y-29698390D02*
X75258458Y-29650771D01*
X75258458Y-29650771D02*
X75020363Y-29650771D01*
X75020363Y-29650771D02*
X74925125Y-29698390D01*
X74925125Y-29698390D02*
X74877506Y-29746009D01*
X74877506Y-29746009D02*
X74829887Y-29841247D01*
X74829887Y-29841247D02*
X74829887Y-30079342D01*
X74829887Y-30079342D02*
X74877506Y-30174580D01*
X74877506Y-30174580D02*
X74925125Y-30222200D01*
X74925125Y-30222200D02*
X75020363Y-30269819D01*
X75020363Y-30269819D02*
X75258458Y-30269819D01*
X75258458Y-30269819D02*
X75353696Y-30222200D01*
X75353696Y-30222200D02*
X75401315Y-30174580D01*
X74496553Y-29603152D02*
X74258458Y-30269819D01*
X74258458Y-30269819D02*
X74020363Y-29603152D01*
X36010839Y-67084104D02*
X35534649Y-67084104D01*
X36106077Y-67369819D02*
X35772744Y-66369819D01*
X35772744Y-66369819D02*
X35439411Y-67369819D01*
X33248934Y-66846009D02*
X33106077Y-66893628D01*
X33106077Y-66893628D02*
X33058458Y-66941247D01*
X33058458Y-66941247D02*
X33010839Y-67036485D01*
X33010839Y-67036485D02*
X33010839Y-67179342D01*
X33010839Y-67179342D02*
X33058458Y-67274580D01*
X33058458Y-67274580D02*
X33106077Y-67322200D01*
X33106077Y-67322200D02*
X33201315Y-67369819D01*
X33201315Y-67369819D02*
X33582267Y-67369819D01*
X33582267Y-67369819D02*
X33582267Y-66369819D01*
X33582267Y-66369819D02*
X33248934Y-66369819D01*
X33248934Y-66369819D02*
X33153696Y-66417438D01*
X33153696Y-66417438D02*
X33106077Y-66465057D01*
X33106077Y-66465057D02*
X33058458Y-66560295D01*
X33058458Y-66560295D02*
X33058458Y-66655533D01*
X33058458Y-66655533D02*
X33106077Y-66750771D01*
X33106077Y-66750771D02*
X33153696Y-66798390D01*
X33153696Y-66798390D02*
X33248934Y-66846009D01*
X33248934Y-66846009D02*
X33582267Y-66846009D01*
X30487029Y-67274580D02*
X30534648Y-67322200D01*
X30534648Y-67322200D02*
X30677505Y-67369819D01*
X30677505Y-67369819D02*
X30772743Y-67369819D01*
X30772743Y-67369819D02*
X30915600Y-67322200D01*
X30915600Y-67322200D02*
X31010838Y-67226961D01*
X31010838Y-67226961D02*
X31058457Y-67131723D01*
X31058457Y-67131723D02*
X31106076Y-66941247D01*
X31106076Y-66941247D02*
X31106076Y-66798390D01*
X31106076Y-66798390D02*
X31058457Y-66607914D01*
X31058457Y-66607914D02*
X31010838Y-66512676D01*
X31010838Y-66512676D02*
X30915600Y-66417438D01*
X30915600Y-66417438D02*
X30772743Y-66369819D01*
X30772743Y-66369819D02*
X30677505Y-66369819D01*
X30677505Y-66369819D02*
X30534648Y-66417438D01*
X30534648Y-66417438D02*
X30487029Y-66465057D01*
X28534647Y-67369819D02*
X28534647Y-66369819D01*
X28534647Y-66369819D02*
X28296552Y-66369819D01*
X28296552Y-66369819D02*
X28153695Y-66417438D01*
X28153695Y-66417438D02*
X28058457Y-66512676D01*
X28058457Y-66512676D02*
X28010838Y-66607914D01*
X28010838Y-66607914D02*
X27963219Y-66798390D01*
X27963219Y-66798390D02*
X27963219Y-66941247D01*
X27963219Y-66941247D02*
X28010838Y-67131723D01*
X28010838Y-67131723D02*
X28058457Y-67226961D01*
X28058457Y-67226961D02*
X28153695Y-67322200D01*
X28153695Y-67322200D02*
X28296552Y-67369819D01*
X28296552Y-67369819D02*
X28534647Y-67369819D01*
X26010837Y-66846009D02*
X25677504Y-66846009D01*
X25534647Y-67369819D02*
X26010837Y-67369819D01*
X26010837Y-67369819D02*
X26010837Y-66369819D01*
X26010837Y-66369819D02*
X25534647Y-66369819D01*
X50933333Y-68354819D02*
X50933333Y-69069104D01*
X50933333Y-69069104D02*
X50980952Y-69211961D01*
X50980952Y-69211961D02*
X51076190Y-69307200D01*
X51076190Y-69307200D02*
X51219047Y-69354819D01*
X51219047Y-69354819D02*
X51314285Y-69354819D01*
X50504761Y-68450057D02*
X50457142Y-68402438D01*
X50457142Y-68402438D02*
X50361904Y-68354819D01*
X50361904Y-68354819D02*
X50123809Y-68354819D01*
X50123809Y-68354819D02*
X50028571Y-68402438D01*
X50028571Y-68402438D02*
X49980952Y-68450057D01*
X49980952Y-68450057D02*
X49933333Y-68545295D01*
X49933333Y-68545295D02*
X49933333Y-68640533D01*
X49933333Y-68640533D02*
X49980952Y-68783390D01*
X49980952Y-68783390D02*
X50552380Y-69354819D01*
X50552380Y-69354819D02*
X49933333Y-69354819D01*
X52896904Y-67907200D02*
X52754047Y-67954819D01*
X52754047Y-67954819D02*
X52515952Y-67954819D01*
X52515952Y-67954819D02*
X52420714Y-67907200D01*
X52420714Y-67907200D02*
X52373095Y-67859580D01*
X52373095Y-67859580D02*
X52325476Y-67764342D01*
X52325476Y-67764342D02*
X52325476Y-67669104D01*
X52325476Y-67669104D02*
X52373095Y-67573866D01*
X52373095Y-67573866D02*
X52420714Y-67526247D01*
X52420714Y-67526247D02*
X52515952Y-67478628D01*
X52515952Y-67478628D02*
X52706428Y-67431009D01*
X52706428Y-67431009D02*
X52801666Y-67383390D01*
X52801666Y-67383390D02*
X52849285Y-67335771D01*
X52849285Y-67335771D02*
X52896904Y-67240533D01*
X52896904Y-67240533D02*
X52896904Y-67145295D01*
X52896904Y-67145295D02*
X52849285Y-67050057D01*
X52849285Y-67050057D02*
X52801666Y-67002438D01*
X52801666Y-67002438D02*
X52706428Y-66954819D01*
X52706428Y-66954819D02*
X52468333Y-66954819D01*
X52468333Y-66954819D02*
X52325476Y-67002438D01*
X51896904Y-67288152D02*
X51896904Y-68288152D01*
X51896904Y-67335771D02*
X51801666Y-67288152D01*
X51801666Y-67288152D02*
X51611190Y-67288152D01*
X51611190Y-67288152D02*
X51515952Y-67335771D01*
X51515952Y-67335771D02*
X51468333Y-67383390D01*
X51468333Y-67383390D02*
X51420714Y-67478628D01*
X51420714Y-67478628D02*
X51420714Y-67764342D01*
X51420714Y-67764342D02*
X51468333Y-67859580D01*
X51468333Y-67859580D02*
X51515952Y-67907200D01*
X51515952Y-67907200D02*
X51611190Y-67954819D01*
X51611190Y-67954819D02*
X51801666Y-67954819D01*
X51801666Y-67954819D02*
X51896904Y-67907200D01*
X50611190Y-67907200D02*
X50706428Y-67954819D01*
X50706428Y-67954819D02*
X50896904Y-67954819D01*
X50896904Y-67954819D02*
X50992142Y-67907200D01*
X50992142Y-67907200D02*
X51039761Y-67811961D01*
X51039761Y-67811961D02*
X51039761Y-67431009D01*
X51039761Y-67431009D02*
X50992142Y-67335771D01*
X50992142Y-67335771D02*
X50896904Y-67288152D01*
X50896904Y-67288152D02*
X50706428Y-67288152D01*
X50706428Y-67288152D02*
X50611190Y-67335771D01*
X50611190Y-67335771D02*
X50563571Y-67431009D01*
X50563571Y-67431009D02*
X50563571Y-67526247D01*
X50563571Y-67526247D02*
X51039761Y-67621485D01*
X49706428Y-67954819D02*
X49706428Y-67431009D01*
X49706428Y-67431009D02*
X49754047Y-67335771D01*
X49754047Y-67335771D02*
X49849285Y-67288152D01*
X49849285Y-67288152D02*
X50039761Y-67288152D01*
X50039761Y-67288152D02*
X50134999Y-67335771D01*
X49706428Y-67907200D02*
X49801666Y-67954819D01*
X49801666Y-67954819D02*
X50039761Y-67954819D01*
X50039761Y-67954819D02*
X50134999Y-67907200D01*
X50134999Y-67907200D02*
X50182618Y-67811961D01*
X50182618Y-67811961D02*
X50182618Y-67716723D01*
X50182618Y-67716723D02*
X50134999Y-67621485D01*
X50134999Y-67621485D02*
X50039761Y-67573866D01*
X50039761Y-67573866D02*
X49801666Y-67573866D01*
X49801666Y-67573866D02*
X49706428Y-67526247D01*
X49230237Y-67954819D02*
X49230237Y-66954819D01*
X49134999Y-67573866D02*
X48849285Y-67954819D01*
X48849285Y-67288152D02*
X49230237Y-67669104D01*
X48039761Y-67907200D02*
X48134999Y-67954819D01*
X48134999Y-67954819D02*
X48325475Y-67954819D01*
X48325475Y-67954819D02*
X48420713Y-67907200D01*
X48420713Y-67907200D02*
X48468332Y-67811961D01*
X48468332Y-67811961D02*
X48468332Y-67431009D01*
X48468332Y-67431009D02*
X48420713Y-67335771D01*
X48420713Y-67335771D02*
X48325475Y-67288152D01*
X48325475Y-67288152D02*
X48134999Y-67288152D01*
X48134999Y-67288152D02*
X48039761Y-67335771D01*
X48039761Y-67335771D02*
X47992142Y-67431009D01*
X47992142Y-67431009D02*
X47992142Y-67526247D01*
X47992142Y-67526247D02*
X48468332Y-67621485D01*
X47563570Y-67954819D02*
X47563570Y-67288152D01*
X47563570Y-67478628D02*
X47515951Y-67383390D01*
X47515951Y-67383390D02*
X47468332Y-67335771D01*
X47468332Y-67335771D02*
X47373094Y-67288152D01*
X47373094Y-67288152D02*
X47277856Y-67288152D01*
X82859580Y-49433333D02*
X82907200Y-49385714D01*
X82907200Y-49385714D02*
X82954819Y-49242857D01*
X82954819Y-49242857D02*
X82954819Y-49147619D01*
X82954819Y-49147619D02*
X82907200Y-49004762D01*
X82907200Y-49004762D02*
X82811961Y-48909524D01*
X82811961Y-48909524D02*
X82716723Y-48861905D01*
X82716723Y-48861905D02*
X82526247Y-48814286D01*
X82526247Y-48814286D02*
X82383390Y-48814286D01*
X82383390Y-48814286D02*
X82192914Y-48861905D01*
X82192914Y-48861905D02*
X82097676Y-48909524D01*
X82097676Y-48909524D02*
X82002438Y-49004762D01*
X82002438Y-49004762D02*
X81954819Y-49147619D01*
X81954819Y-49147619D02*
X81954819Y-49242857D01*
X81954819Y-49242857D02*
X82002438Y-49385714D01*
X82002438Y-49385714D02*
X82050057Y-49433333D01*
X81954819Y-49766667D02*
X81954819Y-50433333D01*
X81954819Y-50433333D02*
X82954819Y-50004762D01*
X82759580Y-57133333D02*
X82807200Y-57085714D01*
X82807200Y-57085714D02*
X82854819Y-56942857D01*
X82854819Y-56942857D02*
X82854819Y-56847619D01*
X82854819Y-56847619D02*
X82807200Y-56704762D01*
X82807200Y-56704762D02*
X82711961Y-56609524D01*
X82711961Y-56609524D02*
X82616723Y-56561905D01*
X82616723Y-56561905D02*
X82426247Y-56514286D01*
X82426247Y-56514286D02*
X82283390Y-56514286D01*
X82283390Y-56514286D02*
X82092914Y-56561905D01*
X82092914Y-56561905D02*
X81997676Y-56609524D01*
X81997676Y-56609524D02*
X81902438Y-56704762D01*
X81902438Y-56704762D02*
X81854819Y-56847619D01*
X81854819Y-56847619D02*
X81854819Y-56942857D01*
X81854819Y-56942857D02*
X81902438Y-57085714D01*
X81902438Y-57085714D02*
X81950057Y-57133333D01*
X81854819Y-57990476D02*
X81854819Y-57800000D01*
X81854819Y-57800000D02*
X81902438Y-57704762D01*
X81902438Y-57704762D02*
X81950057Y-57657143D01*
X81950057Y-57657143D02*
X82092914Y-57561905D01*
X82092914Y-57561905D02*
X82283390Y-57514286D01*
X82283390Y-57514286D02*
X82664342Y-57514286D01*
X82664342Y-57514286D02*
X82759580Y-57561905D01*
X82759580Y-57561905D02*
X82807200Y-57609524D01*
X82807200Y-57609524D02*
X82854819Y-57704762D01*
X82854819Y-57704762D02*
X82854819Y-57895238D01*
X82854819Y-57895238D02*
X82807200Y-57990476D01*
X82807200Y-57990476D02*
X82759580Y-58038095D01*
X82759580Y-58038095D02*
X82664342Y-58085714D01*
X82664342Y-58085714D02*
X82426247Y-58085714D01*
X82426247Y-58085714D02*
X82331009Y-58038095D01*
X82331009Y-58038095D02*
X82283390Y-57990476D01*
X82283390Y-57990476D02*
X82235771Y-57895238D01*
X82235771Y-57895238D02*
X82235771Y-57704762D01*
X82235771Y-57704762D02*
X82283390Y-57609524D01*
X82283390Y-57609524D02*
X82331009Y-57561905D01*
X82331009Y-57561905D02*
X82426247Y-57514286D01*
X25433333Y-61154819D02*
X25433333Y-61869104D01*
X25433333Y-61869104D02*
X25480952Y-62011961D01*
X25480952Y-62011961D02*
X25576190Y-62107200D01*
X25576190Y-62107200D02*
X25719047Y-62154819D01*
X25719047Y-62154819D02*
X25814285Y-62154819D01*
X24814285Y-61583390D02*
X24909523Y-61535771D01*
X24909523Y-61535771D02*
X24957142Y-61488152D01*
X24957142Y-61488152D02*
X25004761Y-61392914D01*
X25004761Y-61392914D02*
X25004761Y-61345295D01*
X25004761Y-61345295D02*
X24957142Y-61250057D01*
X24957142Y-61250057D02*
X24909523Y-61202438D01*
X24909523Y-61202438D02*
X24814285Y-61154819D01*
X24814285Y-61154819D02*
X24623809Y-61154819D01*
X24623809Y-61154819D02*
X24528571Y-61202438D01*
X24528571Y-61202438D02*
X24480952Y-61250057D01*
X24480952Y-61250057D02*
X24433333Y-61345295D01*
X24433333Y-61345295D02*
X24433333Y-61392914D01*
X24433333Y-61392914D02*
X24480952Y-61488152D01*
X24480952Y-61488152D02*
X24528571Y-61535771D01*
X24528571Y-61535771D02*
X24623809Y-61583390D01*
X24623809Y-61583390D02*
X24814285Y-61583390D01*
X24814285Y-61583390D02*
X24909523Y-61631009D01*
X24909523Y-61631009D02*
X24957142Y-61678628D01*
X24957142Y-61678628D02*
X25004761Y-61773866D01*
X25004761Y-61773866D02*
X25004761Y-61964342D01*
X25004761Y-61964342D02*
X24957142Y-62059580D01*
X24957142Y-62059580D02*
X24909523Y-62107200D01*
X24909523Y-62107200D02*
X24814285Y-62154819D01*
X24814285Y-62154819D02*
X24623809Y-62154819D01*
X24623809Y-62154819D02*
X24528571Y-62107200D01*
X24528571Y-62107200D02*
X24480952Y-62059580D01*
X24480952Y-62059580D02*
X24433333Y-61964342D01*
X24433333Y-61964342D02*
X24433333Y-61773866D01*
X24433333Y-61773866D02*
X24480952Y-61678628D01*
X24480952Y-61678628D02*
X24528571Y-61631009D01*
X24528571Y-61631009D02*
X24623809Y-61583390D01*
X23659819Y-63680952D02*
X23659819Y-63204762D01*
X23659819Y-63204762D02*
X22659819Y-63204762D01*
X23659819Y-64014286D02*
X22659819Y-64014286D01*
X22659819Y-64014286D02*
X22659819Y-64395238D01*
X22659819Y-64395238D02*
X22707438Y-64490476D01*
X22707438Y-64490476D02*
X22755057Y-64538095D01*
X22755057Y-64538095D02*
X22850295Y-64585714D01*
X22850295Y-64585714D02*
X22993152Y-64585714D01*
X22993152Y-64585714D02*
X23088390Y-64538095D01*
X23088390Y-64538095D02*
X23136009Y-64490476D01*
X23136009Y-64490476D02*
X23183628Y-64395238D01*
X23183628Y-64395238D02*
X23183628Y-64014286D01*
X23136009Y-65347619D02*
X23136009Y-65014286D01*
X23659819Y-65014286D02*
X22659819Y-65014286D01*
X22659819Y-65014286D02*
X22659819Y-65490476D01*
X31325180Y-52941904D02*
X30515657Y-52941904D01*
X30515657Y-52941904D02*
X30420419Y-52894285D01*
X30420419Y-52894285D02*
X30372800Y-52846666D01*
X30372800Y-52846666D02*
X30325180Y-52751428D01*
X30325180Y-52751428D02*
X30325180Y-52560952D01*
X30325180Y-52560952D02*
X30372800Y-52465714D01*
X30372800Y-52465714D02*
X30420419Y-52418095D01*
X30420419Y-52418095D02*
X30515657Y-52370476D01*
X30515657Y-52370476D02*
X31325180Y-52370476D01*
X30372800Y-51941904D02*
X30325180Y-51799047D01*
X30325180Y-51799047D02*
X30325180Y-51560952D01*
X30325180Y-51560952D02*
X30372800Y-51465714D01*
X30372800Y-51465714D02*
X30420419Y-51418095D01*
X30420419Y-51418095D02*
X30515657Y-51370476D01*
X30515657Y-51370476D02*
X30610895Y-51370476D01*
X30610895Y-51370476D02*
X30706133Y-51418095D01*
X30706133Y-51418095D02*
X30753752Y-51465714D01*
X30753752Y-51465714D02*
X30801371Y-51560952D01*
X30801371Y-51560952D02*
X30848990Y-51751428D01*
X30848990Y-51751428D02*
X30896609Y-51846666D01*
X30896609Y-51846666D02*
X30944228Y-51894285D01*
X30944228Y-51894285D02*
X31039466Y-51941904D01*
X31039466Y-51941904D02*
X31134704Y-51941904D01*
X31134704Y-51941904D02*
X31229942Y-51894285D01*
X31229942Y-51894285D02*
X31277561Y-51846666D01*
X31277561Y-51846666D02*
X31325180Y-51751428D01*
X31325180Y-51751428D02*
X31325180Y-51513333D01*
X31325180Y-51513333D02*
X31277561Y-51370476D01*
X30848990Y-50608571D02*
X30801371Y-50465714D01*
X30801371Y-50465714D02*
X30753752Y-50418095D01*
X30753752Y-50418095D02*
X30658514Y-50370476D01*
X30658514Y-50370476D02*
X30515657Y-50370476D01*
X30515657Y-50370476D02*
X30420419Y-50418095D01*
X30420419Y-50418095D02*
X30372800Y-50465714D01*
X30372800Y-50465714D02*
X30325180Y-50560952D01*
X30325180Y-50560952D02*
X30325180Y-50941904D01*
X30325180Y-50941904D02*
X31325180Y-50941904D01*
X31325180Y-50941904D02*
X31325180Y-50608571D01*
X31325180Y-50608571D02*
X31277561Y-50513333D01*
X31277561Y-50513333D02*
X31229942Y-50465714D01*
X31229942Y-50465714D02*
X31134704Y-50418095D01*
X31134704Y-50418095D02*
X31039466Y-50418095D01*
X31039466Y-50418095D02*
X30944228Y-50465714D01*
X30944228Y-50465714D02*
X30896609Y-50513333D01*
X30896609Y-50513333D02*
X30848990Y-50608571D01*
X30848990Y-50608571D02*
X30848990Y-50941904D01*
X52766666Y-54859580D02*
X52814285Y-54907200D01*
X52814285Y-54907200D02*
X52957142Y-54954819D01*
X52957142Y-54954819D02*
X53052380Y-54954819D01*
X53052380Y-54954819D02*
X53195237Y-54907200D01*
X53195237Y-54907200D02*
X53290475Y-54811961D01*
X53290475Y-54811961D02*
X53338094Y-54716723D01*
X53338094Y-54716723D02*
X53385713Y-54526247D01*
X53385713Y-54526247D02*
X53385713Y-54383390D01*
X53385713Y-54383390D02*
X53338094Y-54192914D01*
X53338094Y-54192914D02*
X53290475Y-54097676D01*
X53290475Y-54097676D02*
X53195237Y-54002438D01*
X53195237Y-54002438D02*
X53052380Y-53954819D01*
X53052380Y-53954819D02*
X52957142Y-53954819D01*
X52957142Y-53954819D02*
X52814285Y-54002438D01*
X52814285Y-54002438D02*
X52766666Y-54050057D01*
X51909523Y-54288152D02*
X51909523Y-54954819D01*
X52147618Y-53907200D02*
X52385713Y-54621485D01*
X52385713Y-54621485D02*
X51766666Y-54621485D01*
X62466666Y-50854819D02*
X62799999Y-50378628D01*
X63038094Y-50854819D02*
X63038094Y-49854819D01*
X63038094Y-49854819D02*
X62657142Y-49854819D01*
X62657142Y-49854819D02*
X62561904Y-49902438D01*
X62561904Y-49902438D02*
X62514285Y-49950057D01*
X62514285Y-49950057D02*
X62466666Y-50045295D01*
X62466666Y-50045295D02*
X62466666Y-50188152D01*
X62466666Y-50188152D02*
X62514285Y-50283390D01*
X62514285Y-50283390D02*
X62561904Y-50331009D01*
X62561904Y-50331009D02*
X62657142Y-50378628D01*
X62657142Y-50378628D02*
X63038094Y-50378628D01*
X61514285Y-50854819D02*
X62085713Y-50854819D01*
X61799999Y-50854819D02*
X61799999Y-49854819D01*
X61799999Y-49854819D02*
X61895237Y-49997676D01*
X61895237Y-49997676D02*
X61990475Y-50092914D01*
X61990475Y-50092914D02*
X62085713Y-50140533D01*
X88602438Y-47571427D02*
X88554819Y-47476189D01*
X88554819Y-47476189D02*
X88554819Y-47333332D01*
X88554819Y-47333332D02*
X88602438Y-47190475D01*
X88602438Y-47190475D02*
X88697676Y-47095237D01*
X88697676Y-47095237D02*
X88792914Y-47047618D01*
X88792914Y-47047618D02*
X88983390Y-46999999D01*
X88983390Y-46999999D02*
X89126247Y-46999999D01*
X89126247Y-46999999D02*
X89316723Y-47047618D01*
X89316723Y-47047618D02*
X89411961Y-47095237D01*
X89411961Y-47095237D02*
X89507200Y-47190475D01*
X89507200Y-47190475D02*
X89554819Y-47333332D01*
X89554819Y-47333332D02*
X89554819Y-47428570D01*
X89554819Y-47428570D02*
X89507200Y-47571427D01*
X89507200Y-47571427D02*
X89459580Y-47619046D01*
X89459580Y-47619046D02*
X89126247Y-47619046D01*
X89126247Y-47619046D02*
X89126247Y-47428570D01*
X89554819Y-48476189D02*
X88554819Y-48476189D01*
X89507200Y-48476189D02*
X89554819Y-48380951D01*
X89554819Y-48380951D02*
X89554819Y-48190475D01*
X89554819Y-48190475D02*
X89507200Y-48095237D01*
X89507200Y-48095237D02*
X89459580Y-48047618D01*
X89459580Y-48047618D02*
X89364342Y-47999999D01*
X89364342Y-47999999D02*
X89078628Y-47999999D01*
X89078628Y-47999999D02*
X88983390Y-48047618D01*
X88983390Y-48047618D02*
X88935771Y-48095237D01*
X88935771Y-48095237D02*
X88888152Y-48190475D01*
X88888152Y-48190475D02*
X88888152Y-48380951D01*
X88888152Y-48380951D02*
X88935771Y-48476189D01*
X89459580Y-50285713D02*
X89507200Y-50238094D01*
X89507200Y-50238094D02*
X89554819Y-50095237D01*
X89554819Y-50095237D02*
X89554819Y-49999999D01*
X89554819Y-49999999D02*
X89507200Y-49857142D01*
X89507200Y-49857142D02*
X89411961Y-49761904D01*
X89411961Y-49761904D02*
X89316723Y-49714285D01*
X89316723Y-49714285D02*
X89126247Y-49666666D01*
X89126247Y-49666666D02*
X88983390Y-49666666D01*
X88983390Y-49666666D02*
X88792914Y-49714285D01*
X88792914Y-49714285D02*
X88697676Y-49761904D01*
X88697676Y-49761904D02*
X88602438Y-49857142D01*
X88602438Y-49857142D02*
X88554819Y-49999999D01*
X88554819Y-49999999D02*
X88554819Y-50095237D01*
X88554819Y-50095237D02*
X88602438Y-50238094D01*
X88602438Y-50238094D02*
X88650057Y-50285713D01*
X88650057Y-50666666D02*
X88602438Y-50714285D01*
X88602438Y-50714285D02*
X88554819Y-50809523D01*
X88554819Y-50809523D02*
X88554819Y-51047618D01*
X88554819Y-51047618D02*
X88602438Y-51142856D01*
X88602438Y-51142856D02*
X88650057Y-51190475D01*
X88650057Y-51190475D02*
X88745295Y-51238094D01*
X88745295Y-51238094D02*
X88840533Y-51238094D01*
X88840533Y-51238094D02*
X88983390Y-51190475D01*
X88983390Y-51190475D02*
X89554819Y-50619047D01*
X89554819Y-50619047D02*
X89554819Y-51238094D01*
X88602438Y-52952380D02*
X88554819Y-52857142D01*
X88554819Y-52857142D02*
X88554819Y-52714285D01*
X88554819Y-52714285D02*
X88602438Y-52571428D01*
X88602438Y-52571428D02*
X88697676Y-52476190D01*
X88697676Y-52476190D02*
X88792914Y-52428571D01*
X88792914Y-52428571D02*
X88983390Y-52380952D01*
X88983390Y-52380952D02*
X89126247Y-52380952D01*
X89126247Y-52380952D02*
X89316723Y-52428571D01*
X89316723Y-52428571D02*
X89411961Y-52476190D01*
X89411961Y-52476190D02*
X89507200Y-52571428D01*
X89507200Y-52571428D02*
X89554819Y-52714285D01*
X89554819Y-52714285D02*
X89554819Y-52809523D01*
X89554819Y-52809523D02*
X89507200Y-52952380D01*
X89507200Y-52952380D02*
X89459580Y-52999999D01*
X89459580Y-52999999D02*
X89126247Y-52999999D01*
X89126247Y-52999999D02*
X89126247Y-52809523D01*
X89554819Y-53857142D02*
X88554819Y-53857142D01*
X89507200Y-53857142D02*
X89554819Y-53761904D01*
X89554819Y-53761904D02*
X89554819Y-53571428D01*
X89554819Y-53571428D02*
X89507200Y-53476190D01*
X89507200Y-53476190D02*
X89459580Y-53428571D01*
X89459580Y-53428571D02*
X89364342Y-53380952D01*
X89364342Y-53380952D02*
X89078628Y-53380952D01*
X89078628Y-53380952D02*
X88983390Y-53428571D01*
X88983390Y-53428571D02*
X88935771Y-53476190D01*
X88935771Y-53476190D02*
X88888152Y-53571428D01*
X88888152Y-53571428D02*
X88888152Y-53761904D01*
X88888152Y-53761904D02*
X88935771Y-53857142D01*
X89459580Y-55666666D02*
X89507200Y-55619047D01*
X89507200Y-55619047D02*
X89554819Y-55476190D01*
X89554819Y-55476190D02*
X89554819Y-55380952D01*
X89554819Y-55380952D02*
X89507200Y-55238095D01*
X89507200Y-55238095D02*
X89411961Y-55142857D01*
X89411961Y-55142857D02*
X89316723Y-55095238D01*
X89316723Y-55095238D02*
X89126247Y-55047619D01*
X89126247Y-55047619D02*
X88983390Y-55047619D01*
X88983390Y-55047619D02*
X88792914Y-55095238D01*
X88792914Y-55095238D02*
X88697676Y-55142857D01*
X88697676Y-55142857D02*
X88602438Y-55238095D01*
X88602438Y-55238095D02*
X88554819Y-55380952D01*
X88554819Y-55380952D02*
X88554819Y-55476190D01*
X88554819Y-55476190D02*
X88602438Y-55619047D01*
X88602438Y-55619047D02*
X88650057Y-55666666D01*
X89554819Y-56619047D02*
X89554819Y-56047619D01*
X89554819Y-56333333D02*
X88554819Y-56333333D01*
X88554819Y-56333333D02*
X88697676Y-56238095D01*
X88697676Y-56238095D02*
X88792914Y-56142857D01*
X88792914Y-56142857D02*
X88840533Y-56047619D01*
X88602438Y-58333333D02*
X88554819Y-58238095D01*
X88554819Y-58238095D02*
X88554819Y-58095238D01*
X88554819Y-58095238D02*
X88602438Y-57952381D01*
X88602438Y-57952381D02*
X88697676Y-57857143D01*
X88697676Y-57857143D02*
X88792914Y-57809524D01*
X88792914Y-57809524D02*
X88983390Y-57761905D01*
X88983390Y-57761905D02*
X89126247Y-57761905D01*
X89126247Y-57761905D02*
X89316723Y-57809524D01*
X89316723Y-57809524D02*
X89411961Y-57857143D01*
X89411961Y-57857143D02*
X89507200Y-57952381D01*
X89507200Y-57952381D02*
X89554819Y-58095238D01*
X89554819Y-58095238D02*
X89554819Y-58190476D01*
X89554819Y-58190476D02*
X89507200Y-58333333D01*
X89507200Y-58333333D02*
X89459580Y-58380952D01*
X89459580Y-58380952D02*
X89126247Y-58380952D01*
X89126247Y-58380952D02*
X89126247Y-58190476D01*
X89554819Y-59238095D02*
X88554819Y-59238095D01*
X89507200Y-59238095D02*
X89554819Y-59142857D01*
X89554819Y-59142857D02*
X89554819Y-58952381D01*
X89554819Y-58952381D02*
X89507200Y-58857143D01*
X89507200Y-58857143D02*
X89459580Y-58809524D01*
X89459580Y-58809524D02*
X89364342Y-58761905D01*
X89364342Y-58761905D02*
X89078628Y-58761905D01*
X89078628Y-58761905D02*
X88983390Y-58809524D01*
X88983390Y-58809524D02*
X88935771Y-58857143D01*
X88935771Y-58857143D02*
X88888152Y-58952381D01*
X88888152Y-58952381D02*
X88888152Y-59142857D01*
X88888152Y-59142857D02*
X88935771Y-59238095D01*
X89459580Y-61047619D02*
X89507200Y-61000000D01*
X89507200Y-61000000D02*
X89554819Y-60857143D01*
X89554819Y-60857143D02*
X89554819Y-60761905D01*
X89554819Y-60761905D02*
X89507200Y-60619048D01*
X89507200Y-60619048D02*
X89411961Y-60523810D01*
X89411961Y-60523810D02*
X89316723Y-60476191D01*
X89316723Y-60476191D02*
X89126247Y-60428572D01*
X89126247Y-60428572D02*
X88983390Y-60428572D01*
X88983390Y-60428572D02*
X88792914Y-60476191D01*
X88792914Y-60476191D02*
X88697676Y-60523810D01*
X88697676Y-60523810D02*
X88602438Y-60619048D01*
X88602438Y-60619048D02*
X88554819Y-60761905D01*
X88554819Y-60761905D02*
X88554819Y-60857143D01*
X88554819Y-60857143D02*
X88602438Y-61000000D01*
X88602438Y-61000000D02*
X88650057Y-61047619D01*
X88554819Y-61666667D02*
X88554819Y-61761905D01*
X88554819Y-61761905D02*
X88602438Y-61857143D01*
X88602438Y-61857143D02*
X88650057Y-61904762D01*
X88650057Y-61904762D02*
X88745295Y-61952381D01*
X88745295Y-61952381D02*
X88935771Y-62000000D01*
X88935771Y-62000000D02*
X89173866Y-62000000D01*
X89173866Y-62000000D02*
X89364342Y-61952381D01*
X89364342Y-61952381D02*
X89459580Y-61904762D01*
X89459580Y-61904762D02*
X89507200Y-61857143D01*
X89507200Y-61857143D02*
X89554819Y-61761905D01*
X89554819Y-61761905D02*
X89554819Y-61666667D01*
X89554819Y-61666667D02*
X89507200Y-61571429D01*
X89507200Y-61571429D02*
X89459580Y-61523810D01*
X89459580Y-61523810D02*
X89364342Y-61476191D01*
X89364342Y-61476191D02*
X89173866Y-61428572D01*
X89173866Y-61428572D02*
X88935771Y-61428572D01*
X88935771Y-61428572D02*
X88745295Y-61476191D01*
X88745295Y-61476191D02*
X88650057Y-61523810D01*
X88650057Y-61523810D02*
X88602438Y-61571429D01*
X88602438Y-61571429D02*
X88554819Y-61666667D01*
X52866666Y-50959580D02*
X52914285Y-51007200D01*
X52914285Y-51007200D02*
X53057142Y-51054819D01*
X53057142Y-51054819D02*
X53152380Y-51054819D01*
X53152380Y-51054819D02*
X53295237Y-51007200D01*
X53295237Y-51007200D02*
X53390475Y-50911961D01*
X53390475Y-50911961D02*
X53438094Y-50816723D01*
X53438094Y-50816723D02*
X53485713Y-50626247D01*
X53485713Y-50626247D02*
X53485713Y-50483390D01*
X53485713Y-50483390D02*
X53438094Y-50292914D01*
X53438094Y-50292914D02*
X53390475Y-50197676D01*
X53390475Y-50197676D02*
X53295237Y-50102438D01*
X53295237Y-50102438D02*
X53152380Y-50054819D01*
X53152380Y-50054819D02*
X53057142Y-50054819D01*
X53057142Y-50054819D02*
X52914285Y-50102438D01*
X52914285Y-50102438D02*
X52866666Y-50150057D01*
X51961904Y-50054819D02*
X52438094Y-50054819D01*
X52438094Y-50054819D02*
X52485713Y-50531009D01*
X52485713Y-50531009D02*
X52438094Y-50483390D01*
X52438094Y-50483390D02*
X52342856Y-50435771D01*
X52342856Y-50435771D02*
X52104761Y-50435771D01*
X52104761Y-50435771D02*
X52009523Y-50483390D01*
X52009523Y-50483390D02*
X51961904Y-50531009D01*
X51961904Y-50531009D02*
X51914285Y-50626247D01*
X51914285Y-50626247D02*
X51914285Y-50864342D01*
X51914285Y-50864342D02*
X51961904Y-50959580D01*
X51961904Y-50959580D02*
X52009523Y-51007200D01*
X52009523Y-51007200D02*
X52104761Y-51054819D01*
X52104761Y-51054819D02*
X52342856Y-51054819D01*
X52342856Y-51054819D02*
X52438094Y-51007200D01*
X52438094Y-51007200D02*
X52485713Y-50959580D01*
X82759580Y-65533333D02*
X82807200Y-65485714D01*
X82807200Y-65485714D02*
X82854819Y-65342857D01*
X82854819Y-65342857D02*
X82854819Y-65247619D01*
X82854819Y-65247619D02*
X82807200Y-65104762D01*
X82807200Y-65104762D02*
X82711961Y-65009524D01*
X82711961Y-65009524D02*
X82616723Y-64961905D01*
X82616723Y-64961905D02*
X82426247Y-64914286D01*
X82426247Y-64914286D02*
X82283390Y-64914286D01*
X82283390Y-64914286D02*
X82092914Y-64961905D01*
X82092914Y-64961905D02*
X81997676Y-65009524D01*
X81997676Y-65009524D02*
X81902438Y-65104762D01*
X81902438Y-65104762D02*
X81854819Y-65247619D01*
X81854819Y-65247619D02*
X81854819Y-65342857D01*
X81854819Y-65342857D02*
X81902438Y-65485714D01*
X81902438Y-65485714D02*
X81950057Y-65533333D01*
X82854819Y-66485714D02*
X82854819Y-65914286D01*
X82854819Y-66200000D02*
X81854819Y-66200000D01*
X81854819Y-66200000D02*
X81997676Y-66104762D01*
X81997676Y-66104762D02*
X82092914Y-66009524D01*
X82092914Y-66009524D02*
X82140533Y-65914286D01*
X62466666Y-54954819D02*
X62799999Y-54478628D01*
X63038094Y-54954819D02*
X63038094Y-53954819D01*
X63038094Y-53954819D02*
X62657142Y-53954819D01*
X62657142Y-53954819D02*
X62561904Y-54002438D01*
X62561904Y-54002438D02*
X62514285Y-54050057D01*
X62514285Y-54050057D02*
X62466666Y-54145295D01*
X62466666Y-54145295D02*
X62466666Y-54288152D01*
X62466666Y-54288152D02*
X62514285Y-54383390D01*
X62514285Y-54383390D02*
X62561904Y-54431009D01*
X62561904Y-54431009D02*
X62657142Y-54478628D01*
X62657142Y-54478628D02*
X63038094Y-54478628D01*
X62085713Y-54050057D02*
X62038094Y-54002438D01*
X62038094Y-54002438D02*
X61942856Y-53954819D01*
X61942856Y-53954819D02*
X61704761Y-53954819D01*
X61704761Y-53954819D02*
X61609523Y-54002438D01*
X61609523Y-54002438D02*
X61561904Y-54050057D01*
X61561904Y-54050057D02*
X61514285Y-54145295D01*
X61514285Y-54145295D02*
X61514285Y-54240533D01*
X61514285Y-54240533D02*
X61561904Y-54383390D01*
X61561904Y-54383390D02*
X62133332Y-54954819D01*
X62133332Y-54954819D02*
X61514285Y-54954819D01*
D11*
X73842580Y-43309523D02*
X73128295Y-43309523D01*
X73128295Y-43309523D02*
X72985438Y-43357142D01*
X72985438Y-43357142D02*
X72890200Y-43452380D01*
X72890200Y-43452380D02*
X72842580Y-43595237D01*
X72842580Y-43595237D02*
X72842580Y-43690475D01*
X72842580Y-42309523D02*
X72842580Y-42880951D01*
X72842580Y-42595237D02*
X73842580Y-42595237D01*
X73842580Y-42595237D02*
X73699723Y-42690475D01*
X73699723Y-42690475D02*
X73604485Y-42785713D01*
X73604485Y-42785713D02*
X73556866Y-42880951D01*
X73842580Y-41690475D02*
X73842580Y-41595237D01*
X73842580Y-41595237D02*
X73794961Y-41499999D01*
X73794961Y-41499999D02*
X73747342Y-41452380D01*
X73747342Y-41452380D02*
X73652104Y-41404761D01*
X73652104Y-41404761D02*
X73461628Y-41357142D01*
X73461628Y-41357142D02*
X73223533Y-41357142D01*
X73223533Y-41357142D02*
X73033057Y-41404761D01*
X73033057Y-41404761D02*
X72937819Y-41452380D01*
X72937819Y-41452380D02*
X72890200Y-41499999D01*
X72890200Y-41499999D02*
X72842580Y-41595237D01*
X72842580Y-41595237D02*
X72842580Y-41690475D01*
X72842580Y-41690475D02*
X72890200Y-41785713D01*
X72890200Y-41785713D02*
X72937819Y-41833332D01*
X72937819Y-41833332D02*
X73033057Y-41880951D01*
X73033057Y-41880951D02*
X73223533Y-41928570D01*
X73223533Y-41928570D02*
X73461628Y-41928570D01*
X73461628Y-41928570D02*
X73652104Y-41880951D01*
X73652104Y-41880951D02*
X73747342Y-41833332D01*
X73747342Y-41833332D02*
X73794961Y-41785713D01*
X73794961Y-41785713D02*
X73842580Y-41690475D01*
D10*
X75792800Y-55428570D02*
X75745180Y-55285713D01*
X75745180Y-55285713D02*
X75745180Y-55047618D01*
X75745180Y-55047618D02*
X75792800Y-54952380D01*
X75792800Y-54952380D02*
X75840419Y-54904761D01*
X75840419Y-54904761D02*
X75935657Y-54857142D01*
X75935657Y-54857142D02*
X76030895Y-54857142D01*
X76030895Y-54857142D02*
X76126133Y-54904761D01*
X76126133Y-54904761D02*
X76173752Y-54952380D01*
X76173752Y-54952380D02*
X76221371Y-55047618D01*
X76221371Y-55047618D02*
X76268990Y-55238094D01*
X76268990Y-55238094D02*
X76316609Y-55333332D01*
X76316609Y-55333332D02*
X76364228Y-55380951D01*
X76364228Y-55380951D02*
X76459466Y-55428570D01*
X76459466Y-55428570D02*
X76554704Y-55428570D01*
X76554704Y-55428570D02*
X76649942Y-55380951D01*
X76649942Y-55380951D02*
X76697561Y-55333332D01*
X76697561Y-55333332D02*
X76745180Y-55238094D01*
X76745180Y-55238094D02*
X76745180Y-54999999D01*
X76745180Y-54999999D02*
X76697561Y-54857142D01*
X75745180Y-54428570D02*
X76411847Y-54428570D01*
X76745180Y-54428570D02*
X76697561Y-54476189D01*
X76697561Y-54476189D02*
X76649942Y-54428570D01*
X76649942Y-54428570D02*
X76697561Y-54380951D01*
X76697561Y-54380951D02*
X76745180Y-54428570D01*
X76745180Y-54428570D02*
X76649942Y-54428570D01*
X76745180Y-53476190D02*
X76745180Y-53952380D01*
X76745180Y-53952380D02*
X76268990Y-53999999D01*
X76268990Y-53999999D02*
X76316609Y-53952380D01*
X76316609Y-53952380D02*
X76364228Y-53857142D01*
X76364228Y-53857142D02*
X76364228Y-53619047D01*
X76364228Y-53619047D02*
X76316609Y-53523809D01*
X76316609Y-53523809D02*
X76268990Y-53476190D01*
X76268990Y-53476190D02*
X76173752Y-53428571D01*
X76173752Y-53428571D02*
X75935657Y-53428571D01*
X75935657Y-53428571D02*
X75840419Y-53476190D01*
X75840419Y-53476190D02*
X75792800Y-53523809D01*
X75792800Y-53523809D02*
X75745180Y-53619047D01*
X75745180Y-53619047D02*
X75745180Y-53857142D01*
X75745180Y-53857142D02*
X75792800Y-53952380D01*
X75792800Y-53952380D02*
X75840419Y-53999999D01*
X76745180Y-53095237D02*
X76745180Y-52476190D01*
X76745180Y-52476190D02*
X76364228Y-52809523D01*
X76364228Y-52809523D02*
X76364228Y-52666666D01*
X76364228Y-52666666D02*
X76316609Y-52571428D01*
X76316609Y-52571428D02*
X76268990Y-52523809D01*
X76268990Y-52523809D02*
X76173752Y-52476190D01*
X76173752Y-52476190D02*
X75935657Y-52476190D01*
X75935657Y-52476190D02*
X75840419Y-52523809D01*
X75840419Y-52523809D02*
X75792800Y-52571428D01*
X75792800Y-52571428D02*
X75745180Y-52666666D01*
X75745180Y-52666666D02*
X75745180Y-52952380D01*
X75745180Y-52952380D02*
X75792800Y-53047618D01*
X75792800Y-53047618D02*
X75840419Y-53095237D01*
X76745180Y-51571428D02*
X76745180Y-52047618D01*
X76745180Y-52047618D02*
X76268990Y-52095237D01*
X76268990Y-52095237D02*
X76316609Y-52047618D01*
X76316609Y-52047618D02*
X76364228Y-51952380D01*
X76364228Y-51952380D02*
X76364228Y-51714285D01*
X76364228Y-51714285D02*
X76316609Y-51619047D01*
X76316609Y-51619047D02*
X76268990Y-51571428D01*
X76268990Y-51571428D02*
X76173752Y-51523809D01*
X76173752Y-51523809D02*
X75935657Y-51523809D01*
X75935657Y-51523809D02*
X75840419Y-51571428D01*
X75840419Y-51571428D02*
X75792800Y-51619047D01*
X75792800Y-51619047D02*
X75745180Y-51714285D01*
X75745180Y-51714285D02*
X75745180Y-51952380D01*
X75745180Y-51952380D02*
X75792800Y-52047618D01*
X75792800Y-52047618D02*
X75840419Y-52095237D01*
X75745180Y-50571428D02*
X75745180Y-51142856D01*
X75745180Y-50857142D02*
X76745180Y-50857142D01*
X76745180Y-50857142D02*
X76602323Y-50952380D01*
X76602323Y-50952380D02*
X76507085Y-51047618D01*
X76507085Y-51047618D02*
X76459466Y-51142856D01*
D12*
G04 #@! TO.C,J2*
X53230000Y-63570000D02*
X53230000Y-66230000D01*
X50630000Y-63570000D02*
X53230000Y-63570000D01*
X50630000Y-63570000D02*
X50630000Y-66230000D01*
X49360000Y-63570000D02*
X48030000Y-63570000D01*
X48030000Y-63570000D02*
X48030000Y-64900000D01*
X50630000Y-66230000D02*
X53230000Y-66230000D01*
G04 #@! TO.C,C7*
X83670000Y-47130000D02*
X83355000Y-47130000D01*
X81245000Y-47130000D02*
X80930000Y-47130000D01*
X83670000Y-52070000D02*
X83670000Y-47130000D01*
X83670000Y-52070000D02*
X83355000Y-52070000D01*
X81245000Y-52070000D02*
X80930000Y-52070000D01*
X80930000Y-52070000D02*
X80930000Y-47130000D01*
G04 #@! TO.C,J12*
X80335000Y-31470000D02*
X80335000Y-34130000D01*
X77735000Y-31470000D02*
X80335000Y-31470000D01*
X77735000Y-31470000D02*
X77735000Y-34130000D01*
X76465000Y-31470000D02*
X75135000Y-31470000D01*
X75135000Y-31470000D02*
X75135000Y-32800000D01*
X77735000Y-34130000D02*
X80335000Y-34130000D01*
G04 #@! TO.C,C6*
X83670000Y-54930000D02*
X83355000Y-54930000D01*
X81245000Y-54930000D02*
X80930000Y-54930000D01*
X83670000Y-59870000D02*
X83670000Y-54930000D01*
X83670000Y-59870000D02*
X83355000Y-59870000D01*
X81245000Y-59870000D02*
X80930000Y-59870000D01*
X80930000Y-59870000D02*
X80930000Y-54930000D01*
G04 #@! TO.C,J6*
X51630000Y-31470000D02*
X51630000Y-34130000D01*
X43950000Y-31470000D02*
X51630000Y-31470000D01*
X43950000Y-31470000D02*
X43950000Y-34130000D01*
X42680000Y-31470000D02*
X41350000Y-31470000D01*
X41350000Y-31470000D02*
X41350000Y-32800000D01*
X43950000Y-34130000D02*
X51630000Y-34130000D01*
G04 #@! TO.C,J8*
X34710000Y-62970000D02*
X24490000Y-62970000D01*
X37310000Y-65630000D02*
X37310000Y-64300000D01*
X35980000Y-65630000D02*
X37310000Y-65630000D01*
X34710000Y-65630000D02*
X34710000Y-62970000D01*
X34710000Y-65630000D02*
X24490000Y-65630000D01*
X24490000Y-65630000D02*
X24490000Y-62970000D01*
G04 #@! TO.C,J4*
X32810000Y-34230000D02*
X32810000Y-31570000D01*
X32870000Y-34230000D02*
X32810000Y-34230000D01*
X32870000Y-34230000D02*
X32870000Y-31570000D01*
X34140000Y-34230000D02*
X35470000Y-34230000D01*
X35470000Y-34230000D02*
X35470000Y-32900000D01*
X32870000Y-31570000D02*
X32810000Y-31570000D01*
G04 #@! TO.C,A1*
X70280000Y-42660000D02*
X70280000Y-60700000D01*
X26840000Y-42660000D02*
X70280000Y-42660000D01*
X26840000Y-42660000D02*
X26840000Y-47740000D01*
X67610000Y-45330000D02*
X67610000Y-42660000D01*
X67610000Y-45330000D02*
X29510000Y-45330000D01*
X29510000Y-45330000D02*
X29510000Y-42660000D01*
X34720000Y-47740000D02*
X24300000Y-47740000D01*
X24300000Y-47740000D02*
X24300000Y-55620000D01*
X34720000Y-55620000D02*
X34720000Y-47740000D01*
X24300000Y-55620000D02*
X34720000Y-55620000D01*
X67610000Y-58030000D02*
X67610000Y-60700000D01*
X65070000Y-58030000D02*
X67610000Y-58030000D01*
X65070000Y-58030000D02*
X29510000Y-58030000D01*
X65070000Y-58030000D02*
X65070000Y-60700000D01*
X29510000Y-58030000D02*
X29510000Y-60700000D01*
X70280000Y-60700000D02*
X67610000Y-60700000D01*
X65070000Y-60700000D02*
X26840000Y-60700000D01*
X26840000Y-60700000D02*
X26840000Y-55620000D01*
G04 #@! TO.C,C4*
X55140000Y-55970000D02*
X50200000Y-55970000D01*
X55140000Y-55655000D02*
X55140000Y-55970000D01*
X55140000Y-53230000D02*
X55140000Y-53545000D01*
X55140000Y-53230000D02*
X50200000Y-53230000D01*
X50200000Y-55655000D02*
X50200000Y-55970000D01*
X50200000Y-53230000D02*
X50200000Y-53545000D01*
G04 #@! TO.C,R1*
X65340000Y-51870000D02*
X58800000Y-51870000D01*
X65340000Y-51540000D02*
X65340000Y-51870000D01*
X65340000Y-49460000D02*
X65340000Y-49130000D01*
X65340000Y-49130000D02*
X58800000Y-49130000D01*
X58800000Y-51870000D02*
X58800000Y-51540000D01*
X58800000Y-49130000D02*
X58800000Y-49460000D01*
G04 #@! TO.C,J9*
X71870000Y-31570000D02*
X71870000Y-34230000D01*
X69270000Y-31570000D02*
X71870000Y-31570000D01*
X69270000Y-31570000D02*
X69270000Y-34230000D01*
X68000000Y-31570000D02*
X66670000Y-31570000D01*
X66670000Y-31570000D02*
X66670000Y-32900000D01*
X69270000Y-34230000D02*
X71870000Y-34230000D01*
G04 #@! TO.C,J5*
X85070000Y-46510000D02*
X87730000Y-46510000D01*
X85070000Y-59270000D02*
X85070000Y-46510000D01*
X85070000Y-59270000D02*
X87730000Y-59270000D01*
X85070000Y-60540000D02*
X85070000Y-61870000D01*
X85070000Y-61870000D02*
X86400000Y-61870000D01*
X87730000Y-59270000D02*
X87730000Y-46510000D01*
G04 #@! TO.C,C5*
X55240000Y-51970000D02*
X50300000Y-51970000D01*
X55240000Y-51655000D02*
X55240000Y-51970000D01*
X55240000Y-49230000D02*
X55240000Y-49545000D01*
X55240000Y-49230000D02*
X50300000Y-49230000D01*
X50300000Y-51655000D02*
X50300000Y-51970000D01*
X50300000Y-49230000D02*
X50300000Y-49545000D01*
G04 #@! TO.C,C1*
X80930000Y-68070000D02*
X80930000Y-63130000D01*
X81245000Y-68070000D02*
X80930000Y-68070000D01*
X83670000Y-68070000D02*
X83355000Y-68070000D01*
X83670000Y-68070000D02*
X83670000Y-63130000D01*
X81245000Y-63130000D02*
X80930000Y-63130000D01*
X83670000Y-63130000D02*
X83355000Y-63130000D01*
G04 #@! TO.C,R2*
X58800000Y-53130000D02*
X58800000Y-53460000D01*
X58800000Y-55870000D02*
X58800000Y-55540000D01*
X65340000Y-53130000D02*
X58800000Y-53130000D01*
X65340000Y-53460000D02*
X65340000Y-53130000D01*
X65340000Y-55540000D02*
X65340000Y-55870000D01*
X65340000Y-55870000D02*
X58800000Y-55870000D01*
G04 #@! TO.C,J10*
X71870000Y-62655000D02*
X73200000Y-62655000D01*
X71870000Y-61325000D02*
X71870000Y-62655000D01*
X71870000Y-60055000D02*
X74530000Y-60055000D01*
X74530000Y-60055000D02*
X74530000Y-44755000D01*
X71450000Y-59605000D02*
X71450000Y-44305000D01*
X71870000Y-44755000D02*
X74530000Y-44755000D01*
D11*
X80400000Y-69200000D02*
X71400000Y-69200000D01*
X71400000Y-69200000D02*
X71400000Y-38200000D01*
X71400000Y-38200000D02*
X80400000Y-38200000D01*
X80400000Y-38200000D02*
X80400000Y-69200000D01*
G04 #@! TD*
%LPC*%
D13*
G04 #@! TO.C,J3*
X43274000Y-39800000D03*
X43274000Y-62914000D03*
X65626000Y-39800000D03*
X65626000Y-62914000D03*
D14*
X58200000Y-39165000D03*
D15*
X55700000Y-39165000D03*
X53200000Y-39165000D03*
X50700000Y-39165000D03*
G04 #@! TD*
D16*
G04 #@! TO.C,SW2*
X64500000Y-69750000D03*
D17*
X59500000Y-69750000D03*
X62000000Y-69750000D03*
D18*
X67600000Y-77250000D03*
X56400000Y-77250000D03*
D17*
X59500000Y-84250000D03*
X64500000Y-84250000D03*
G04 #@! TD*
D19*
G04 #@! TO.C,REF\u002A\u002A*
X26000000Y-33700000D03*
G04 #@! TD*
G04 #@! TO.C,REF\u002A\u002A*
X86600000Y-33600000D03*
G04 #@! TD*
G04 #@! TO.C,REF\u002A\u002A*
X86500000Y-83800000D03*
G04 #@! TD*
D17*
G04 #@! TO.C,SW1*
X27200000Y-71400000D03*
X32200000Y-71400000D03*
X27200000Y-76400000D03*
X32200000Y-76400000D03*
G04 #@! TD*
D20*
G04 #@! TO.C,J1*
X85700000Y-75100000D03*
D21*
X88800000Y-75100000D03*
D20*
X77400000Y-75100000D03*
G04 #@! TD*
D22*
G04 #@! TO.C,RV1*
X28600000Y-56400000D03*
X28600000Y-46800000D03*
D23*
X36100000Y-54100000D03*
D24*
X36100000Y-51600000D03*
X36100000Y-49100000D03*
G04 #@! TD*
D19*
G04 #@! TO.C,REF\u002A\u002A*
X26000000Y-83100000D03*
G04 #@! TD*
D17*
G04 #@! TO.C,SW3*
X40200000Y-71400000D03*
X45200000Y-71400000D03*
X40200000Y-76400000D03*
X45200000Y-76400000D03*
G04 #@! TD*
D14*
G04 #@! TO.C,J2*
X49360000Y-64900000D03*
D15*
X51900000Y-64900000D03*
G04 #@! TD*
D25*
G04 #@! TO.C,C7*
X82300000Y-47100000D03*
X82300000Y-52100000D03*
G04 #@! TD*
D14*
G04 #@! TO.C,J12*
X76465000Y-32800000D03*
D15*
X79005000Y-32800000D03*
G04 #@! TD*
D25*
G04 #@! TO.C,C6*
X82300000Y-54900000D03*
X82300000Y-59900000D03*
G04 #@! TD*
D14*
G04 #@! TO.C,J6*
X42680000Y-32800000D03*
D15*
X45220000Y-32800000D03*
X47760000Y-32800000D03*
X50300000Y-32800000D03*
G04 #@! TD*
G04 #@! TO.C,J8*
X25820000Y-64300000D03*
X28360000Y-64300000D03*
X30900000Y-64300000D03*
X33440000Y-64300000D03*
D14*
X35980000Y-64300000D03*
G04 #@! TD*
G04 #@! TO.C,J4*
X34140000Y-32900000D03*
G04 #@! TD*
D26*
G04 #@! TO.C,A1*
X66340000Y-44060000D03*
X63800000Y-44060000D03*
X61260000Y-44060000D03*
X58720000Y-44060000D03*
X56180000Y-44060000D03*
X53640000Y-44060000D03*
X51100000Y-44060000D03*
X48560000Y-44060000D03*
X46020000Y-44060000D03*
X43480000Y-44060000D03*
X40940000Y-44060000D03*
X38400000Y-44060000D03*
X35860000Y-44060000D03*
X33320000Y-44060000D03*
X30780000Y-44060000D03*
X30780000Y-59300000D03*
X33320000Y-59300000D03*
X35860000Y-59300000D03*
X38400000Y-59300000D03*
X40940000Y-59300000D03*
X43480000Y-59300000D03*
X46020000Y-59300000D03*
X48560000Y-59300000D03*
X51100000Y-59300000D03*
X53640000Y-59300000D03*
X56180000Y-59300000D03*
X58720000Y-59300000D03*
X61260000Y-59300000D03*
X63800000Y-59300000D03*
D27*
X66340000Y-59300000D03*
G04 #@! TD*
D25*
G04 #@! TO.C,C4*
X55170000Y-54600000D03*
X50170000Y-54600000D03*
G04 #@! TD*
G04 #@! TO.C,R1*
X65880000Y-50500000D03*
D26*
X58260000Y-50500000D03*
G04 #@! TD*
D14*
G04 #@! TO.C,J9*
X68000000Y-32900000D03*
D15*
X70540000Y-32900000D03*
G04 #@! TD*
D14*
G04 #@! TO.C,J5*
X86400000Y-60540000D03*
D15*
X86400000Y-58000000D03*
X86400000Y-55460000D03*
X86400000Y-52920000D03*
X86400000Y-50380000D03*
X86400000Y-47840000D03*
G04 #@! TD*
D25*
G04 #@! TO.C,C5*
X55270000Y-50600000D03*
X50270000Y-50600000D03*
G04 #@! TD*
G04 #@! TO.C,C1*
X82300000Y-68100000D03*
X82300000Y-63100000D03*
G04 #@! TD*
D26*
G04 #@! TO.C,R2*
X58260000Y-54500000D03*
D25*
X65880000Y-54500000D03*
G04 #@! TD*
D14*
G04 #@! TO.C,J10*
X73200000Y-61325000D03*
D15*
X73200000Y-58785000D03*
X73200000Y-56245000D03*
X73200000Y-53705000D03*
X73200000Y-51165000D03*
X73200000Y-48625000D03*
X73200000Y-46085000D03*
G04 #@! TD*
%LPD*%
M02*
