G04 #@! TF.GenerationSoftware,KiCad,Pcbnew,7.0.8*
G04 #@! TF.CreationDate,2024-01-30T12:30:03+00:00*
G04 #@! TF.ProjectId,NanoVFO,4e616e6f-5646-44f2-9e6b-696361645f70,rev?*
G04 #@! TF.SameCoordinates,Original*
G04 #@! TF.FileFunction,Copper,L2,Bot*
G04 #@! TF.FilePolarity,Positive*
%FSLAX46Y46*%
G04 Gerber Fmt 4.6, Leading zero omitted, Abs format (unit mm)*
G04 Created by KiCad (PCBNEW 7.0.8) date 2024-01-30 12:30:03*
%MOMM*%
%LPD*%
G01*
G04 APERTURE LIST*
G04 Aperture macros list*
%AMRoundRect*
0 Rectangle with rounded corners*
0 $1 Rounding radius*
0 $2 $3 $4 $5 $6 $7 $8 $9 X,Y pos of 4 corners*
0 Add a 4 corners polygon primitive as box body*
4,1,4,$2,$3,$4,$5,$6,$7,$8,$9,$2,$3,0*
0 Add four circle primitives for the rounded corners*
1,1,$1+$1,$2,$3*
1,1,$1+$1,$4,$5*
1,1,$1+$1,$6,$7*
1,1,$1+$1,$8,$9*
0 Add four rect primitives between the rounded corners*
20,1,$1+$1,$2,$3,$4,$5,0*
20,1,$1+$1,$4,$5,$6,$7,0*
20,1,$1+$1,$6,$7,$8,$9,0*
20,1,$1+$1,$8,$9,$2,$3,0*%
G04 Aperture macros list end*
G04 #@! TA.AperFunction,ComponentPad*
%ADD10R,1.700000X1.700000*%
G04 #@! TD*
G04 #@! TA.AperFunction,ComponentPad*
%ADD11O,1.700000X1.700000*%
G04 #@! TD*
G04 #@! TA.AperFunction,ComponentPad*
%ADD12R,2.000000X2.000000*%
G04 #@! TD*
G04 #@! TA.AperFunction,ComponentPad*
%ADD13C,2.000000*%
G04 #@! TD*
G04 #@! TA.AperFunction,ComponentPad*
%ADD14R,2.000000X3.200000*%
G04 #@! TD*
G04 #@! TA.AperFunction,ComponentPad*
%ADD15RoundRect,0.650000X0.650000X-0.650000X0.650000X0.650000X-0.650000X0.650000X-0.650000X-0.650000X0*%
G04 #@! TD*
G04 #@! TA.AperFunction,ComponentPad*
%ADD16O,2.100000X3.100000*%
G04 #@! TD*
G04 #@! TA.AperFunction,ComponentPad*
%ADD17O,3.240000X2.720000*%
G04 #@! TD*
G04 #@! TA.AperFunction,ComponentPad*
%ADD18R,1.800000X1.800000*%
G04 #@! TD*
G04 #@! TA.AperFunction,ComponentPad*
%ADD19C,1.800000*%
G04 #@! TD*
G04 #@! TA.AperFunction,ComponentPad*
%ADD20C,1.600000*%
G04 #@! TD*
G04 #@! TA.AperFunction,ComponentPad*
%ADD21O,1.600000X1.600000*%
G04 #@! TD*
G04 #@! TA.AperFunction,ComponentPad*
%ADD22R,1.600000X1.600000*%
G04 #@! TD*
G04 #@! TA.AperFunction,ViaPad*
%ADD23C,0.800000*%
G04 #@! TD*
G04 #@! TA.AperFunction,Conductor*
%ADD24C,0.250000*%
G04 #@! TD*
G04 APERTURE END LIST*
D10*
G04 #@! TO.P,J3,1,Pin_1*
G04 #@! TO.N,/SDA*
X58200000Y-39165000D03*
D11*
G04 #@! TO.P,J3,2,Pin_2*
G04 #@! TO.N,/SCL*
X55700000Y-39165000D03*
G04 #@! TO.P,J3,3,Pin_3*
G04 #@! TO.N,VCC*
X53200000Y-39165000D03*
G04 #@! TO.P,J3,4,Pin_4*
G04 #@! TO.N,GND*
X50700000Y-39165000D03*
G04 #@! TD*
D12*
G04 #@! TO.P,SW2,A,A*
G04 #@! TO.N,Net-(A1-D2)*
X64500000Y-69750000D03*
D13*
G04 #@! TO.P,SW2,B,B*
G04 #@! TO.N,Net-(A1-D4)*
X59500000Y-69750000D03*
G04 #@! TO.P,SW2,C,C*
G04 #@! TO.N,GND*
X62000000Y-69750000D03*
D14*
G04 #@! TO.P,SW2,MP*
G04 #@! TO.N,N/C*
X67600000Y-77250000D03*
X56400000Y-77250000D03*
D13*
G04 #@! TO.P,SW2,S1,S1*
G04 #@! TO.N,Net-(A1-D3)*
X59500000Y-84250000D03*
G04 #@! TO.P,SW2,S2,S2*
G04 #@! TO.N,GND*
X64500000Y-84250000D03*
G04 #@! TD*
G04 #@! TO.P,SW1,1,1*
G04 #@! TO.N,GND*
X27200000Y-71400000D03*
G04 #@! TO.P,SW1,2,2*
G04 #@! TO.N,/Spot*
X32200000Y-71400000D03*
G04 #@! TO.P,SW1,3*
G04 #@! TO.N,N/C*
X27200000Y-76400000D03*
G04 #@! TO.P,SW1,4*
X32200000Y-76400000D03*
G04 #@! TD*
D15*
G04 #@! TO.P,J1,R*
G04 #@! TO.N,Net-(A1-D1{slash}TX)*
X85700000Y-75100000D03*
D16*
G04 #@! TO.P,J1,S*
G04 #@! TO.N,GND*
X88800000Y-75100000D03*
D15*
G04 #@! TO.P,J1,T*
G04 #@! TO.N,Net-(A1-D0{slash}RX)*
X77400000Y-75100000D03*
G04 #@! TD*
D17*
G04 #@! TO.P,RV1,*
G04 #@! TO.N,*
X28600000Y-56400000D03*
X28600000Y-46800000D03*
D18*
G04 #@! TO.P,RV1,1,1*
G04 #@! TO.N,VCC*
X36100000Y-54100000D03*
D19*
G04 #@! TO.P,RV1,2,2*
G04 #@! TO.N,/Key Speed*
X36100000Y-51600000D03*
G04 #@! TO.P,RV1,3,3*
G04 #@! TO.N,GND*
X36100000Y-49100000D03*
G04 #@! TD*
D13*
G04 #@! TO.P,SW3,1,1*
G04 #@! TO.N,GND*
X40200000Y-71400000D03*
G04 #@! TO.P,SW3,2,2*
G04 #@! TO.N,Net-(A1-D6)*
X45200000Y-71400000D03*
G04 #@! TO.P,SW3,3*
G04 #@! TO.N,N/C*
X40200000Y-76400000D03*
G04 #@! TO.P,SW3,4*
X45200000Y-76400000D03*
G04 #@! TD*
D10*
G04 #@! TO.P,J2,1,Pin_1*
G04 #@! TO.N,/Spkr*
X49360000Y-64900000D03*
D11*
G04 #@! TO.P,J2,2,Pin_2*
G04 #@! TO.N,GND*
X51900000Y-64900000D03*
G04 #@! TD*
D20*
G04 #@! TO.P,C7,2*
G04 #@! TO.N,Net-(J5-Pin_5)*
X82300000Y-47100000D03*
G04 #@! TO.P,C7,1*
G04 #@! TO.N,/Clk2*
X82300000Y-52100000D03*
G04 #@! TD*
D10*
G04 #@! TO.P,J12,1,Pin_1*
G04 #@! TO.N,VCC*
X76465000Y-32800000D03*
D11*
G04 #@! TO.P,J12,2,Pin_2*
G04 #@! TO.N,GND*
X79005000Y-32800000D03*
G04 #@! TD*
D20*
G04 #@! TO.P,C6,2*
G04 #@! TO.N,Net-(J5-Pin_3)*
X82300000Y-54900000D03*
G04 #@! TO.P,C6,1*
G04 #@! TO.N,/Clk1*
X82300000Y-59900000D03*
G04 #@! TD*
D10*
G04 #@! TO.P,J6,1,Pin_1*
G04 #@! TO.N,/TXRX Relay*
X42680000Y-32800000D03*
D11*
G04 #@! TO.P,J6,2,Pin_2*
G04 #@! TO.N,Net-(A1-A2)*
X45220000Y-32800000D03*
G04 #@! TO.P,J6,3,Pin_3*
G04 #@! TO.N,Net-(A1-A3)*
X47760000Y-32800000D03*
G04 #@! TO.P,J6,4,Pin_4*
G04 #@! TO.N,GND*
X50300000Y-32800000D03*
G04 #@! TD*
G04 #@! TO.P,J8,5,Pin_5*
G04 #@! TO.N,/Band E*
X25820000Y-64300000D03*
G04 #@! TO.P,J8,4,Pin_4*
G04 #@! TO.N,/Band D*
X28360000Y-64300000D03*
G04 #@! TO.P,J8,3,Pin_3*
G04 #@! TO.N,/Band C*
X30900000Y-64300000D03*
G04 #@! TO.P,J8,2,Pin_2*
G04 #@! TO.N,/Band B*
X33440000Y-64300000D03*
D10*
G04 #@! TO.P,J8,1,Pin_1*
G04 #@! TO.N,/Band A*
X35980000Y-64300000D03*
G04 #@! TD*
G04 #@! TO.P,J4,1,Pin_1*
G04 #@! TO.N,/PA*
X34140000Y-32900000D03*
G04 #@! TD*
D21*
G04 #@! TO.P,A1,30,VIN*
G04 #@! TO.N,VCC*
X66340000Y-44060000D03*
G04 #@! TO.P,A1,29,GND*
G04 #@! TO.N,GND*
X63800000Y-44060000D03*
G04 #@! TO.P,A1,28,~{RESET}*
G04 #@! TO.N,unconnected-(A1-~{RESET}-Pad28)*
X61260000Y-44060000D03*
G04 #@! TO.P,A1,27,+5V*
G04 #@! TO.N,unconnected-(A1-+5V-Pad27)*
X58720000Y-44060000D03*
G04 #@! TO.P,A1,26,A7*
G04 #@! TO.N,Net-(A1-A7)*
X56180000Y-44060000D03*
G04 #@! TO.P,A1,25,A6*
G04 #@! TO.N,Net-(A1-A6)*
X53640000Y-44060000D03*
G04 #@! TO.P,A1,24,A5*
G04 #@! TO.N,/SCL*
X51100000Y-44060000D03*
G04 #@! TO.P,A1,23,A4*
G04 #@! TO.N,/SDA*
X48560000Y-44060000D03*
G04 #@! TO.P,A1,22,A3*
G04 #@! TO.N,Net-(A1-A3)*
X46020000Y-44060000D03*
G04 #@! TO.P,A1,21,A2*
G04 #@! TO.N,Net-(A1-A2)*
X43480000Y-44060000D03*
G04 #@! TO.P,A1,20,A1*
G04 #@! TO.N,/TXRX Relay*
X40940000Y-44060000D03*
G04 #@! TO.P,A1,19,A0*
G04 #@! TO.N,/Key Speed*
X38400000Y-44060000D03*
G04 #@! TO.P,A1,18,AREF*
G04 #@! TO.N,unconnected-(A1-AREF-Pad18)*
X35860000Y-44060000D03*
G04 #@! TO.P,A1,17,3V3*
G04 #@! TO.N,unconnected-(A1-3V3-Pad17)*
X33320000Y-44060000D03*
G04 #@! TO.P,A1,16,D13*
G04 #@! TO.N,/PA*
X30780000Y-44060000D03*
G04 #@! TO.P,A1,15,D12*
G04 #@! TO.N,/Band E*
X30780000Y-59300000D03*
G04 #@! TO.P,A1,14,D11*
G04 #@! TO.N,/Band D*
X33320000Y-59300000D03*
G04 #@! TO.P,A1,13,D10*
G04 #@! TO.N,/Band C*
X35860000Y-59300000D03*
G04 #@! TO.P,A1,12,D9*
G04 #@! TO.N,/Band B*
X38400000Y-59300000D03*
G04 #@! TO.P,A1,11,D8*
G04 #@! TO.N,/Band A*
X40940000Y-59300000D03*
G04 #@! TO.P,A1,10,D7*
G04 #@! TO.N,/Spot*
X43480000Y-59300000D03*
G04 #@! TO.P,A1,9,D6*
G04 #@! TO.N,Net-(A1-D6)*
X46020000Y-59300000D03*
G04 #@! TO.P,A1,8,D5*
G04 #@! TO.N,/Spkr*
X48560000Y-59300000D03*
G04 #@! TO.P,A1,7,D4*
G04 #@! TO.N,Net-(A1-D4)*
X51100000Y-59300000D03*
G04 #@! TO.P,A1,6,D3*
G04 #@! TO.N,Net-(A1-D3)*
X53640000Y-59300000D03*
G04 #@! TO.P,A1,5,D2*
G04 #@! TO.N,Net-(A1-D2)*
X56180000Y-59300000D03*
G04 #@! TO.P,A1,4,GND*
G04 #@! TO.N,GND*
X58720000Y-59300000D03*
G04 #@! TO.P,A1,3,~{RESET}*
G04 #@! TO.N,unconnected-(A1-~{RESET}-Pad3)*
X61260000Y-59300000D03*
G04 #@! TO.P,A1,2,D0/RX*
G04 #@! TO.N,Net-(A1-D0{slash}RX)*
X63800000Y-59300000D03*
D22*
G04 #@! TO.P,A1,1,D1/TX*
G04 #@! TO.N,Net-(A1-D1{slash}TX)*
X66340000Y-59300000D03*
G04 #@! TD*
D20*
G04 #@! TO.P,C4,1*
G04 #@! TO.N,Net-(A1-D2)*
X55170000Y-54600000D03*
G04 #@! TO.P,C4,2*
G04 #@! TO.N,GND*
X50170000Y-54600000D03*
G04 #@! TD*
G04 #@! TO.P,R1,1*
G04 #@! TO.N,VCC*
X65880000Y-50500000D03*
D21*
G04 #@! TO.P,R1,2*
G04 #@! TO.N,Net-(A1-D4)*
X58260000Y-50500000D03*
G04 #@! TD*
D10*
G04 #@! TO.P,J9,1,Pin_1*
G04 #@! TO.N,Net-(A1-A6)*
X68000000Y-32900000D03*
D11*
G04 #@! TO.P,J9,2,Pin_2*
G04 #@! TO.N,Net-(A1-A7)*
X70540000Y-32900000D03*
G04 #@! TD*
D10*
G04 #@! TO.P,J5,1,Pin_1*
G04 #@! TO.N,Net-(J5-Pin_1)*
X86400000Y-60540000D03*
D11*
G04 #@! TO.P,J5,2,Pin_2*
G04 #@! TO.N,GND*
X86400000Y-58000000D03*
G04 #@! TO.P,J5,3,Pin_3*
G04 #@! TO.N,Net-(J5-Pin_3)*
X86400000Y-55460000D03*
G04 #@! TO.P,J5,4,Pin_4*
G04 #@! TO.N,GND*
X86400000Y-52920000D03*
G04 #@! TO.P,J5,5,Pin_5*
G04 #@! TO.N,Net-(J5-Pin_5)*
X86400000Y-50380000D03*
G04 #@! TO.P,J5,6,Pin_6*
G04 #@! TO.N,GND*
X86400000Y-47840000D03*
G04 #@! TD*
D20*
G04 #@! TO.P,C5,1*
G04 #@! TO.N,Net-(A1-D4)*
X55270000Y-50600000D03*
G04 #@! TO.P,C5,2*
G04 #@! TO.N,GND*
X50270000Y-50600000D03*
G04 #@! TD*
G04 #@! TO.P,C1,1*
G04 #@! TO.N,Net-(J5-Pin_1)*
X82300000Y-68100000D03*
G04 #@! TO.P,C1,2*
G04 #@! TO.N,/Clk0*
X82300000Y-63100000D03*
G04 #@! TD*
D21*
G04 #@! TO.P,R2,2*
G04 #@! TO.N,Net-(A1-D2)*
X58260000Y-54500000D03*
D20*
G04 #@! TO.P,R2,1*
G04 #@! TO.N,VCC*
X65880000Y-54500000D03*
G04 #@! TD*
D10*
G04 #@! TO.P,J10,1,Pin_1*
G04 #@! TO.N,/Clk0*
X73200000Y-61325000D03*
D11*
G04 #@! TO.P,J10,2,Pin_2*
G04 #@! TO.N,/Clk1*
X73200000Y-58785000D03*
G04 #@! TO.P,J10,3,Pin_3*
G04 #@! TO.N,/Clk2*
X73200000Y-56245000D03*
G04 #@! TO.P,J10,4,Pin_4*
G04 #@! TO.N,/SCL*
X73200000Y-53705000D03*
G04 #@! TO.P,J10,5,Pin_5*
G04 #@! TO.N,/SDA*
X73200000Y-51165000D03*
G04 #@! TO.P,J10,6,Pin_6*
G04 #@! TO.N,GND*
X73200000Y-48625000D03*
G04 #@! TO.P,J10,7,Pin_7*
G04 #@! TO.N,VCC*
X73200000Y-46085000D03*
G04 #@! TD*
D23*
G04 #@! TO.N,/SDA*
X62500000Y-45500000D03*
G04 #@! TD*
D24*
G04 #@! TO.N,/SDA*
X70665000Y-51165000D02*
X73200000Y-51165000D01*
X62500000Y-45500000D02*
X62800000Y-45800000D01*
X62800000Y-45800000D02*
X65300000Y-45800000D01*
X65300000Y-45800000D02*
X70665000Y-51165000D01*
G04 #@! TO.N,Net-(A1-D3)*
X58000000Y-82750000D02*
X59500000Y-84250000D01*
X58000000Y-63660000D02*
X58000000Y-82750000D01*
X53640000Y-59300000D02*
X58000000Y-63660000D01*
G04 #@! TO.N,Net-(A1-D0{slash}RX)*
X63800000Y-58100000D02*
X63800000Y-59300000D01*
X64700000Y-57200000D02*
X63800000Y-58100000D01*
X69800000Y-58500000D02*
X68500000Y-57200000D01*
X68500000Y-57200000D02*
X64700000Y-57200000D01*
X69800000Y-62900000D02*
X69800000Y-58500000D01*
X77380000Y-70480000D02*
X69800000Y-62900000D01*
X77380000Y-75100000D02*
X77380000Y-70480000D01*
G04 #@! TO.N,/SDA*
X51770000Y-40850000D02*
X48560000Y-44060000D01*
X57771604Y-39292000D02*
X56213604Y-40850000D01*
X56213604Y-40850000D02*
X51770000Y-40850000D01*
X58250000Y-39292000D02*
X57771604Y-39292000D01*
G04 #@! TO.N,/SCL*
X54240000Y-47200000D02*
X51100000Y-44060000D01*
X65100000Y-47200000D02*
X54240000Y-47200000D01*
X71605000Y-53705000D02*
X65100000Y-47200000D01*
X73200000Y-53705000D02*
X71605000Y-53705000D01*
G04 #@! TO.N,Net-(A1-A7)*
X56900000Y-42000000D02*
X56180000Y-42720000D01*
X62000000Y-41200000D02*
X61200000Y-42000000D01*
X62000000Y-36100000D02*
X62000000Y-41200000D01*
X70000000Y-35500000D02*
X62600000Y-35500000D01*
X70600000Y-34900000D02*
X70000000Y-35500000D01*
X70540000Y-32900000D02*
X70540000Y-34840000D01*
X56180000Y-42720000D02*
X56180000Y-44060000D01*
X70540000Y-34840000D02*
X70600000Y-34900000D01*
X62600000Y-35500000D02*
X62000000Y-36100000D01*
X61200000Y-42000000D02*
X56900000Y-42000000D01*
G04 #@! TO.N,Net-(A1-A6)*
X60800000Y-40900000D02*
X60800000Y-35500000D01*
X63400000Y-32900000D02*
X68000000Y-32900000D01*
X56400000Y-41300000D02*
X60400000Y-41300000D01*
X60400000Y-41300000D02*
X60800000Y-40900000D01*
X53640000Y-44060000D02*
X56400000Y-41300000D01*
X60800000Y-35500000D02*
X63400000Y-32900000D01*
G04 #@! TD*
G04 #@! TA.AperFunction,Conductor*
G04 #@! TO.N,GND*
G36*
X86614808Y-29003702D02*
G01*
X88175710Y-29393927D01*
X88220030Y-29415022D01*
X89149848Y-30112386D01*
X89383008Y-30287256D01*
X89411782Y-30317673D01*
X90194145Y-31491218D01*
X90204284Y-31509640D01*
X90431105Y-32019987D01*
X90576672Y-32347513D01*
X90591910Y-32381797D01*
X90601982Y-32419820D01*
X90699685Y-33396861D01*
X90699993Y-33403156D01*
X90600004Y-83997248D01*
X90599750Y-84002741D01*
X90501937Y-85078691D01*
X90491033Y-85119428D01*
X89907494Y-86383762D01*
X89888227Y-86413454D01*
X89211724Y-87186601D01*
X89184977Y-87209560D01*
X88112878Y-87891804D01*
X88085517Y-87904827D01*
X86919089Y-88293637D01*
X86879877Y-88300000D01*
X25313135Y-88300000D01*
X25287153Y-88297247D01*
X23924555Y-88005261D01*
X23879428Y-87985599D01*
X22908893Y-87306225D01*
X22892321Y-87292321D01*
X22112868Y-86512868D01*
X22091371Y-86483975D01*
X21410457Y-85219420D01*
X21396881Y-85178168D01*
X21388554Y-85119882D01*
X21201246Y-83808722D01*
X21200000Y-83791186D01*
X21200000Y-83167763D01*
X24145787Y-83167763D01*
X24175413Y-83437013D01*
X24175415Y-83437024D01*
X24217258Y-83597075D01*
X24243928Y-83699088D01*
X24349870Y-83948390D01*
X24464992Y-84137024D01*
X24490979Y-84179605D01*
X24490986Y-84179615D01*
X24664253Y-84387819D01*
X24664259Y-84387824D01*
X24744639Y-84459844D01*
X24865998Y-84568582D01*
X25091910Y-84718044D01*
X25337176Y-84833020D01*
X25337183Y-84833022D01*
X25337185Y-84833023D01*
X25596557Y-84911057D01*
X25596564Y-84911058D01*
X25596569Y-84911060D01*
X25864561Y-84950500D01*
X25864566Y-84950500D01*
X26067636Y-84950500D01*
X26119133Y-84946730D01*
X26270156Y-84935677D01*
X26382758Y-84910593D01*
X26534546Y-84876782D01*
X26534548Y-84876781D01*
X26534553Y-84876780D01*
X26787558Y-84780014D01*
X27023777Y-84647441D01*
X27238177Y-84481888D01*
X27426186Y-84286881D01*
X27583799Y-84066579D01*
X27686016Y-83867765D01*
X27707649Y-83825690D01*
X27707651Y-83825684D01*
X27707656Y-83825675D01*
X27795118Y-83569305D01*
X27844319Y-83302933D01*
X27854212Y-83032235D01*
X27824586Y-82762982D01*
X27756072Y-82500912D01*
X27650130Y-82251610D01*
X27509018Y-82020390D01*
X27482845Y-81988940D01*
X27335746Y-81812180D01*
X27335740Y-81812175D01*
X27134002Y-81631418D01*
X26908092Y-81481957D01*
X26908090Y-81481956D01*
X26662824Y-81366980D01*
X26662819Y-81366978D01*
X26662814Y-81366976D01*
X26403442Y-81288942D01*
X26403428Y-81288939D01*
X26287791Y-81271921D01*
X26135439Y-81249500D01*
X25932369Y-81249500D01*
X25932364Y-81249500D01*
X25729844Y-81264323D01*
X25729831Y-81264325D01*
X25465453Y-81323217D01*
X25465446Y-81323220D01*
X25212439Y-81419987D01*
X24976226Y-81552557D01*
X24761822Y-81718112D01*
X24573822Y-81913109D01*
X24573816Y-81913116D01*
X24416202Y-82133419D01*
X24416199Y-82133424D01*
X24292350Y-82374309D01*
X24292343Y-82374327D01*
X24204884Y-82630685D01*
X24204881Y-82630699D01*
X24193805Y-82690665D01*
X24159345Y-82877233D01*
X24155681Y-82897068D01*
X24155680Y-82897075D01*
X24145787Y-83167763D01*
X21200000Y-83167763D01*
X21200000Y-76400005D01*
X25694357Y-76400005D01*
X25714890Y-76647812D01*
X25714892Y-76647824D01*
X25775936Y-76888881D01*
X25875826Y-77116606D01*
X26011833Y-77324782D01*
X26011836Y-77324785D01*
X26180256Y-77507738D01*
X26376491Y-77660474D01*
X26595190Y-77778828D01*
X26830386Y-77859571D01*
X27075665Y-77900500D01*
X27324335Y-77900500D01*
X27569614Y-77859571D01*
X27804810Y-77778828D01*
X28023509Y-77660474D01*
X28219744Y-77507738D01*
X28388164Y-77324785D01*
X28524173Y-77116607D01*
X28624063Y-76888881D01*
X28685108Y-76647821D01*
X28685109Y-76647812D01*
X28705643Y-76400005D01*
X30694357Y-76400005D01*
X30714890Y-76647812D01*
X30714892Y-76647824D01*
X30775936Y-76888881D01*
X30875826Y-77116606D01*
X31011833Y-77324782D01*
X31011836Y-77324785D01*
X31180256Y-77507738D01*
X31376491Y-77660474D01*
X31595190Y-77778828D01*
X31830386Y-77859571D01*
X32075665Y-77900500D01*
X32324335Y-77900500D01*
X32569614Y-77859571D01*
X32804810Y-77778828D01*
X33023509Y-77660474D01*
X33219744Y-77507738D01*
X33388164Y-77324785D01*
X33524173Y-77116607D01*
X33624063Y-76888881D01*
X33685108Y-76647821D01*
X33685109Y-76647812D01*
X33705643Y-76400005D01*
X38694357Y-76400005D01*
X38714890Y-76647812D01*
X38714892Y-76647824D01*
X38775936Y-76888881D01*
X38875826Y-77116606D01*
X39011833Y-77324782D01*
X39011836Y-77324785D01*
X39180256Y-77507738D01*
X39376491Y-77660474D01*
X39595190Y-77778828D01*
X39830386Y-77859571D01*
X40075665Y-77900500D01*
X40324335Y-77900500D01*
X40569614Y-77859571D01*
X40804810Y-77778828D01*
X41023509Y-77660474D01*
X41219744Y-77507738D01*
X41388164Y-77324785D01*
X41524173Y-77116607D01*
X41624063Y-76888881D01*
X41685108Y-76647821D01*
X41685109Y-76647812D01*
X41705643Y-76400005D01*
X43694357Y-76400005D01*
X43714890Y-76647812D01*
X43714892Y-76647824D01*
X43775936Y-76888881D01*
X43875826Y-77116606D01*
X44011833Y-77324782D01*
X44011836Y-77324785D01*
X44180256Y-77507738D01*
X44376491Y-77660474D01*
X44595190Y-77778828D01*
X44830386Y-77859571D01*
X45075665Y-77900500D01*
X45324335Y-77900500D01*
X45569614Y-77859571D01*
X45804810Y-77778828D01*
X46023509Y-77660474D01*
X46219744Y-77507738D01*
X46388164Y-77324785D01*
X46524173Y-77116607D01*
X46624063Y-76888881D01*
X46685108Y-76647821D01*
X46685109Y-76647812D01*
X46705643Y-76400005D01*
X46705643Y-76399994D01*
X46685109Y-76152187D01*
X46685107Y-76152175D01*
X46624063Y-75911118D01*
X46524173Y-75683393D01*
X46388166Y-75475217D01*
X46325985Y-75407671D01*
X46219744Y-75292262D01*
X46023509Y-75139526D01*
X46023507Y-75139525D01*
X46023506Y-75139524D01*
X45804811Y-75021172D01*
X45804802Y-75021169D01*
X45569616Y-74940429D01*
X45324335Y-74899500D01*
X45075665Y-74899500D01*
X44830383Y-74940429D01*
X44595197Y-75021169D01*
X44595188Y-75021172D01*
X44376493Y-75139524D01*
X44180257Y-75292261D01*
X44011833Y-75475217D01*
X43875826Y-75683393D01*
X43775936Y-75911118D01*
X43714892Y-76152175D01*
X43714890Y-76152187D01*
X43694357Y-76399994D01*
X43694357Y-76400005D01*
X41705643Y-76400005D01*
X41705643Y-76399994D01*
X41685109Y-76152187D01*
X41685107Y-76152175D01*
X41624063Y-75911118D01*
X41524173Y-75683393D01*
X41388166Y-75475217D01*
X41325985Y-75407671D01*
X41219744Y-75292262D01*
X41023509Y-75139526D01*
X41023507Y-75139525D01*
X41023506Y-75139524D01*
X40804811Y-75021172D01*
X40804802Y-75021169D01*
X40569616Y-74940429D01*
X40324335Y-74899500D01*
X40075665Y-74899500D01*
X39830383Y-74940429D01*
X39595197Y-75021169D01*
X39595188Y-75021172D01*
X39376493Y-75139524D01*
X39180257Y-75292261D01*
X39011833Y-75475217D01*
X38875826Y-75683393D01*
X38775936Y-75911118D01*
X38714892Y-76152175D01*
X38714890Y-76152187D01*
X38694357Y-76399994D01*
X38694357Y-76400005D01*
X33705643Y-76400005D01*
X33705643Y-76399994D01*
X33685109Y-76152187D01*
X33685107Y-76152175D01*
X33624063Y-75911118D01*
X33524173Y-75683393D01*
X33388166Y-75475217D01*
X33325985Y-75407671D01*
X33219744Y-75292262D01*
X33023509Y-75139526D01*
X33023507Y-75139525D01*
X33023506Y-75139524D01*
X32804811Y-75021172D01*
X32804802Y-75021169D01*
X32569616Y-74940429D01*
X32324335Y-74899500D01*
X32075665Y-74899500D01*
X31830383Y-74940429D01*
X31595197Y-75021169D01*
X31595188Y-75021172D01*
X31376493Y-75139524D01*
X31180257Y-75292261D01*
X31011833Y-75475217D01*
X30875826Y-75683393D01*
X30775936Y-75911118D01*
X30714892Y-76152175D01*
X30714890Y-76152187D01*
X30694357Y-76399994D01*
X30694357Y-76400005D01*
X28705643Y-76400005D01*
X28705643Y-76399994D01*
X28685109Y-76152187D01*
X28685107Y-76152175D01*
X28624063Y-75911118D01*
X28524173Y-75683393D01*
X28388166Y-75475217D01*
X28325985Y-75407671D01*
X28219744Y-75292262D01*
X28023509Y-75139526D01*
X28023507Y-75139525D01*
X28023506Y-75139524D01*
X27804811Y-75021172D01*
X27804802Y-75021169D01*
X27569616Y-74940429D01*
X27324335Y-74899500D01*
X27075665Y-74899500D01*
X26830383Y-74940429D01*
X26595197Y-75021169D01*
X26595188Y-75021172D01*
X26376493Y-75139524D01*
X26180257Y-75292261D01*
X26011833Y-75475217D01*
X25875826Y-75683393D01*
X25775936Y-75911118D01*
X25714892Y-76152175D01*
X25714890Y-76152187D01*
X25694357Y-76399994D01*
X25694357Y-76400005D01*
X21200000Y-76400005D01*
X21200000Y-71400005D01*
X25694859Y-71400005D01*
X25715385Y-71647729D01*
X25715387Y-71647738D01*
X25776412Y-71888717D01*
X25876266Y-72116364D01*
X25976564Y-72269882D01*
X26674070Y-71572376D01*
X26676884Y-71585915D01*
X26746442Y-71720156D01*
X26849638Y-71830652D01*
X26978819Y-71909209D01*
X27030002Y-71923549D01*
X26329942Y-72623609D01*
X26376768Y-72660055D01*
X26376770Y-72660056D01*
X26595385Y-72778364D01*
X26595396Y-72778369D01*
X26830506Y-72859083D01*
X27075707Y-72900000D01*
X27324293Y-72900000D01*
X27569493Y-72859083D01*
X27804603Y-72778369D01*
X27804614Y-72778364D01*
X28023228Y-72660057D01*
X28023231Y-72660055D01*
X28070056Y-72623609D01*
X27371568Y-71925121D01*
X27488458Y-71874349D01*
X27605739Y-71778934D01*
X27692928Y-71655415D01*
X27723354Y-71569802D01*
X28423434Y-72269882D01*
X28523731Y-72116369D01*
X28623587Y-71888717D01*
X28684612Y-71647738D01*
X28684614Y-71647729D01*
X28705141Y-71400005D01*
X30694357Y-71400005D01*
X30714890Y-71647812D01*
X30714892Y-71647824D01*
X30775936Y-71888881D01*
X30875826Y-72116606D01*
X31011833Y-72324782D01*
X31011836Y-72324785D01*
X31180256Y-72507738D01*
X31376491Y-72660474D01*
X31376493Y-72660475D01*
X31594332Y-72778364D01*
X31595190Y-72778828D01*
X31814141Y-72853994D01*
X31828964Y-72859083D01*
X31830386Y-72859571D01*
X32075665Y-72900500D01*
X32324335Y-72900500D01*
X32569614Y-72859571D01*
X32804810Y-72778828D01*
X33023509Y-72660474D01*
X33219744Y-72507738D01*
X33388164Y-72324785D01*
X33524173Y-72116607D01*
X33624063Y-71888881D01*
X33685108Y-71647821D01*
X33690238Y-71585915D01*
X33705643Y-71400005D01*
X38694859Y-71400005D01*
X38715385Y-71647729D01*
X38715387Y-71647738D01*
X38776412Y-71888717D01*
X38876266Y-72116364D01*
X38976564Y-72269882D01*
X39674070Y-71572376D01*
X39676884Y-71585915D01*
X39746442Y-71720156D01*
X39849638Y-71830652D01*
X39978819Y-71909209D01*
X40030002Y-71923549D01*
X39329942Y-72623609D01*
X39376768Y-72660055D01*
X39376770Y-72660056D01*
X39595385Y-72778364D01*
X39595396Y-72778369D01*
X39830506Y-72859083D01*
X40075707Y-72900000D01*
X40324293Y-72900000D01*
X40569493Y-72859083D01*
X40804603Y-72778369D01*
X40804614Y-72778364D01*
X41023228Y-72660057D01*
X41023231Y-72660055D01*
X41070056Y-72623609D01*
X40371568Y-71925121D01*
X40488458Y-71874349D01*
X40605739Y-71778934D01*
X40692928Y-71655415D01*
X40723354Y-71569802D01*
X41423434Y-72269882D01*
X41523731Y-72116369D01*
X41623587Y-71888717D01*
X41684612Y-71647738D01*
X41684614Y-71647729D01*
X41705141Y-71400005D01*
X43694357Y-71400005D01*
X43714890Y-71647812D01*
X43714892Y-71647824D01*
X43775936Y-71888881D01*
X43875826Y-72116606D01*
X44011833Y-72324782D01*
X44011836Y-72324785D01*
X44180256Y-72507738D01*
X44376491Y-72660474D01*
X44376493Y-72660475D01*
X44594332Y-72778364D01*
X44595190Y-72778828D01*
X44814141Y-72853994D01*
X44828964Y-72859083D01*
X44830386Y-72859571D01*
X45075665Y-72900500D01*
X45324335Y-72900500D01*
X45569614Y-72859571D01*
X45804810Y-72778828D01*
X46023509Y-72660474D01*
X46219744Y-72507738D01*
X46388164Y-72324785D01*
X46524173Y-72116607D01*
X46624063Y-71888881D01*
X46685108Y-71647821D01*
X46690238Y-71585915D01*
X46705643Y-71400005D01*
X46705643Y-71399994D01*
X46685109Y-71152187D01*
X46685107Y-71152175D01*
X46624063Y-70911118D01*
X46524173Y-70683393D01*
X46388166Y-70475217D01*
X46301775Y-70381372D01*
X46219744Y-70292262D01*
X46023509Y-70139526D01*
X46023507Y-70139525D01*
X46023506Y-70139524D01*
X45804811Y-70021172D01*
X45804802Y-70021169D01*
X45569616Y-69940429D01*
X45324335Y-69899500D01*
X45075665Y-69899500D01*
X44830383Y-69940429D01*
X44595197Y-70021169D01*
X44595188Y-70021172D01*
X44376493Y-70139524D01*
X44180257Y-70292261D01*
X44011833Y-70475217D01*
X43875826Y-70683393D01*
X43775936Y-70911118D01*
X43714892Y-71152175D01*
X43714890Y-71152187D01*
X43694357Y-71399994D01*
X43694357Y-71400005D01*
X41705141Y-71400005D01*
X41705141Y-71399994D01*
X41684614Y-71152270D01*
X41684612Y-71152261D01*
X41623587Y-70911282D01*
X41523731Y-70683630D01*
X41423434Y-70530116D01*
X40725929Y-71227622D01*
X40723116Y-71214085D01*
X40653558Y-71079844D01*
X40550362Y-70969348D01*
X40421181Y-70890791D01*
X40369997Y-70876450D01*
X41070057Y-70176390D01*
X41070056Y-70176389D01*
X41023229Y-70139943D01*
X40804614Y-70021635D01*
X40804603Y-70021630D01*
X40569493Y-69940916D01*
X40324293Y-69900000D01*
X40075707Y-69900000D01*
X39830506Y-69940916D01*
X39595396Y-70021630D01*
X39595390Y-70021632D01*
X39376761Y-70139949D01*
X39329942Y-70176388D01*
X39329942Y-70176390D01*
X40028431Y-70874878D01*
X39911542Y-70925651D01*
X39794261Y-71021066D01*
X39707072Y-71144585D01*
X39676645Y-71230197D01*
X38976564Y-70530116D01*
X38876267Y-70683632D01*
X38776412Y-70911282D01*
X38715387Y-71152261D01*
X38715385Y-71152270D01*
X38694859Y-71399994D01*
X38694859Y-71400005D01*
X33705643Y-71400005D01*
X33705643Y-71399994D01*
X33685109Y-71152187D01*
X33685107Y-71152175D01*
X33624063Y-70911118D01*
X33524173Y-70683393D01*
X33388166Y-70475217D01*
X33301775Y-70381372D01*
X33219744Y-70292262D01*
X33023509Y-70139526D01*
X33023507Y-70139525D01*
X33023506Y-70139524D01*
X32804811Y-70021172D01*
X32804802Y-70021169D01*
X32569616Y-69940429D01*
X32324335Y-69899500D01*
X32075665Y-69899500D01*
X31830383Y-69940429D01*
X31595197Y-70021169D01*
X31595188Y-70021172D01*
X31376493Y-70139524D01*
X31180257Y-70292261D01*
X31011833Y-70475217D01*
X30875826Y-70683393D01*
X30775936Y-70911118D01*
X30714892Y-71152175D01*
X30714890Y-71152187D01*
X30694357Y-71399994D01*
X30694357Y-71400005D01*
X28705141Y-71400005D01*
X28705141Y-71399994D01*
X28684614Y-71152270D01*
X28684612Y-71152261D01*
X28623587Y-70911282D01*
X28523731Y-70683630D01*
X28423434Y-70530116D01*
X27725929Y-71227622D01*
X27723116Y-71214085D01*
X27653558Y-71079844D01*
X27550362Y-70969348D01*
X27421181Y-70890791D01*
X27369997Y-70876450D01*
X28070057Y-70176390D01*
X28070056Y-70176389D01*
X28023229Y-70139943D01*
X27804614Y-70021635D01*
X27804603Y-70021630D01*
X27569493Y-69940916D01*
X27324293Y-69900000D01*
X27075707Y-69900000D01*
X26830506Y-69940916D01*
X26595396Y-70021630D01*
X26595390Y-70021632D01*
X26376761Y-70139949D01*
X26329942Y-70176388D01*
X26329942Y-70176390D01*
X27028431Y-70874878D01*
X26911542Y-70925651D01*
X26794261Y-71021066D01*
X26707072Y-71144585D01*
X26676645Y-71230197D01*
X25976564Y-70530116D01*
X25876267Y-70683632D01*
X25776412Y-70911282D01*
X25715387Y-71152261D01*
X25715385Y-71152270D01*
X25694859Y-71399994D01*
X25694859Y-71400005D01*
X21200000Y-71400005D01*
X21200000Y-65797870D01*
X48009500Y-65797870D01*
X48009501Y-65797876D01*
X48015908Y-65857483D01*
X48066202Y-65992328D01*
X48066206Y-65992335D01*
X48152452Y-66107544D01*
X48152455Y-66107547D01*
X48267664Y-66193793D01*
X48267671Y-66193797D01*
X48402517Y-66244091D01*
X48402516Y-66244091D01*
X48409444Y-66244835D01*
X48462127Y-66250500D01*
X50257872Y-66250499D01*
X50317483Y-66244091D01*
X50452331Y-66193796D01*
X50567546Y-66107546D01*
X50653796Y-65992331D01*
X50703002Y-65860401D01*
X50744872Y-65804468D01*
X50810337Y-65780050D01*
X50878610Y-65794901D01*
X50906865Y-65816053D01*
X51028917Y-65938105D01*
X51222421Y-66073600D01*
X51436507Y-66173429D01*
X51436516Y-66173433D01*
X51650000Y-66230634D01*
X51650000Y-65335501D01*
X51757685Y-65384680D01*
X51864237Y-65400000D01*
X51935763Y-65400000D01*
X52042315Y-65384680D01*
X52150000Y-65335501D01*
X52150000Y-66230633D01*
X52363483Y-66173433D01*
X52363492Y-66173429D01*
X52577578Y-66073600D01*
X52771082Y-65938105D01*
X52938105Y-65771082D01*
X53073600Y-65577578D01*
X53173429Y-65363492D01*
X53173432Y-65363486D01*
X53230636Y-65150000D01*
X52333686Y-65150000D01*
X52359493Y-65109844D01*
X52400000Y-64971889D01*
X52400000Y-64828111D01*
X52359493Y-64690156D01*
X52333686Y-64650000D01*
X53230636Y-64650000D01*
X53230635Y-64649999D01*
X53173432Y-64436513D01*
X53173429Y-64436507D01*
X53073600Y-64222422D01*
X53073599Y-64222420D01*
X52938113Y-64028926D01*
X52938108Y-64028920D01*
X52771082Y-63861894D01*
X52577578Y-63726399D01*
X52363492Y-63626570D01*
X52363486Y-63626567D01*
X52150000Y-63569364D01*
X52150000Y-64464498D01*
X52042315Y-64415320D01*
X51935763Y-64400000D01*
X51864237Y-64400000D01*
X51757685Y-64415320D01*
X51650000Y-64464498D01*
X51650000Y-63569364D01*
X51649999Y-63569364D01*
X51436513Y-63626567D01*
X51436507Y-63626570D01*
X51222422Y-63726399D01*
X51222420Y-63726400D01*
X51028926Y-63861886D01*
X50906865Y-63983947D01*
X50845542Y-64017431D01*
X50775850Y-64012447D01*
X50719917Y-63970575D01*
X50703002Y-63939598D01*
X50653797Y-63807671D01*
X50653793Y-63807664D01*
X50567547Y-63692455D01*
X50567544Y-63692452D01*
X50452335Y-63606206D01*
X50452328Y-63606202D01*
X50317482Y-63555908D01*
X50317483Y-63555908D01*
X50257883Y-63549501D01*
X50257881Y-63549500D01*
X50257873Y-63549500D01*
X50257864Y-63549500D01*
X48462129Y-63549500D01*
X48462123Y-63549501D01*
X48402516Y-63555908D01*
X48267671Y-63606202D01*
X48267664Y-63606206D01*
X48152455Y-63692452D01*
X48152452Y-63692455D01*
X48066206Y-63807664D01*
X48066202Y-63807671D01*
X48015908Y-63942517D01*
X48009501Y-64002116D01*
X48009500Y-64002135D01*
X48009500Y-65797870D01*
X21200000Y-65797870D01*
X21200000Y-64300000D01*
X24464341Y-64300000D01*
X24484936Y-64535403D01*
X24484938Y-64535413D01*
X24546094Y-64763655D01*
X24546096Y-64763659D01*
X24546097Y-64763663D01*
X24550000Y-64772032D01*
X24645965Y-64977830D01*
X24645967Y-64977834D01*
X24738402Y-65109844D01*
X24781505Y-65171401D01*
X24948599Y-65338495D01*
X25036437Y-65400000D01*
X25142165Y-65474032D01*
X25142167Y-65474033D01*
X25142170Y-65474035D01*
X25356337Y-65573903D01*
X25584592Y-65635063D01*
X25761034Y-65650500D01*
X25819999Y-65655659D01*
X25820000Y-65655659D01*
X25820001Y-65655659D01*
X25878966Y-65650500D01*
X26055408Y-65635063D01*
X26283663Y-65573903D01*
X26497830Y-65474035D01*
X26691401Y-65338495D01*
X26858495Y-65171401D01*
X26988425Y-64985842D01*
X27043002Y-64942217D01*
X27112500Y-64935023D01*
X27174855Y-64966546D01*
X27191575Y-64985842D01*
X27321500Y-65171395D01*
X27321505Y-65171401D01*
X27488599Y-65338495D01*
X27576437Y-65400000D01*
X27682165Y-65474032D01*
X27682167Y-65474033D01*
X27682170Y-65474035D01*
X27896337Y-65573903D01*
X28124592Y-65635063D01*
X28301034Y-65650500D01*
X28359999Y-65655659D01*
X28360000Y-65655659D01*
X28360001Y-65655659D01*
X28418966Y-65650500D01*
X28595408Y-65635063D01*
X28823663Y-65573903D01*
X29037830Y-65474035D01*
X29231401Y-65338495D01*
X29398495Y-65171401D01*
X29528425Y-64985842D01*
X29583002Y-64942217D01*
X29652500Y-64935023D01*
X29714855Y-64966546D01*
X29731575Y-64985842D01*
X29861500Y-65171395D01*
X29861505Y-65171401D01*
X30028599Y-65338495D01*
X30116437Y-65400000D01*
X30222165Y-65474032D01*
X30222167Y-65474033D01*
X30222170Y-65474035D01*
X30436337Y-65573903D01*
X30664592Y-65635063D01*
X30841034Y-65650500D01*
X30899999Y-65655659D01*
X30900000Y-65655659D01*
X30900001Y-65655659D01*
X30958966Y-65650500D01*
X31135408Y-65635063D01*
X31363663Y-65573903D01*
X31577830Y-65474035D01*
X31771401Y-65338495D01*
X31938495Y-65171401D01*
X32068425Y-64985842D01*
X32123002Y-64942217D01*
X32192500Y-64935023D01*
X32254855Y-64966546D01*
X32271575Y-64985842D01*
X32401500Y-65171395D01*
X32401505Y-65171401D01*
X32568599Y-65338495D01*
X32656437Y-65400000D01*
X32762165Y-65474032D01*
X32762167Y-65474033D01*
X32762170Y-65474035D01*
X32976337Y-65573903D01*
X33204592Y-65635063D01*
X33381034Y-65650500D01*
X33439999Y-65655659D01*
X33440000Y-65655659D01*
X33440001Y-65655659D01*
X33498966Y-65650500D01*
X33675408Y-65635063D01*
X33903663Y-65573903D01*
X34117830Y-65474035D01*
X34311401Y-65338495D01*
X34433329Y-65216566D01*
X34494648Y-65183084D01*
X34564340Y-65188068D01*
X34620274Y-65229939D01*
X34637189Y-65260917D01*
X34686202Y-65392328D01*
X34686206Y-65392335D01*
X34772452Y-65507544D01*
X34772455Y-65507547D01*
X34887664Y-65593793D01*
X34887671Y-65593797D01*
X35022517Y-65644091D01*
X35022516Y-65644091D01*
X35029444Y-65644835D01*
X35082127Y-65650500D01*
X36877872Y-65650499D01*
X36937483Y-65644091D01*
X37072331Y-65593796D01*
X37187546Y-65507546D01*
X37273796Y-65392331D01*
X37324091Y-65257483D01*
X37330500Y-65197873D01*
X37330499Y-63402128D01*
X37330498Y-63402118D01*
X37324091Y-63342516D01*
X37273797Y-63207671D01*
X37273793Y-63207664D01*
X37187547Y-63092455D01*
X37187544Y-63092452D01*
X37072335Y-63006206D01*
X37072328Y-63006202D01*
X36937482Y-62955908D01*
X36937483Y-62955908D01*
X36877883Y-62949501D01*
X36877881Y-62949500D01*
X36877873Y-62949500D01*
X36877864Y-62949500D01*
X35082129Y-62949500D01*
X35082123Y-62949501D01*
X35022516Y-62955908D01*
X34887671Y-63006202D01*
X34887664Y-63006206D01*
X34772455Y-63092452D01*
X34772452Y-63092455D01*
X34686206Y-63207664D01*
X34686203Y-63207669D01*
X34637189Y-63339083D01*
X34595317Y-63395016D01*
X34529853Y-63419433D01*
X34461580Y-63404581D01*
X34433326Y-63383430D01*
X34311402Y-63261506D01*
X34311395Y-63261501D01*
X34117834Y-63125967D01*
X34117830Y-63125965D01*
X34062148Y-63100000D01*
X33903663Y-63026097D01*
X33903659Y-63026096D01*
X33903655Y-63026094D01*
X33675413Y-62964938D01*
X33675403Y-62964936D01*
X33440001Y-62944341D01*
X33439999Y-62944341D01*
X33204596Y-62964936D01*
X33204586Y-62964938D01*
X32976344Y-63026094D01*
X32976335Y-63026098D01*
X32762171Y-63125964D01*
X32762169Y-63125965D01*
X32568597Y-63261505D01*
X32401505Y-63428597D01*
X32271575Y-63614158D01*
X32216998Y-63657783D01*
X32147500Y-63664977D01*
X32085145Y-63633454D01*
X32068425Y-63614158D01*
X31938494Y-63428597D01*
X31771402Y-63261506D01*
X31771395Y-63261501D01*
X31577834Y-63125967D01*
X31577830Y-63125965D01*
X31522148Y-63100000D01*
X31363663Y-63026097D01*
X31363659Y-63026096D01*
X31363655Y-63026094D01*
X31135413Y-62964938D01*
X31135403Y-62964936D01*
X30900001Y-62944341D01*
X30899999Y-62944341D01*
X30664596Y-62964936D01*
X30664586Y-62964938D01*
X30436344Y-63026094D01*
X30436335Y-63026098D01*
X30222171Y-63125964D01*
X30222169Y-63125965D01*
X30028597Y-63261505D01*
X29861505Y-63428597D01*
X29731575Y-63614158D01*
X29676998Y-63657783D01*
X29607500Y-63664977D01*
X29545145Y-63633454D01*
X29528425Y-63614158D01*
X29398494Y-63428597D01*
X29231402Y-63261506D01*
X29231395Y-63261501D01*
X29037834Y-63125967D01*
X29037830Y-63125965D01*
X28982148Y-63100000D01*
X28823663Y-63026097D01*
X28823659Y-63026096D01*
X28823655Y-63026094D01*
X28595413Y-62964938D01*
X28595403Y-62964936D01*
X28360001Y-62944341D01*
X28359999Y-62944341D01*
X28124596Y-62964936D01*
X28124586Y-62964938D01*
X27896344Y-63026094D01*
X27896335Y-63026098D01*
X27682171Y-63125964D01*
X27682169Y-63125965D01*
X27488597Y-63261505D01*
X27321505Y-63428597D01*
X27191575Y-63614158D01*
X27136998Y-63657783D01*
X27067500Y-63664977D01*
X27005145Y-63633454D01*
X26988425Y-63614158D01*
X26858494Y-63428597D01*
X26691402Y-63261506D01*
X26691395Y-63261501D01*
X26497834Y-63125967D01*
X26497830Y-63125965D01*
X26442148Y-63100000D01*
X26283663Y-63026097D01*
X26283659Y-63026096D01*
X26283655Y-63026094D01*
X26055413Y-62964938D01*
X26055403Y-62964936D01*
X25820001Y-62944341D01*
X25819999Y-62944341D01*
X25584596Y-62964936D01*
X25584586Y-62964938D01*
X25356344Y-63026094D01*
X25356335Y-63026098D01*
X25142171Y-63125964D01*
X25142169Y-63125965D01*
X24948597Y-63261505D01*
X24781505Y-63428597D01*
X24645965Y-63622169D01*
X24645964Y-63622171D01*
X24546098Y-63836335D01*
X24546094Y-63836344D01*
X24484938Y-64064586D01*
X24484936Y-64064596D01*
X24464341Y-64299999D01*
X24464341Y-64300000D01*
X21200000Y-64300000D01*
X21200000Y-62848675D01*
X41119748Y-62848675D01*
X41129748Y-63109593D01*
X41179462Y-63365928D01*
X41179462Y-63365930D01*
X41267718Y-63611663D01*
X41311650Y-63692452D01*
X41389896Y-63836344D01*
X41392461Y-63841060D01*
X41535660Y-64028920D01*
X41550750Y-64048716D01*
X41738886Y-64229778D01*
X41738891Y-64229781D01*
X41738895Y-64229785D01*
X41952441Y-64379989D01*
X41952445Y-64379991D01*
X41952456Y-64379999D01*
X42144422Y-64475048D01*
X42186455Y-64495860D01*
X42269433Y-64522119D01*
X42435395Y-64574641D01*
X42693445Y-64614500D01*
X42693449Y-64614500D01*
X43789177Y-64614500D01*
X43984344Y-64599516D01*
X44238586Y-64540021D01*
X44283945Y-64521739D01*
X44480758Y-64442418D01*
X44480763Y-64442415D01*
X44480766Y-64442414D01*
X44705208Y-64308982D01*
X44906652Y-64142852D01*
X45080375Y-63947920D01*
X45152631Y-63836344D01*
X45222304Y-63728757D01*
X45222304Y-63728755D01*
X45222306Y-63728753D01*
X45329118Y-63490489D01*
X45398307Y-63238713D01*
X45428252Y-62979325D01*
X45418251Y-62718407D01*
X45409929Y-62675499D01*
X45398933Y-62618797D01*
X45368538Y-62462073D01*
X45368537Y-62462069D01*
X45280281Y-62216336D01*
X45280279Y-62216332D01*
X45155541Y-61986943D01*
X44997250Y-61779284D01*
X44809114Y-61598222D01*
X44809108Y-61598218D01*
X44809104Y-61598214D01*
X44595558Y-61448010D01*
X44595551Y-61448006D01*
X44595544Y-61448001D01*
X44469477Y-61385581D01*
X44361544Y-61332139D01*
X44112608Y-61253360D01*
X44112605Y-61253359D01*
X43854555Y-61213500D01*
X42758823Y-61213500D01*
X42563656Y-61228484D01*
X42563652Y-61228484D01*
X42309416Y-61287978D01*
X42309406Y-61287981D01*
X42067241Y-61385581D01*
X42067232Y-61385586D01*
X41842793Y-61519017D01*
X41641345Y-61685150D01*
X41467631Y-61880071D01*
X41467618Y-61880088D01*
X41325695Y-62099242D01*
X41325694Y-62099246D01*
X41218881Y-62337511D01*
X41149693Y-62589285D01*
X41119748Y-62848675D01*
X21200000Y-62848675D01*
X21200000Y-59300001D01*
X29474532Y-59300001D01*
X29494364Y-59526686D01*
X29494366Y-59526697D01*
X29553258Y-59746488D01*
X29553261Y-59746497D01*
X29649431Y-59952732D01*
X29649432Y-59952734D01*
X29779954Y-60139141D01*
X29940858Y-60300045D01*
X29940861Y-60300047D01*
X30127266Y-60430568D01*
X30333504Y-60526739D01*
X30553308Y-60585635D01*
X30710791Y-60599413D01*
X30779998Y-60605468D01*
X30780000Y-60605468D01*
X30780002Y-60605468D01*
X30836807Y-60600498D01*
X31006692Y-60585635D01*
X31226496Y-60526739D01*
X31432734Y-60430568D01*
X31619139Y-60300047D01*
X31780047Y-60139139D01*
X31910568Y-59952734D01*
X31937618Y-59894724D01*
X31983790Y-59842285D01*
X32050983Y-59823133D01*
X32117865Y-59843348D01*
X32162382Y-59894725D01*
X32189429Y-59952728D01*
X32189432Y-59952734D01*
X32319954Y-60139141D01*
X32480858Y-60300045D01*
X32480861Y-60300047D01*
X32667266Y-60430568D01*
X32873504Y-60526739D01*
X33093308Y-60585635D01*
X33250791Y-60599413D01*
X33319998Y-60605468D01*
X33320000Y-60605468D01*
X33320002Y-60605468D01*
X33376807Y-60600498D01*
X33546692Y-60585635D01*
X33766496Y-60526739D01*
X33972734Y-60430568D01*
X34159139Y-60300047D01*
X34320047Y-60139139D01*
X34450568Y-59952734D01*
X34477618Y-59894724D01*
X34523790Y-59842285D01*
X34590983Y-59823133D01*
X34657865Y-59843348D01*
X34702382Y-59894725D01*
X34729429Y-59952728D01*
X34729432Y-59952734D01*
X34859954Y-60139141D01*
X35020858Y-60300045D01*
X35020861Y-60300047D01*
X35207266Y-60430568D01*
X35413504Y-60526739D01*
X35633308Y-60585635D01*
X35790791Y-60599413D01*
X35859998Y-60605468D01*
X35860000Y-60605468D01*
X35860002Y-60605468D01*
X35916807Y-60600498D01*
X36086692Y-60585635D01*
X36306496Y-60526739D01*
X36512734Y-60430568D01*
X36699139Y-60300047D01*
X36860047Y-60139139D01*
X36990568Y-59952734D01*
X37017618Y-59894724D01*
X37063790Y-59842285D01*
X37130983Y-59823133D01*
X37197865Y-59843348D01*
X37242382Y-59894725D01*
X37269429Y-59952728D01*
X37269432Y-59952734D01*
X37399954Y-60139141D01*
X37560858Y-60300045D01*
X37560861Y-60300047D01*
X37747266Y-60430568D01*
X37953504Y-60526739D01*
X38173308Y-60585635D01*
X38330791Y-60599413D01*
X38399998Y-60605468D01*
X38400000Y-60605468D01*
X38400002Y-60605468D01*
X38456807Y-60600498D01*
X38626692Y-60585635D01*
X38846496Y-60526739D01*
X39052734Y-60430568D01*
X39239139Y-60300047D01*
X39400047Y-60139139D01*
X39530568Y-59952734D01*
X39557618Y-59894724D01*
X39603790Y-59842285D01*
X39670983Y-59823133D01*
X39737865Y-59843348D01*
X39782382Y-59894725D01*
X39809429Y-59952728D01*
X39809432Y-59952734D01*
X39939954Y-60139141D01*
X40100858Y-60300045D01*
X40100861Y-60300047D01*
X40287266Y-60430568D01*
X40493504Y-60526739D01*
X40713308Y-60585635D01*
X40870791Y-60599413D01*
X40939998Y-60605468D01*
X40940000Y-60605468D01*
X40940002Y-60605468D01*
X40996807Y-60600498D01*
X41166692Y-60585635D01*
X41386496Y-60526739D01*
X41592734Y-60430568D01*
X41779139Y-60300047D01*
X41940047Y-60139139D01*
X42070568Y-59952734D01*
X42097618Y-59894724D01*
X42143790Y-59842285D01*
X42210983Y-59823133D01*
X42277865Y-59843348D01*
X42322382Y-59894725D01*
X42349429Y-59952728D01*
X42349432Y-59952734D01*
X42479954Y-60139141D01*
X42640858Y-60300045D01*
X42640861Y-60300047D01*
X42827266Y-60430568D01*
X43033504Y-60526739D01*
X43253308Y-60585635D01*
X43410791Y-60599413D01*
X43479998Y-60605468D01*
X43480000Y-60605468D01*
X43480002Y-60605468D01*
X43536807Y-60600498D01*
X43706692Y-60585635D01*
X43926496Y-60526739D01*
X44132734Y-60430568D01*
X44319139Y-60300047D01*
X44480047Y-60139139D01*
X44610568Y-59952734D01*
X44637618Y-59894724D01*
X44683790Y-59842285D01*
X44750983Y-59823133D01*
X44817865Y-59843348D01*
X44862382Y-59894725D01*
X44889429Y-59952728D01*
X44889432Y-59952734D01*
X45019954Y-60139141D01*
X45180858Y-60300045D01*
X45180861Y-60300047D01*
X45367266Y-60430568D01*
X45573504Y-60526739D01*
X45793308Y-60585635D01*
X45950791Y-60599413D01*
X46019998Y-60605468D01*
X46020000Y-60605468D01*
X46020002Y-60605468D01*
X46076807Y-60600498D01*
X46246692Y-60585635D01*
X46466496Y-60526739D01*
X46672734Y-60430568D01*
X46859139Y-60300047D01*
X47020047Y-60139139D01*
X47150568Y-59952734D01*
X47177618Y-59894724D01*
X47223790Y-59842285D01*
X47290983Y-59823133D01*
X47357865Y-59843348D01*
X47402382Y-59894725D01*
X47429429Y-59952728D01*
X47429432Y-59952734D01*
X47559954Y-60139141D01*
X47720858Y-60300045D01*
X47720861Y-60300047D01*
X47907266Y-60430568D01*
X48113504Y-60526739D01*
X48333308Y-60585635D01*
X48490791Y-60599413D01*
X48559998Y-60605468D01*
X48560000Y-60605468D01*
X48560002Y-60605468D01*
X48616807Y-60600498D01*
X48786692Y-60585635D01*
X49006496Y-60526739D01*
X49212734Y-60430568D01*
X49399139Y-60300047D01*
X49560047Y-60139139D01*
X49690568Y-59952734D01*
X49717618Y-59894724D01*
X49763790Y-59842285D01*
X49830983Y-59823133D01*
X49897865Y-59843348D01*
X49942382Y-59894725D01*
X49969429Y-59952728D01*
X49969432Y-59952734D01*
X50099954Y-60139141D01*
X50260858Y-60300045D01*
X50260861Y-60300047D01*
X50447266Y-60430568D01*
X50653504Y-60526739D01*
X50873308Y-60585635D01*
X51030791Y-60599413D01*
X51099998Y-60605468D01*
X51100000Y-60605468D01*
X51100002Y-60605468D01*
X51156807Y-60600498D01*
X51326692Y-60585635D01*
X51546496Y-60526739D01*
X51752734Y-60430568D01*
X51939139Y-60300047D01*
X52100047Y-60139139D01*
X52230568Y-59952734D01*
X52257618Y-59894724D01*
X52303790Y-59842285D01*
X52370983Y-59823133D01*
X52437865Y-59843348D01*
X52482382Y-59894725D01*
X52509429Y-59952728D01*
X52509432Y-59952734D01*
X52639954Y-60139141D01*
X52800858Y-60300045D01*
X52800861Y-60300047D01*
X52987266Y-60430568D01*
X53193504Y-60526739D01*
X53413308Y-60585635D01*
X53570791Y-60599413D01*
X53639998Y-60605468D01*
X53640000Y-60605468D01*
X53640002Y-60605468D01*
X53696807Y-60600498D01*
X53866692Y-60585635D01*
X53935048Y-60567319D01*
X54004897Y-60568982D01*
X54054822Y-60599413D01*
X57338181Y-63882771D01*
X57371666Y-63944094D01*
X57374500Y-63970452D01*
X57374500Y-75025500D01*
X57354815Y-75092539D01*
X57302011Y-75138294D01*
X57250500Y-75149500D01*
X55352129Y-75149500D01*
X55352123Y-75149501D01*
X55292516Y-75155908D01*
X55157671Y-75206202D01*
X55157664Y-75206206D01*
X55042455Y-75292452D01*
X55042452Y-75292455D01*
X54956206Y-75407664D01*
X54956202Y-75407671D01*
X54905908Y-75542517D01*
X54899501Y-75602116D01*
X54899501Y-75602123D01*
X54899500Y-75602135D01*
X54899500Y-78897870D01*
X54899501Y-78897876D01*
X54905908Y-78957483D01*
X54956202Y-79092328D01*
X54956206Y-79092335D01*
X55042452Y-79207544D01*
X55042455Y-79207547D01*
X55157664Y-79293793D01*
X55157671Y-79293797D01*
X55292517Y-79344091D01*
X55292516Y-79344091D01*
X55299444Y-79344835D01*
X55352127Y-79350500D01*
X57250500Y-79350499D01*
X57317539Y-79370184D01*
X57363294Y-79422987D01*
X57374500Y-79474499D01*
X57374500Y-82667255D01*
X57372775Y-82682872D01*
X57373061Y-82682899D01*
X57372326Y-82690665D01*
X57374500Y-82759814D01*
X57374500Y-82789343D01*
X57374501Y-82789360D01*
X57375368Y-82796231D01*
X57375826Y-82802050D01*
X57377290Y-82848624D01*
X57377291Y-82848627D01*
X57382880Y-82867867D01*
X57386824Y-82886911D01*
X57388108Y-82897067D01*
X57389336Y-82906791D01*
X57406490Y-82950119D01*
X57408382Y-82955647D01*
X57421381Y-83000388D01*
X57431580Y-83017634D01*
X57440138Y-83035103D01*
X57447514Y-83053732D01*
X57474898Y-83091423D01*
X57478106Y-83096307D01*
X57501827Y-83136416D01*
X57501833Y-83136424D01*
X57515990Y-83150580D01*
X57528628Y-83165376D01*
X57540405Y-83181586D01*
X57540406Y-83181587D01*
X57576309Y-83211288D01*
X57580620Y-83215210D01*
X57828385Y-83462975D01*
X58036338Y-83670928D01*
X58069823Y-83732251D01*
X58068863Y-83789049D01*
X58014892Y-84002174D01*
X58014890Y-84002187D01*
X57994357Y-84249994D01*
X57994357Y-84250005D01*
X58014890Y-84497812D01*
X58014892Y-84497824D01*
X58075936Y-84738881D01*
X58175826Y-84966606D01*
X58311833Y-85174782D01*
X58311836Y-85174785D01*
X58480256Y-85357738D01*
X58676491Y-85510474D01*
X58676493Y-85510475D01*
X58894332Y-85628364D01*
X58895190Y-85628828D01*
X59114141Y-85703994D01*
X59128964Y-85709083D01*
X59130386Y-85709571D01*
X59375665Y-85750500D01*
X59624335Y-85750500D01*
X59869614Y-85709571D01*
X60104810Y-85628828D01*
X60323509Y-85510474D01*
X60519744Y-85357738D01*
X60688164Y-85174785D01*
X60824173Y-84966607D01*
X60924063Y-84738881D01*
X60985108Y-84497821D01*
X60985116Y-84497729D01*
X61005643Y-84250005D01*
X62994859Y-84250005D01*
X63015385Y-84497729D01*
X63015387Y-84497738D01*
X63076412Y-84738717D01*
X63176266Y-84966364D01*
X63276564Y-85119882D01*
X64016923Y-84379523D01*
X64040507Y-84459844D01*
X64118239Y-84580798D01*
X64226900Y-84674952D01*
X64357685Y-84734680D01*
X64367466Y-84736086D01*
X63629942Y-85473609D01*
X63676768Y-85510055D01*
X63676770Y-85510056D01*
X63895385Y-85628364D01*
X63895396Y-85628369D01*
X64130506Y-85709083D01*
X64375707Y-85750000D01*
X64624293Y-85750000D01*
X64869493Y-85709083D01*
X65104603Y-85628369D01*
X65104614Y-85628364D01*
X65323228Y-85510057D01*
X65323231Y-85510055D01*
X65370056Y-85473609D01*
X64632533Y-84736086D01*
X64642315Y-84734680D01*
X64773100Y-84674952D01*
X64881761Y-84580798D01*
X64959493Y-84459844D01*
X64983076Y-84379524D01*
X65723434Y-85119882D01*
X65823731Y-84966369D01*
X65923587Y-84738717D01*
X65984612Y-84497738D01*
X65984614Y-84497729D01*
X66005141Y-84250005D01*
X66005141Y-84249994D01*
X65984614Y-84002270D01*
X65984612Y-84002261D01*
X65950552Y-83867763D01*
X84645787Y-83867763D01*
X84675413Y-84137013D01*
X84675415Y-84137024D01*
X84740982Y-84387820D01*
X84743928Y-84399088D01*
X84849870Y-84648390D01*
X84962550Y-84833023D01*
X84990979Y-84879605D01*
X84990986Y-84879615D01*
X85164253Y-85087819D01*
X85164259Y-85087824D01*
X85269240Y-85181887D01*
X85365998Y-85268582D01*
X85591910Y-85418044D01*
X85837176Y-85533020D01*
X85837183Y-85533022D01*
X85837185Y-85533023D01*
X86096557Y-85611057D01*
X86096564Y-85611058D01*
X86096569Y-85611060D01*
X86364561Y-85650500D01*
X86364566Y-85650500D01*
X86567636Y-85650500D01*
X86619133Y-85646730D01*
X86770156Y-85635677D01*
X86882758Y-85610593D01*
X87034546Y-85576782D01*
X87034548Y-85576781D01*
X87034553Y-85576780D01*
X87287558Y-85480014D01*
X87523777Y-85347441D01*
X87738177Y-85181888D01*
X87926186Y-84986881D01*
X88083799Y-84766579D01*
X88167616Y-84603553D01*
X88207649Y-84525690D01*
X88207651Y-84525684D01*
X88207656Y-84525675D01*
X88295118Y-84269305D01*
X88344319Y-84002933D01*
X88354212Y-83732235D01*
X88324586Y-83462982D01*
X88256072Y-83200912D01*
X88150130Y-82951610D01*
X88009018Y-82720390D01*
X88007845Y-82718981D01*
X87835746Y-82512180D01*
X87835740Y-82512175D01*
X87634002Y-82331418D01*
X87408092Y-82181957D01*
X87408090Y-82181956D01*
X87162824Y-82066980D01*
X87162819Y-82066978D01*
X87162814Y-82066976D01*
X86903442Y-81988942D01*
X86903428Y-81988939D01*
X86787791Y-81971921D01*
X86635439Y-81949500D01*
X86432369Y-81949500D01*
X86432364Y-81949500D01*
X86229844Y-81964323D01*
X86229831Y-81964325D01*
X85965453Y-82023217D01*
X85965446Y-82023220D01*
X85712439Y-82119987D01*
X85476226Y-82252557D01*
X85261822Y-82418112D01*
X85073822Y-82613109D01*
X85073816Y-82613116D01*
X84916202Y-82833419D01*
X84916199Y-82833424D01*
X84792350Y-83074309D01*
X84792343Y-83074327D01*
X84704884Y-83330685D01*
X84704883Y-83330691D01*
X84704882Y-83330695D01*
X84667398Y-83533632D01*
X84655681Y-83597068D01*
X84655680Y-83597075D01*
X84645787Y-83867763D01*
X65950552Y-83867763D01*
X65923587Y-83761282D01*
X65823731Y-83533630D01*
X65723434Y-83380116D01*
X64983076Y-84120475D01*
X64959493Y-84040156D01*
X64881761Y-83919202D01*
X64773100Y-83825048D01*
X64642315Y-83765320D01*
X64632534Y-83763913D01*
X65370057Y-83026390D01*
X65370056Y-83026389D01*
X65323229Y-82989943D01*
X65104614Y-82871635D01*
X65104603Y-82871630D01*
X64869493Y-82790916D01*
X64624293Y-82750000D01*
X64375707Y-82750000D01*
X64130506Y-82790916D01*
X63895396Y-82871630D01*
X63895390Y-82871632D01*
X63676761Y-82989949D01*
X63629942Y-83026388D01*
X63629942Y-83026390D01*
X64367466Y-83763913D01*
X64357685Y-83765320D01*
X64226900Y-83825048D01*
X64118239Y-83919202D01*
X64040507Y-84040156D01*
X64016923Y-84120475D01*
X63276564Y-83380116D01*
X63176267Y-83533632D01*
X63076412Y-83761282D01*
X63015387Y-84002261D01*
X63015385Y-84002270D01*
X62994859Y-84249994D01*
X62994859Y-84250005D01*
X61005643Y-84250005D01*
X61005643Y-84249994D01*
X60985109Y-84002187D01*
X60985107Y-84002175D01*
X60924063Y-83761118D01*
X60824173Y-83533393D01*
X60688166Y-83325217D01*
X60586907Y-83215221D01*
X60519744Y-83142262D01*
X60323509Y-82989526D01*
X60323507Y-82989525D01*
X60323506Y-82989524D01*
X60104811Y-82871172D01*
X60104802Y-82871169D01*
X59869616Y-82790429D01*
X59624335Y-82749500D01*
X59375665Y-82749500D01*
X59130386Y-82790428D01*
X59050713Y-82817780D01*
X58980914Y-82820929D01*
X58922770Y-82788179D01*
X58661819Y-82527228D01*
X58628334Y-82465905D01*
X58625500Y-82439547D01*
X58625500Y-78897870D01*
X66099500Y-78897870D01*
X66099501Y-78897876D01*
X66105908Y-78957483D01*
X66156202Y-79092328D01*
X66156206Y-79092335D01*
X66242452Y-79207544D01*
X66242455Y-79207547D01*
X66357664Y-79293793D01*
X66357671Y-79293797D01*
X66492517Y-79344091D01*
X66492516Y-79344091D01*
X66499444Y-79344835D01*
X66552127Y-79350500D01*
X68647872Y-79350499D01*
X68707483Y-79344091D01*
X68842331Y-79293796D01*
X68957546Y-79207546D01*
X69043796Y-79092331D01*
X69094091Y-78957483D01*
X69100500Y-78897873D01*
X69100499Y-75602128D01*
X69094091Y-75542517D01*
X69043796Y-75407669D01*
X69043795Y-75407668D01*
X69043793Y-75407664D01*
X68957547Y-75292455D01*
X68957544Y-75292452D01*
X68842335Y-75206206D01*
X68842328Y-75206202D01*
X68707482Y-75155908D01*
X68707483Y-75155908D01*
X68647883Y-75149501D01*
X68647881Y-75149500D01*
X68647873Y-75149500D01*
X68647864Y-75149500D01*
X66552129Y-75149500D01*
X66552123Y-75149501D01*
X66492516Y-75155908D01*
X66357671Y-75206202D01*
X66357664Y-75206206D01*
X66242455Y-75292452D01*
X66242452Y-75292455D01*
X66156206Y-75407664D01*
X66156202Y-75407671D01*
X66105908Y-75542517D01*
X66099501Y-75602116D01*
X66099501Y-75602123D01*
X66099500Y-75602135D01*
X66099500Y-78897870D01*
X58625500Y-78897870D01*
X58625500Y-71190978D01*
X58645185Y-71123939D01*
X58697989Y-71078184D01*
X58767147Y-71068240D01*
X58808515Y-71081922D01*
X58895190Y-71128828D01*
X59076227Y-71190978D01*
X59128964Y-71209083D01*
X59130386Y-71209571D01*
X59375665Y-71250500D01*
X59624335Y-71250500D01*
X59869614Y-71209571D01*
X60104810Y-71128828D01*
X60323509Y-71010474D01*
X60519744Y-70857738D01*
X60688164Y-70674785D01*
X60688169Y-70674777D01*
X60691311Y-70670741D01*
X60693050Y-70672094D01*
X60739095Y-70632764D01*
X60768378Y-70628069D01*
X61516923Y-69879523D01*
X61540507Y-69959844D01*
X61618239Y-70080798D01*
X61726900Y-70174952D01*
X61857685Y-70234680D01*
X61867464Y-70236086D01*
X61129942Y-70973609D01*
X61176768Y-71010055D01*
X61176770Y-71010056D01*
X61395385Y-71128364D01*
X61395396Y-71128369D01*
X61630506Y-71209083D01*
X61875707Y-71250000D01*
X62124293Y-71250000D01*
X62369493Y-71209083D01*
X62604603Y-71128369D01*
X62604614Y-71128364D01*
X62823230Y-71010056D01*
X62823236Y-71010051D01*
X62879107Y-70966565D01*
X62944101Y-70940921D01*
X63012641Y-70954487D01*
X63054537Y-70990105D01*
X63142455Y-71107547D01*
X63257664Y-71193793D01*
X63257671Y-71193797D01*
X63392517Y-71244091D01*
X63392516Y-71244091D01*
X63399444Y-71244835D01*
X63452127Y-71250500D01*
X65547872Y-71250499D01*
X65607483Y-71244091D01*
X65742331Y-71193796D01*
X65857546Y-71107546D01*
X65943796Y-70992331D01*
X65994091Y-70857483D01*
X66000500Y-70797873D01*
X66000499Y-68702128D01*
X65994091Y-68642517D01*
X65962101Y-68556748D01*
X65943797Y-68507671D01*
X65943793Y-68507664D01*
X65857547Y-68392455D01*
X65857544Y-68392452D01*
X65742335Y-68306206D01*
X65742328Y-68306202D01*
X65607482Y-68255908D01*
X65607483Y-68255908D01*
X65547883Y-68249501D01*
X65547881Y-68249500D01*
X65547873Y-68249500D01*
X65547864Y-68249500D01*
X63452129Y-68249500D01*
X63452123Y-68249501D01*
X63392516Y-68255908D01*
X63257671Y-68306202D01*
X63257664Y-68306206D01*
X63142455Y-68392452D01*
X63054537Y-68509894D01*
X62998603Y-68551764D01*
X62928911Y-68556748D01*
X62879109Y-68533436D01*
X62823230Y-68489943D01*
X62823228Y-68489942D01*
X62604614Y-68371635D01*
X62604603Y-68371630D01*
X62369493Y-68290916D01*
X62124293Y-68250000D01*
X61875707Y-68250000D01*
X61630506Y-68290916D01*
X61395396Y-68371630D01*
X61395390Y-68371632D01*
X61176761Y-68489949D01*
X61129942Y-68526388D01*
X61129942Y-68526390D01*
X61867466Y-69263913D01*
X61857685Y-69265320D01*
X61726900Y-69325048D01*
X61618239Y-69419202D01*
X61540507Y-69540156D01*
X61516923Y-69620475D01*
X60767372Y-68870924D01*
X60733885Y-68864752D01*
X60692873Y-68828053D01*
X60691317Y-68829265D01*
X60688169Y-68825220D01*
X60642865Y-68776007D01*
X60519744Y-68642262D01*
X60323509Y-68489526D01*
X60323507Y-68489525D01*
X60323506Y-68489524D01*
X60104811Y-68371172D01*
X60104802Y-68371169D01*
X59869616Y-68290429D01*
X59624335Y-68249500D01*
X59375665Y-68249500D01*
X59130383Y-68290429D01*
X58895197Y-68371169D01*
X58895183Y-68371175D01*
X58808517Y-68418076D01*
X58740188Y-68432671D01*
X58674816Y-68408008D01*
X58633156Y-68351917D01*
X58625500Y-68309021D01*
X58625500Y-63742738D01*
X58627224Y-63727124D01*
X58626938Y-63727097D01*
X58627672Y-63719334D01*
X58626827Y-63692455D01*
X58625500Y-63650203D01*
X58625500Y-63620650D01*
X58624629Y-63613759D01*
X58624172Y-63607945D01*
X58624117Y-63606206D01*
X58622709Y-63561373D01*
X58621121Y-63555909D01*
X58617122Y-63542144D01*
X58613174Y-63523084D01*
X58610664Y-63503208D01*
X58593507Y-63459875D01*
X58591619Y-63454359D01*
X58578619Y-63409612D01*
X58568418Y-63392363D01*
X58559860Y-63374894D01*
X58552486Y-63356268D01*
X58552483Y-63356264D01*
X58552483Y-63356263D01*
X58525098Y-63318571D01*
X58521890Y-63313687D01*
X58498172Y-63273582D01*
X58498163Y-63273571D01*
X58484005Y-63259413D01*
X58471370Y-63244620D01*
X58459593Y-63228412D01*
X58423693Y-63198713D01*
X58419381Y-63194790D01*
X58073266Y-62848675D01*
X63471748Y-62848675D01*
X63481748Y-63109593D01*
X63531462Y-63365928D01*
X63531462Y-63365930D01*
X63619718Y-63611663D01*
X63663650Y-63692452D01*
X63741896Y-63836344D01*
X63744461Y-63841060D01*
X63887660Y-64028920D01*
X63902750Y-64048716D01*
X64090886Y-64229778D01*
X64090891Y-64229781D01*
X64090895Y-64229785D01*
X64304441Y-64379989D01*
X64304445Y-64379991D01*
X64304456Y-64379999D01*
X64496422Y-64475048D01*
X64538455Y-64495860D01*
X64621433Y-64522119D01*
X64787395Y-64574641D01*
X65045445Y-64614500D01*
X65045449Y-64614500D01*
X66141177Y-64614500D01*
X66336344Y-64599516D01*
X66590586Y-64540021D01*
X66635945Y-64521739D01*
X66832758Y-64442418D01*
X66832763Y-64442415D01*
X66832766Y-64442414D01*
X67057208Y-64308982D01*
X67258652Y-64142852D01*
X67432375Y-63947920D01*
X67504631Y-63836344D01*
X67574304Y-63728757D01*
X67574304Y-63728755D01*
X67574306Y-63728753D01*
X67681118Y-63490489D01*
X67750307Y-63238713D01*
X67780252Y-62979325D01*
X67770251Y-62718407D01*
X67761929Y-62675499D01*
X67750933Y-62618797D01*
X67720538Y-62462073D01*
X67720537Y-62462069D01*
X67632281Y-62216336D01*
X67632279Y-62216332D01*
X67507541Y-61986943D01*
X67349250Y-61779284D01*
X67161114Y-61598222D01*
X67161108Y-61598218D01*
X67161104Y-61598214D01*
X66947558Y-61448010D01*
X66947551Y-61448006D01*
X66947544Y-61448001D01*
X66821477Y-61385581D01*
X66713544Y-61332139D01*
X66464608Y-61253360D01*
X66464605Y-61253359D01*
X66206555Y-61213500D01*
X65110823Y-61213500D01*
X64915656Y-61228484D01*
X64915652Y-61228484D01*
X64661416Y-61287978D01*
X64661406Y-61287981D01*
X64419241Y-61385581D01*
X64419232Y-61385586D01*
X64194793Y-61519017D01*
X63993345Y-61685150D01*
X63819631Y-61880071D01*
X63819618Y-61880088D01*
X63677695Y-62099242D01*
X63677694Y-62099246D01*
X63570881Y-62337511D01*
X63501693Y-62589285D01*
X63471748Y-62848675D01*
X58073266Y-62848675D01*
X56037409Y-60812818D01*
X56003924Y-60751495D01*
X56008908Y-60681803D01*
X56050780Y-60625870D01*
X56116244Y-60601453D01*
X56135890Y-60601608D01*
X56180000Y-60605468D01*
X56180000Y-60605467D01*
X56180001Y-60605468D01*
X56180002Y-60605468D01*
X56236807Y-60600498D01*
X56406692Y-60585635D01*
X56626496Y-60526739D01*
X56832734Y-60430568D01*
X57019139Y-60300047D01*
X57180047Y-60139139D01*
X57310568Y-59952734D01*
X57337895Y-59894129D01*
X57384064Y-59841695D01*
X57451257Y-59822542D01*
X57518139Y-59842757D01*
X57562657Y-59894133D01*
X57589865Y-59952482D01*
X57720342Y-60138820D01*
X57881179Y-60299657D01*
X58067517Y-60430134D01*
X58273673Y-60526265D01*
X58273682Y-60526269D01*
X58469999Y-60578872D01*
X58470000Y-60578871D01*
X58470000Y-59735501D01*
X58577685Y-59784680D01*
X58684237Y-59800000D01*
X58755763Y-59800000D01*
X58862315Y-59784680D01*
X58970000Y-59735501D01*
X58970000Y-60578872D01*
X59166317Y-60526269D01*
X59166326Y-60526265D01*
X59372482Y-60430134D01*
X59558820Y-60299657D01*
X59719657Y-60138820D01*
X59850132Y-59952484D01*
X59877341Y-59894134D01*
X59923513Y-59841695D01*
X59990707Y-59822542D01*
X60057588Y-59842757D01*
X60102105Y-59894132D01*
X60123642Y-59940318D01*
X60129431Y-59952732D01*
X60129432Y-59952734D01*
X60259954Y-60139141D01*
X60420858Y-60300045D01*
X60420861Y-60300047D01*
X60607266Y-60430568D01*
X60813504Y-60526739D01*
X61033308Y-60585635D01*
X61190791Y-60599413D01*
X61259998Y-60605468D01*
X61260000Y-60605468D01*
X61260002Y-60605468D01*
X61316807Y-60600498D01*
X61486692Y-60585635D01*
X61706496Y-60526739D01*
X61912734Y-60430568D01*
X62099139Y-60300047D01*
X62260047Y-60139139D01*
X62390568Y-59952734D01*
X62417618Y-59894724D01*
X62463790Y-59842285D01*
X62530983Y-59823133D01*
X62597865Y-59843348D01*
X62642382Y-59894725D01*
X62669429Y-59952728D01*
X62669432Y-59952734D01*
X62799954Y-60139141D01*
X62960858Y-60300045D01*
X62960861Y-60300047D01*
X63147266Y-60430568D01*
X63353504Y-60526739D01*
X63573308Y-60585635D01*
X63730791Y-60599413D01*
X63799998Y-60605468D01*
X63800000Y-60605468D01*
X63800002Y-60605468D01*
X63856807Y-60600498D01*
X64026692Y-60585635D01*
X64246496Y-60526739D01*
X64452734Y-60430568D01*
X64639139Y-60300047D01*
X64800047Y-60139139D01*
X64817272Y-60114539D01*
X64871848Y-60070913D01*
X64941346Y-60063718D01*
X65003701Y-60095239D01*
X65039116Y-60155468D01*
X65042138Y-60172406D01*
X65045908Y-60207483D01*
X65096202Y-60342328D01*
X65096206Y-60342335D01*
X65182452Y-60457544D01*
X65182455Y-60457547D01*
X65297664Y-60543793D01*
X65297671Y-60543797D01*
X65432517Y-60594091D01*
X65432516Y-60594091D01*
X65439444Y-60594835D01*
X65492127Y-60600500D01*
X67187872Y-60600499D01*
X67247483Y-60594091D01*
X67382331Y-60543796D01*
X67497546Y-60457546D01*
X67583796Y-60342331D01*
X67634091Y-60207483D01*
X67640500Y-60147873D01*
X67640499Y-58452128D01*
X67634091Y-58392517D01*
X67630218Y-58382134D01*
X67583797Y-58257671D01*
X67583793Y-58257664D01*
X67497547Y-58142455D01*
X67497544Y-58142452D01*
X67375231Y-58050888D01*
X67376752Y-58048855D01*
X67336823Y-58008925D01*
X67321972Y-57940652D01*
X67346390Y-57875188D01*
X67402324Y-57833318D01*
X67445656Y-57825500D01*
X68189548Y-57825500D01*
X68256587Y-57845185D01*
X68277229Y-57861819D01*
X69138181Y-58722771D01*
X69171666Y-58784094D01*
X69174500Y-58810452D01*
X69174500Y-62817255D01*
X69172775Y-62832872D01*
X69173061Y-62832899D01*
X69172326Y-62840665D01*
X69174500Y-62909814D01*
X69174500Y-62939343D01*
X69174501Y-62939360D01*
X69175368Y-62946231D01*
X69175826Y-62952050D01*
X69177290Y-62998624D01*
X69177291Y-62998627D01*
X69182880Y-63017867D01*
X69186824Y-63036911D01*
X69189336Y-63056792D01*
X69203455Y-63092454D01*
X69206490Y-63100119D01*
X69208382Y-63105647D01*
X69221381Y-63150388D01*
X69231580Y-63167634D01*
X69240136Y-63185100D01*
X69245527Y-63198713D01*
X69247514Y-63203732D01*
X69274898Y-63241423D01*
X69278106Y-63246307D01*
X69301827Y-63286416D01*
X69301833Y-63286424D01*
X69315990Y-63300580D01*
X69328628Y-63315376D01*
X69340405Y-63331586D01*
X69340406Y-63331587D01*
X69376309Y-63361288D01*
X69380620Y-63365210D01*
X73115363Y-67099953D01*
X76718181Y-70702771D01*
X76751666Y-70764094D01*
X76754500Y-70790452D01*
X76754500Y-73178567D01*
X76734815Y-73245606D01*
X76682011Y-73291361D01*
X76639087Y-73302269D01*
X76590374Y-73305650D01*
X76590359Y-73305652D01*
X76382823Y-73354465D01*
X76382817Y-73354467D01*
X76187761Y-73440592D01*
X76011858Y-73561088D01*
X76011852Y-73561093D01*
X75861093Y-73711852D01*
X75861088Y-73711858D01*
X75740592Y-73887761D01*
X75654467Y-74082817D01*
X75654465Y-74082823D01*
X75605652Y-74290359D01*
X75605650Y-74290374D01*
X75599500Y-74378990D01*
X75599500Y-75821010D01*
X75605650Y-75909625D01*
X75605652Y-75909640D01*
X75654465Y-76117176D01*
X75654467Y-76117182D01*
X75654468Y-76117185D01*
X75740591Y-76312237D01*
X75740592Y-76312238D01*
X75861088Y-76488141D01*
X75861093Y-76488147D01*
X76011852Y-76638906D01*
X76011858Y-76638911D01*
X76187763Y-76759409D01*
X76382815Y-76845532D01*
X76382821Y-76845533D01*
X76382823Y-76845534D01*
X76590359Y-76894347D01*
X76590364Y-76894347D01*
X76590370Y-76894349D01*
X76678988Y-76900500D01*
X76678990Y-76900500D01*
X78121010Y-76900500D01*
X78121012Y-76900500D01*
X78209630Y-76894349D01*
X78209636Y-76894347D01*
X78209640Y-76894347D01*
X78417176Y-76845534D01*
X78417174Y-76845534D01*
X78417185Y-76845532D01*
X78612237Y-76759409D01*
X78788142Y-76638911D01*
X78938911Y-76488142D01*
X79059409Y-76312237D01*
X79145532Y-76117185D01*
X79194349Y-75909630D01*
X79200500Y-75821012D01*
X79200500Y-75821010D01*
X83899500Y-75821010D01*
X83905650Y-75909625D01*
X83905652Y-75909640D01*
X83954465Y-76117176D01*
X83954467Y-76117182D01*
X83954468Y-76117185D01*
X84040591Y-76312237D01*
X84040592Y-76312238D01*
X84161088Y-76488141D01*
X84161093Y-76488147D01*
X84311852Y-76638906D01*
X84311858Y-76638911D01*
X84487763Y-76759409D01*
X84682815Y-76845532D01*
X84682821Y-76845533D01*
X84682823Y-76845534D01*
X84890359Y-76894347D01*
X84890364Y-76894347D01*
X84890370Y-76894349D01*
X84978988Y-76900500D01*
X84978990Y-76900500D01*
X86421010Y-76900500D01*
X86421012Y-76900500D01*
X86509630Y-76894349D01*
X86509636Y-76894347D01*
X86509640Y-76894347D01*
X86717176Y-76845534D01*
X86717174Y-76845534D01*
X86717185Y-76845532D01*
X86912237Y-76759409D01*
X87088142Y-76638911D01*
X87238911Y-76488142D01*
X87282648Y-76424292D01*
X87336771Y-76380113D01*
X87406192Y-76372206D01*
X87468867Y-76403085D01*
X87489749Y-76428098D01*
X87556831Y-76534180D01*
X87722781Y-76721499D01*
X87916635Y-76879774D01*
X87916641Y-76879778D01*
X88133363Y-77004903D01*
X88367362Y-77093647D01*
X88550000Y-77130932D01*
X88550000Y-75766110D01*
X88574457Y-75805610D01*
X88663962Y-75873201D01*
X88771840Y-75903895D01*
X88883521Y-75893546D01*
X88983922Y-75843552D01*
X89050000Y-75771069D01*
X89050000Y-77131028D01*
X89111045Y-77123617D01*
X89111052Y-77123616D01*
X89351423Y-77053990D01*
X89577521Y-76946706D01*
X89783480Y-76804543D01*
X89783481Y-76804542D01*
X89963966Y-76631182D01*
X90114308Y-76431114D01*
X90230605Y-76209530D01*
X90309857Y-75972140D01*
X90350000Y-75725131D01*
X90350000Y-75350000D01*
X89100000Y-75350000D01*
X89100000Y-74850000D01*
X90350000Y-74850000D01*
X90350000Y-74537529D01*
X90334906Y-74350554D01*
X90275015Y-74107570D01*
X90176922Y-73877338D01*
X90043164Y-73665815D01*
X89877218Y-73478500D01*
X89683364Y-73320225D01*
X89683358Y-73320221D01*
X89466636Y-73195096D01*
X89232649Y-73106356D01*
X89232637Y-73106352D01*
X89050000Y-73069066D01*
X89050000Y-74433889D01*
X89025543Y-74394390D01*
X88936038Y-74326799D01*
X88828160Y-74296105D01*
X88716479Y-74306454D01*
X88616078Y-74356448D01*
X88550000Y-74428930D01*
X88550000Y-73068970D01*
X88488947Y-73076384D01*
X88248579Y-73146008D01*
X88248576Y-73146009D01*
X88022478Y-73253293D01*
X87816519Y-73395456D01*
X87816518Y-73395457D01*
X87636033Y-73568817D01*
X87482691Y-73772878D01*
X87481454Y-73771948D01*
X87434149Y-73813526D01*
X87365063Y-73823957D01*
X87301304Y-73795381D01*
X87279544Y-73771175D01*
X87238911Y-73711858D01*
X87238906Y-73711852D01*
X87088147Y-73561093D01*
X87088141Y-73561088D01*
X86912238Y-73440592D01*
X86912239Y-73440592D01*
X86912237Y-73440591D01*
X86717185Y-73354468D01*
X86717183Y-73354467D01*
X86717182Y-73354467D01*
X86717176Y-73354465D01*
X86509640Y-73305652D01*
X86509625Y-73305650D01*
X86436546Y-73300578D01*
X86421012Y-73299500D01*
X84978988Y-73299500D01*
X84964705Y-73300491D01*
X84890374Y-73305650D01*
X84890359Y-73305652D01*
X84682823Y-73354465D01*
X84682817Y-73354467D01*
X84487761Y-73440592D01*
X84311858Y-73561088D01*
X84311852Y-73561093D01*
X84161093Y-73711852D01*
X84161088Y-73711858D01*
X84040592Y-73887761D01*
X83954467Y-74082817D01*
X83954465Y-74082823D01*
X83905652Y-74290359D01*
X83905650Y-74290374D01*
X83899500Y-74378990D01*
X83899500Y-75821010D01*
X79200500Y-75821010D01*
X79200500Y-74378988D01*
X79194349Y-74290370D01*
X79194347Y-74290364D01*
X79194347Y-74290359D01*
X79145534Y-74082823D01*
X79145532Y-74082817D01*
X79145532Y-74082815D01*
X79059409Y-73887763D01*
X78938911Y-73711858D01*
X78938906Y-73711852D01*
X78788147Y-73561093D01*
X78788141Y-73561088D01*
X78612238Y-73440592D01*
X78612239Y-73440592D01*
X78612237Y-73440591D01*
X78417185Y-73354468D01*
X78417183Y-73354467D01*
X78417182Y-73354467D01*
X78417176Y-73354465D01*
X78209640Y-73305652D01*
X78209625Y-73305650D01*
X78120913Y-73299492D01*
X78055397Y-73275212D01*
X78013409Y-73219366D01*
X78005500Y-73175790D01*
X78005500Y-70562742D01*
X78007224Y-70547122D01*
X78006939Y-70547096D01*
X78007671Y-70539340D01*
X78007673Y-70539333D01*
X78005500Y-70470185D01*
X78005500Y-70440650D01*
X78004631Y-70433772D01*
X78004172Y-70427943D01*
X78002709Y-70381372D01*
X77997122Y-70362144D01*
X77993174Y-70343084D01*
X77990663Y-70323204D01*
X77973512Y-70279887D01*
X77971619Y-70274358D01*
X77958618Y-70229609D01*
X77958616Y-70229606D01*
X77948423Y-70212371D01*
X77939861Y-70194894D01*
X77932487Y-70176270D01*
X77932486Y-70176268D01*
X77905079Y-70138545D01*
X77901888Y-70133686D01*
X77878172Y-70093583D01*
X77878165Y-70093574D01*
X77864006Y-70079415D01*
X77851368Y-70064619D01*
X77839594Y-70048413D01*
X77806661Y-70021169D01*
X77803688Y-70018709D01*
X77799376Y-70014786D01*
X75884591Y-68100001D01*
X80994532Y-68100001D01*
X81014364Y-68326686D01*
X81014366Y-68326697D01*
X81073258Y-68546488D01*
X81073261Y-68546497D01*
X81169431Y-68752732D01*
X81169432Y-68752734D01*
X81299954Y-68939141D01*
X81460858Y-69100045D01*
X81460861Y-69100047D01*
X81647266Y-69230568D01*
X81853504Y-69326739D01*
X82073308Y-69385635D01*
X82235230Y-69399801D01*
X82299998Y-69405468D01*
X82300000Y-69405468D01*
X82300002Y-69405468D01*
X82356673Y-69400509D01*
X82526692Y-69385635D01*
X82746496Y-69326739D01*
X82952734Y-69230568D01*
X83139139Y-69100047D01*
X83300047Y-68939139D01*
X83430568Y-68752734D01*
X83526739Y-68546496D01*
X83585635Y-68326692D01*
X83605468Y-68100000D01*
X83585635Y-67873308D01*
X83526739Y-67653504D01*
X83430568Y-67447266D01*
X83300047Y-67260861D01*
X83300045Y-67260858D01*
X83139141Y-67099954D01*
X82952734Y-66969432D01*
X82952732Y-66969431D01*
X82746497Y-66873261D01*
X82746488Y-66873258D01*
X82526697Y-66814366D01*
X82526693Y-66814365D01*
X82526692Y-66814365D01*
X82526691Y-66814364D01*
X82526686Y-66814364D01*
X82300002Y-66794532D01*
X82299998Y-66794532D01*
X82073313Y-66814364D01*
X82073302Y-66814366D01*
X81853511Y-66873258D01*
X81853502Y-66873261D01*
X81647267Y-66969431D01*
X81647265Y-66969432D01*
X81460858Y-67099954D01*
X81299954Y-67260858D01*
X81169432Y-67447265D01*
X81169431Y-67447267D01*
X81073261Y-67653502D01*
X81073258Y-67653511D01*
X81014366Y-67873302D01*
X81014364Y-67873313D01*
X80994532Y-68099998D01*
X80994532Y-68100001D01*
X75884591Y-68100001D01*
X70884592Y-63100001D01*
X80994532Y-63100001D01*
X81014364Y-63326686D01*
X81014366Y-63326697D01*
X81073258Y-63546488D01*
X81073261Y-63546497D01*
X81169431Y-63752732D01*
X81169432Y-63752734D01*
X81299954Y-63939141D01*
X81460858Y-64100045D01*
X81460861Y-64100047D01*
X81647266Y-64230568D01*
X81853504Y-64326739D01*
X82073308Y-64385635D01*
X82235230Y-64399801D01*
X82299998Y-64405468D01*
X82300000Y-64405468D01*
X82300002Y-64405468D01*
X82362499Y-64400000D01*
X82526692Y-64385635D01*
X82746496Y-64326739D01*
X82952734Y-64230568D01*
X83139139Y-64100047D01*
X83300047Y-63939139D01*
X83430568Y-63752734D01*
X83526739Y-63546496D01*
X83585635Y-63326692D01*
X83605468Y-63100000D01*
X83585635Y-62873308D01*
X83526739Y-62653504D01*
X83430568Y-62447266D01*
X83300047Y-62260861D01*
X83300045Y-62260858D01*
X83139141Y-62099954D01*
X82952734Y-61969432D01*
X82952732Y-61969431D01*
X82746497Y-61873261D01*
X82746488Y-61873258D01*
X82526697Y-61814366D01*
X82526693Y-61814365D01*
X82526692Y-61814365D01*
X82526691Y-61814364D01*
X82526686Y-61814364D01*
X82300002Y-61794532D01*
X82299998Y-61794532D01*
X82073313Y-61814364D01*
X82073302Y-61814366D01*
X81853511Y-61873258D01*
X81853502Y-61873261D01*
X81647267Y-61969431D01*
X81647265Y-61969432D01*
X81460858Y-62099954D01*
X81299954Y-62260858D01*
X81169432Y-62447265D01*
X81169431Y-62447267D01*
X81073261Y-62653502D01*
X81073258Y-62653511D01*
X81014366Y-62873302D01*
X81014364Y-62873313D01*
X80994532Y-63099998D01*
X80994532Y-63100001D01*
X70884592Y-63100001D01*
X70461819Y-62677228D01*
X70428334Y-62615905D01*
X70425500Y-62589547D01*
X70425500Y-58582742D01*
X70427224Y-58567122D01*
X70426939Y-58567095D01*
X70427673Y-58559333D01*
X70425500Y-58490172D01*
X70425500Y-58460656D01*
X70425500Y-58460650D01*
X70424631Y-58453779D01*
X70424173Y-58447952D01*
X70422710Y-58401373D01*
X70417119Y-58382130D01*
X70413173Y-58363078D01*
X70410664Y-58343208D01*
X70393504Y-58299867D01*
X70391624Y-58294379D01*
X70378618Y-58249610D01*
X70368422Y-58232370D01*
X70359861Y-58214894D01*
X70352487Y-58196270D01*
X70352486Y-58196268D01*
X70325079Y-58158545D01*
X70321888Y-58153686D01*
X70317237Y-58145822D01*
X70298170Y-58113580D01*
X70298168Y-58113578D01*
X70298165Y-58113574D01*
X70284006Y-58099415D01*
X70271368Y-58084619D01*
X70259594Y-58068413D01*
X70235952Y-58048855D01*
X70223688Y-58038709D01*
X70219376Y-58034786D01*
X69000803Y-56816212D01*
X68990980Y-56803950D01*
X68990759Y-56804134D01*
X68985786Y-56798123D01*
X68967159Y-56780631D01*
X68935364Y-56750773D01*
X68923418Y-56738827D01*
X68914475Y-56729883D01*
X68908986Y-56725625D01*
X68904561Y-56721847D01*
X68870582Y-56689938D01*
X68870580Y-56689936D01*
X68870577Y-56689935D01*
X68853029Y-56680288D01*
X68836763Y-56669604D01*
X68820933Y-56657325D01*
X68778168Y-56638818D01*
X68772922Y-56636248D01*
X68732093Y-56613803D01*
X68732092Y-56613802D01*
X68712693Y-56608822D01*
X68694281Y-56602518D01*
X68675898Y-56594562D01*
X68675892Y-56594560D01*
X68629874Y-56587272D01*
X68624152Y-56586087D01*
X68579021Y-56574500D01*
X68579019Y-56574500D01*
X68558984Y-56574500D01*
X68539586Y-56572973D01*
X68532162Y-56571797D01*
X68519805Y-56569840D01*
X68519804Y-56569840D01*
X68473416Y-56574225D01*
X68467578Y-56574500D01*
X64782737Y-56574500D01*
X64767120Y-56572776D01*
X64767093Y-56573062D01*
X64759331Y-56572327D01*
X64690203Y-56574500D01*
X64660650Y-56574500D01*
X64659929Y-56574590D01*
X64653757Y-56575369D01*
X64647945Y-56575826D01*
X64601373Y-56577290D01*
X64601372Y-56577290D01*
X64582129Y-56582881D01*
X64563079Y-56586825D01*
X64543211Y-56589334D01*
X64543209Y-56589335D01*
X64499884Y-56606488D01*
X64494357Y-56608380D01*
X64449610Y-56621381D01*
X64449609Y-56621382D01*
X64432367Y-56631579D01*
X64414899Y-56640137D01*
X64396269Y-56647513D01*
X64396267Y-56647514D01*
X64358576Y-56674898D01*
X64353694Y-56678105D01*
X64313579Y-56701830D01*
X64299408Y-56716000D01*
X64284623Y-56728628D01*
X64270569Y-56738840D01*
X64268412Y-56740407D01*
X64238709Y-56776310D01*
X64234777Y-56780631D01*
X63416208Y-57599199D01*
X63403951Y-57609020D01*
X63404134Y-57609241D01*
X63398123Y-57614213D01*
X63350772Y-57664636D01*
X63329889Y-57685519D01*
X63329877Y-57685532D01*
X63325621Y-57691017D01*
X63321837Y-57695447D01*
X63289937Y-57729418D01*
X63289936Y-57729420D01*
X63280284Y-57746976D01*
X63269610Y-57763226D01*
X63257329Y-57779061D01*
X63257324Y-57779068D01*
X63238815Y-57821838D01*
X63236245Y-57827084D01*
X63213803Y-57867906D01*
X63208822Y-57887307D01*
X63202521Y-57905710D01*
X63194562Y-57924102D01*
X63194561Y-57924105D01*
X63187271Y-57970127D01*
X63186087Y-57975846D01*
X63174501Y-58020972D01*
X63174500Y-58020982D01*
X63174500Y-58041016D01*
X63172973Y-58060415D01*
X63169840Y-58080194D01*
X63169595Y-58087993D01*
X63167485Y-58087926D01*
X63156264Y-58145822D01*
X63117232Y-58190461D01*
X62960856Y-58299956D01*
X62799954Y-58460858D01*
X62669432Y-58647265D01*
X62669431Y-58647267D01*
X62642382Y-58705275D01*
X62596209Y-58757714D01*
X62529016Y-58776866D01*
X62462135Y-58756650D01*
X62417618Y-58705275D01*
X62390568Y-58647266D01*
X62260047Y-58460861D01*
X62260045Y-58460858D01*
X62099141Y-58299954D01*
X61912734Y-58169432D01*
X61912732Y-58169431D01*
X61706497Y-58073261D01*
X61706488Y-58073258D01*
X61486697Y-58014366D01*
X61486693Y-58014365D01*
X61486692Y-58014365D01*
X61486691Y-58014364D01*
X61486686Y-58014364D01*
X61260002Y-57994532D01*
X61259998Y-57994532D01*
X61033313Y-58014364D01*
X61033302Y-58014366D01*
X60813511Y-58073258D01*
X60813502Y-58073261D01*
X60607267Y-58169431D01*
X60607265Y-58169432D01*
X60420858Y-58299954D01*
X60259954Y-58460858D01*
X60129433Y-58647264D01*
X60129432Y-58647266D01*
X60129315Y-58647518D01*
X60102106Y-58705867D01*
X60055933Y-58758306D01*
X59988739Y-58777457D01*
X59921858Y-58757241D01*
X59877342Y-58705865D01*
X59850135Y-58647520D01*
X59850134Y-58647518D01*
X59719657Y-58461179D01*
X59558820Y-58300342D01*
X59372482Y-58169865D01*
X59166328Y-58073734D01*
X58970000Y-58021127D01*
X58970000Y-58864498D01*
X58862315Y-58815320D01*
X58755763Y-58800000D01*
X58684237Y-58800000D01*
X58577685Y-58815320D01*
X58470000Y-58864498D01*
X58470000Y-58021127D01*
X58273671Y-58073734D01*
X58067517Y-58169865D01*
X57881179Y-58300342D01*
X57720342Y-58461179D01*
X57589867Y-58647515D01*
X57562657Y-58705867D01*
X57516484Y-58758306D01*
X57449290Y-58777457D01*
X57382409Y-58757241D01*
X57337893Y-58705865D01*
X57324702Y-58677578D01*
X57310568Y-58647266D01*
X57180047Y-58460861D01*
X57180045Y-58460858D01*
X57019141Y-58299954D01*
X56832734Y-58169432D01*
X56832732Y-58169431D01*
X56626497Y-58073261D01*
X56626488Y-58073258D01*
X56406697Y-58014366D01*
X56406693Y-58014365D01*
X56406692Y-58014365D01*
X56406691Y-58014364D01*
X56406686Y-58014364D01*
X56180002Y-57994532D01*
X56179998Y-57994532D01*
X55953313Y-58014364D01*
X55953302Y-58014366D01*
X55733511Y-58073258D01*
X55733502Y-58073261D01*
X55527267Y-58169431D01*
X55527265Y-58169432D01*
X55340858Y-58299954D01*
X55179954Y-58460858D01*
X55049432Y-58647265D01*
X55049431Y-58647267D01*
X55022382Y-58705275D01*
X54976209Y-58757714D01*
X54909016Y-58776866D01*
X54842135Y-58756650D01*
X54797618Y-58705275D01*
X54770568Y-58647266D01*
X54640047Y-58460861D01*
X54640045Y-58460858D01*
X54479141Y-58299954D01*
X54292734Y-58169432D01*
X54292732Y-58169431D01*
X54086497Y-58073261D01*
X54086488Y-58073258D01*
X53866697Y-58014366D01*
X53866693Y-58014365D01*
X53866692Y-58014365D01*
X53866691Y-58014364D01*
X53866686Y-58014364D01*
X53640002Y-57994532D01*
X53639998Y-57994532D01*
X53413313Y-58014364D01*
X53413302Y-58014366D01*
X53193511Y-58073258D01*
X53193502Y-58073261D01*
X52987267Y-58169431D01*
X52987265Y-58169432D01*
X52800858Y-58299954D01*
X52639954Y-58460858D01*
X52509432Y-58647265D01*
X52509431Y-58647267D01*
X52482382Y-58705275D01*
X52436209Y-58757714D01*
X52369016Y-58776866D01*
X52302135Y-58756650D01*
X52257618Y-58705275D01*
X52230568Y-58647266D01*
X52100047Y-58460861D01*
X52100045Y-58460858D01*
X51939141Y-58299954D01*
X51752734Y-58169432D01*
X51752732Y-58169431D01*
X51546497Y-58073261D01*
X51546488Y-58073258D01*
X51326697Y-58014366D01*
X51326693Y-58014365D01*
X51326692Y-58014365D01*
X51326691Y-58014364D01*
X51326686Y-58014364D01*
X51100002Y-57994532D01*
X51099998Y-57994532D01*
X50873313Y-58014364D01*
X50873302Y-58014366D01*
X50653511Y-58073258D01*
X50653502Y-58073261D01*
X50447267Y-58169431D01*
X50447265Y-58169432D01*
X50260858Y-58299954D01*
X50099954Y-58460858D01*
X49969432Y-58647265D01*
X49969431Y-58647267D01*
X49942382Y-58705275D01*
X49896209Y-58757714D01*
X49829016Y-58776866D01*
X49762135Y-58756650D01*
X49717618Y-58705275D01*
X49690568Y-58647266D01*
X49560047Y-58460861D01*
X49560045Y-58460858D01*
X49399141Y-58299954D01*
X49212734Y-58169432D01*
X49212732Y-58169431D01*
X49006497Y-58073261D01*
X49006488Y-58073258D01*
X48786697Y-58014366D01*
X48786693Y-58014365D01*
X48786692Y-58014365D01*
X48786691Y-58014364D01*
X48786686Y-58014364D01*
X48560002Y-57994532D01*
X48559998Y-57994532D01*
X48333313Y-58014364D01*
X48333302Y-58014366D01*
X48113511Y-58073258D01*
X48113502Y-58073261D01*
X47907267Y-58169431D01*
X47907265Y-58169432D01*
X47720858Y-58299954D01*
X47559954Y-58460858D01*
X47429432Y-58647265D01*
X47429431Y-58647267D01*
X47402382Y-58705275D01*
X47356209Y-58757714D01*
X47289016Y-58776866D01*
X47222135Y-58756650D01*
X47177618Y-58705275D01*
X47150568Y-58647266D01*
X47020047Y-58460861D01*
X47020045Y-58460858D01*
X46859141Y-58299954D01*
X46672734Y-58169432D01*
X46672732Y-58169431D01*
X46466497Y-58073261D01*
X46466488Y-58073258D01*
X46246697Y-58014366D01*
X46246693Y-58014365D01*
X46246692Y-58014365D01*
X46246691Y-58014364D01*
X46246686Y-58014364D01*
X46020002Y-57994532D01*
X46019998Y-57994532D01*
X45793313Y-58014364D01*
X45793302Y-58014366D01*
X45573511Y-58073258D01*
X45573502Y-58073261D01*
X45367267Y-58169431D01*
X45367265Y-58169432D01*
X45180858Y-58299954D01*
X45019954Y-58460858D01*
X44889432Y-58647265D01*
X44889431Y-58647267D01*
X44862382Y-58705275D01*
X44816209Y-58757714D01*
X44749016Y-58776866D01*
X44682135Y-58756650D01*
X44637618Y-58705275D01*
X44610568Y-58647266D01*
X44480047Y-58460861D01*
X44480045Y-58460858D01*
X44319141Y-58299954D01*
X44132734Y-58169432D01*
X44132732Y-58169431D01*
X43926497Y-58073261D01*
X43926488Y-58073258D01*
X43706697Y-58014366D01*
X43706693Y-58014365D01*
X43706692Y-58014365D01*
X43706691Y-58014364D01*
X43706686Y-58014364D01*
X43480002Y-57994532D01*
X43479998Y-57994532D01*
X43253313Y-58014364D01*
X43253302Y-58014366D01*
X43033511Y-58073258D01*
X43033502Y-58073261D01*
X42827267Y-58169431D01*
X42827265Y-58169432D01*
X42640858Y-58299954D01*
X42479954Y-58460858D01*
X42349432Y-58647265D01*
X42349431Y-58647267D01*
X42322382Y-58705275D01*
X42276209Y-58757714D01*
X42209016Y-58776866D01*
X42142135Y-58756650D01*
X42097618Y-58705275D01*
X42070568Y-58647266D01*
X41940047Y-58460861D01*
X41940045Y-58460858D01*
X41779141Y-58299954D01*
X41592734Y-58169432D01*
X41592732Y-58169431D01*
X41386497Y-58073261D01*
X41386488Y-58073258D01*
X41166697Y-58014366D01*
X41166693Y-58014365D01*
X41166692Y-58014365D01*
X41166691Y-58014364D01*
X41166686Y-58014364D01*
X40940002Y-57994532D01*
X40939998Y-57994532D01*
X40713313Y-58014364D01*
X40713302Y-58014366D01*
X40493511Y-58073258D01*
X40493502Y-58073261D01*
X40287267Y-58169431D01*
X40287265Y-58169432D01*
X40100858Y-58299954D01*
X39939954Y-58460858D01*
X39809432Y-58647265D01*
X39809431Y-58647267D01*
X39782382Y-58705275D01*
X39736209Y-58757714D01*
X39669016Y-58776866D01*
X39602135Y-58756650D01*
X39557618Y-58705275D01*
X39530568Y-58647266D01*
X39400047Y-58460861D01*
X39400045Y-58460858D01*
X39239141Y-58299954D01*
X39052734Y-58169432D01*
X39052732Y-58169431D01*
X38846497Y-58073261D01*
X38846488Y-58073258D01*
X38626697Y-58014366D01*
X38626693Y-58014365D01*
X38626692Y-58014365D01*
X38626691Y-58014364D01*
X38626686Y-58014364D01*
X38400002Y-57994532D01*
X38399998Y-57994532D01*
X38173313Y-58014364D01*
X38173302Y-58014366D01*
X37953511Y-58073258D01*
X37953502Y-58073261D01*
X37747267Y-58169431D01*
X37747265Y-58169432D01*
X37560858Y-58299954D01*
X37399954Y-58460858D01*
X37269432Y-58647265D01*
X37269431Y-58647267D01*
X37242382Y-58705275D01*
X37196209Y-58757714D01*
X37129016Y-58776866D01*
X37062135Y-58756650D01*
X37017618Y-58705275D01*
X36990568Y-58647266D01*
X36860047Y-58460861D01*
X36860045Y-58460858D01*
X36699141Y-58299954D01*
X36512734Y-58169432D01*
X36512732Y-58169431D01*
X36306497Y-58073261D01*
X36306488Y-58073258D01*
X36086697Y-58014366D01*
X36086693Y-58014365D01*
X36086692Y-58014365D01*
X36086691Y-58014364D01*
X36086686Y-58014364D01*
X35860002Y-57994532D01*
X35859998Y-57994532D01*
X35633313Y-58014364D01*
X35633302Y-58014366D01*
X35413511Y-58073258D01*
X35413502Y-58073261D01*
X35207267Y-58169431D01*
X35207265Y-58169432D01*
X35020858Y-58299954D01*
X34859954Y-58460858D01*
X34729432Y-58647265D01*
X34729431Y-58647267D01*
X34702382Y-58705275D01*
X34656209Y-58757714D01*
X34589016Y-58776866D01*
X34522135Y-58756650D01*
X34477618Y-58705275D01*
X34450568Y-58647266D01*
X34320047Y-58460861D01*
X34320045Y-58460858D01*
X34159141Y-58299954D01*
X33972734Y-58169432D01*
X33972732Y-58169431D01*
X33766497Y-58073261D01*
X33766488Y-58073258D01*
X33546697Y-58014366D01*
X33546693Y-58014365D01*
X33546692Y-58014365D01*
X33546691Y-58014364D01*
X33546686Y-58014364D01*
X33320002Y-57994532D01*
X33319998Y-57994532D01*
X33093313Y-58014364D01*
X33093302Y-58014366D01*
X32873511Y-58073258D01*
X32873502Y-58073261D01*
X32667267Y-58169431D01*
X32667265Y-58169432D01*
X32480858Y-58299954D01*
X32319954Y-58460858D01*
X32189432Y-58647265D01*
X32189431Y-58647267D01*
X32162382Y-58705275D01*
X32116209Y-58757714D01*
X32049016Y-58776866D01*
X31982135Y-58756650D01*
X31937618Y-58705275D01*
X31910568Y-58647266D01*
X31780047Y-58460861D01*
X31780045Y-58460858D01*
X31619141Y-58299954D01*
X31432734Y-58169432D01*
X31432732Y-58169431D01*
X31226497Y-58073261D01*
X31226488Y-58073258D01*
X31006697Y-58014366D01*
X31006693Y-58014365D01*
X31006692Y-58014365D01*
X31006691Y-58014364D01*
X31006686Y-58014364D01*
X30780002Y-57994532D01*
X30779998Y-57994532D01*
X30553313Y-58014364D01*
X30553302Y-58014366D01*
X30333511Y-58073258D01*
X30333502Y-58073261D01*
X30127267Y-58169431D01*
X30127265Y-58169432D01*
X29940858Y-58299954D01*
X29779954Y-58460858D01*
X29649432Y-58647265D01*
X29649431Y-58647267D01*
X29553261Y-58853502D01*
X29553258Y-58853511D01*
X29494366Y-59073302D01*
X29494364Y-59073313D01*
X29474532Y-59299998D01*
X29474532Y-59300001D01*
X21200000Y-59300001D01*
X21200000Y-56468129D01*
X26475767Y-56468129D01*
X26505552Y-56738827D01*
X26505554Y-56738840D01*
X26563866Y-56961890D01*
X26574438Y-57002326D01*
X26680953Y-57252975D01*
X26812182Y-57468002D01*
X26822824Y-57485439D01*
X26822831Y-57485449D01*
X26989341Y-57685532D01*
X26997037Y-57694779D01*
X27199869Y-57876518D01*
X27427002Y-58026788D01*
X27673594Y-58142386D01*
X27934389Y-58220847D01*
X28203829Y-58260500D01*
X28203834Y-58260500D01*
X28928005Y-58260500D01*
X28979780Y-58256710D01*
X29131616Y-58245597D01*
X29242723Y-58220847D01*
X29397435Y-58186384D01*
X29397437Y-58186383D01*
X29397442Y-58186382D01*
X29651814Y-58089093D01*
X29889310Y-57955804D01*
X30104868Y-57789355D01*
X30293894Y-57593295D01*
X30452358Y-57371802D01*
X30576885Y-57129597D01*
X30620306Y-57002320D01*
X30664815Y-56871854D01*
X30664815Y-56871850D01*
X30664819Y-56871841D01*
X30714286Y-56604029D01*
X30724232Y-56331869D01*
X30694446Y-56061161D01*
X30625562Y-55797674D01*
X30519047Y-55547025D01*
X30377173Y-55314556D01*
X30242502Y-55152732D01*
X30202964Y-55105222D01*
X30137232Y-55046326D01*
X30000131Y-54923482D01*
X29773000Y-54773213D01*
X29772998Y-54773212D01*
X29526406Y-54657614D01*
X29265611Y-54579153D01*
X29265609Y-54579152D01*
X29265607Y-54579152D01*
X29168996Y-54564934D01*
X28996171Y-54539500D01*
X28272000Y-54539500D01*
X28271995Y-54539500D01*
X28068384Y-54554403D01*
X28068370Y-54554405D01*
X27802564Y-54613615D01*
X27802557Y-54613618D01*
X27548183Y-54710908D01*
X27310691Y-54844195D01*
X27310686Y-54844198D01*
X27095133Y-55010643D01*
X27095124Y-55010652D01*
X26906109Y-55206701D01*
X26906102Y-55206709D01*
X26747647Y-55428189D01*
X26747640Y-55428201D01*
X26623117Y-55670397D01*
X26623111Y-55670411D01*
X26535184Y-55928145D01*
X26535180Y-55928163D01*
X26485715Y-56195959D01*
X26485713Y-56195979D01*
X26475767Y-56468129D01*
X21200000Y-56468129D01*
X21200000Y-51600006D01*
X34694700Y-51600006D01*
X34713864Y-51831297D01*
X34713866Y-51831308D01*
X34770842Y-52056300D01*
X34864075Y-52268848D01*
X34909931Y-52339035D01*
X34991021Y-52463153D01*
X35037692Y-52513852D01*
X35058391Y-52536337D01*
X35089313Y-52598991D01*
X35081452Y-52668417D01*
X35037305Y-52722573D01*
X35010494Y-52736501D01*
X34957671Y-52756202D01*
X34957664Y-52756206D01*
X34842455Y-52842452D01*
X34842452Y-52842455D01*
X34756206Y-52957664D01*
X34756202Y-52957671D01*
X34705908Y-53092517D01*
X34699501Y-53152116D01*
X34699501Y-53152123D01*
X34699500Y-53152135D01*
X34699500Y-55047870D01*
X34699501Y-55047876D01*
X34705908Y-55107483D01*
X34756202Y-55242328D01*
X34756206Y-55242335D01*
X34842452Y-55357544D01*
X34842455Y-55357547D01*
X34957664Y-55443793D01*
X34957671Y-55443797D01*
X35092517Y-55494091D01*
X35092516Y-55494091D01*
X35099444Y-55494835D01*
X35152127Y-55500500D01*
X37047872Y-55500499D01*
X37107483Y-55494091D01*
X37242331Y-55443796D01*
X37357546Y-55357546D01*
X37443796Y-55242331D01*
X37494091Y-55107483D01*
X37500500Y-55047873D01*
X37500500Y-54600002D01*
X48865034Y-54600002D01*
X48884858Y-54826599D01*
X48884860Y-54826610D01*
X48943730Y-55046317D01*
X48943734Y-55046326D01*
X49039865Y-55252481D01*
X49039866Y-55252483D01*
X49090973Y-55325471D01*
X49090974Y-55325472D01*
X49772046Y-54644399D01*
X49784835Y-54725148D01*
X49842359Y-54838045D01*
X49931955Y-54927641D01*
X50044852Y-54985165D01*
X50125599Y-54997953D01*
X49444526Y-55679025D01*
X49444526Y-55679026D01*
X49517512Y-55730131D01*
X49517516Y-55730133D01*
X49723673Y-55826265D01*
X49723682Y-55826269D01*
X49943389Y-55885139D01*
X49943400Y-55885141D01*
X50169998Y-55904966D01*
X50170002Y-55904966D01*
X50396599Y-55885141D01*
X50396610Y-55885139D01*
X50616317Y-55826269D01*
X50616331Y-55826264D01*
X50822478Y-55730136D01*
X50895472Y-55679025D01*
X50214401Y-54997953D01*
X50295148Y-54985165D01*
X50408045Y-54927641D01*
X50497641Y-54838045D01*
X50555165Y-54725148D01*
X50567953Y-54644400D01*
X51249025Y-55325472D01*
X51300136Y-55252478D01*
X51396264Y-55046331D01*
X51396269Y-55046317D01*
X51455139Y-54826610D01*
X51455141Y-54826599D01*
X51474966Y-54600002D01*
X51474966Y-54600001D01*
X53864532Y-54600001D01*
X53884364Y-54826686D01*
X53884366Y-54826697D01*
X53943258Y-55046488D01*
X53943261Y-55046497D01*
X54039431Y-55252732D01*
X54039432Y-55252734D01*
X54169954Y-55439141D01*
X54330858Y-55600045D01*
X54330861Y-55600047D01*
X54517266Y-55730568D01*
X54723504Y-55826739D01*
X54943308Y-55885635D01*
X55105230Y-55899801D01*
X55169998Y-55905468D01*
X55170000Y-55905468D01*
X55170002Y-55905468D01*
X55231985Y-55900045D01*
X55396692Y-55885635D01*
X55616496Y-55826739D01*
X55822734Y-55730568D01*
X56009139Y-55600047D01*
X56170047Y-55439139D01*
X56300568Y-55252734D01*
X56396739Y-55046496D01*
X56455635Y-54826692D01*
X56475468Y-54600000D01*
X56474470Y-54588597D01*
X56466719Y-54500001D01*
X56954532Y-54500001D01*
X56974364Y-54726686D01*
X56974366Y-54726697D01*
X57033258Y-54946488D01*
X57033261Y-54946497D01*
X57129431Y-55152732D01*
X57129432Y-55152734D01*
X57259954Y-55339141D01*
X57420858Y-55500045D01*
X57421508Y-55500500D01*
X57607266Y-55630568D01*
X57813504Y-55726739D01*
X57813509Y-55726740D01*
X57813511Y-55726741D01*
X57827790Y-55730567D01*
X58033308Y-55785635D01*
X58195230Y-55799801D01*
X58259998Y-55805468D01*
X58260000Y-55805468D01*
X58260002Y-55805468D01*
X58316673Y-55800509D01*
X58486692Y-55785635D01*
X58706496Y-55726739D01*
X58912734Y-55630568D01*
X59099139Y-55500047D01*
X59260047Y-55339139D01*
X59390568Y-55152734D01*
X59486739Y-54946496D01*
X59545635Y-54726692D01*
X59565468Y-54500001D01*
X64574532Y-54500001D01*
X64594364Y-54726686D01*
X64594366Y-54726697D01*
X64653258Y-54946488D01*
X64653261Y-54946497D01*
X64749431Y-55152732D01*
X64749432Y-55152734D01*
X64879954Y-55339141D01*
X65040858Y-55500045D01*
X65041508Y-55500500D01*
X65227266Y-55630568D01*
X65433504Y-55726739D01*
X65433509Y-55726740D01*
X65433511Y-55726741D01*
X65447790Y-55730567D01*
X65653308Y-55785635D01*
X65815230Y-55799801D01*
X65879998Y-55805468D01*
X65880000Y-55805468D01*
X65880002Y-55805468D01*
X65936673Y-55800509D01*
X66106692Y-55785635D01*
X66326496Y-55726739D01*
X66532734Y-55630568D01*
X66719139Y-55500047D01*
X66880047Y-55339139D01*
X67010568Y-55152734D01*
X67106739Y-54946496D01*
X67165635Y-54726692D01*
X67185468Y-54500000D01*
X67165635Y-54273308D01*
X67108710Y-54060861D01*
X67106741Y-54053511D01*
X67106738Y-54053502D01*
X67062253Y-53958105D01*
X67010568Y-53847266D01*
X66910952Y-53704999D01*
X66880045Y-53660858D01*
X66719141Y-53499954D01*
X66532734Y-53369432D01*
X66532732Y-53369431D01*
X66326497Y-53273261D01*
X66326488Y-53273258D01*
X66106697Y-53214366D01*
X66106693Y-53214365D01*
X66106692Y-53214365D01*
X66106691Y-53214364D01*
X66106686Y-53214364D01*
X65880002Y-53194532D01*
X65879998Y-53194532D01*
X65653313Y-53214364D01*
X65653302Y-53214366D01*
X65433511Y-53273258D01*
X65433502Y-53273261D01*
X65227267Y-53369431D01*
X65227265Y-53369432D01*
X65040858Y-53499954D01*
X64879954Y-53660858D01*
X64749432Y-53847265D01*
X64749431Y-53847267D01*
X64653261Y-54053502D01*
X64653258Y-54053511D01*
X64594366Y-54273302D01*
X64594364Y-54273313D01*
X64574532Y-54499998D01*
X64574532Y-54500001D01*
X59565468Y-54500001D01*
X59565468Y-54500000D01*
X59545635Y-54273308D01*
X59488710Y-54060861D01*
X59486741Y-54053511D01*
X59486738Y-54053502D01*
X59442253Y-53958105D01*
X59390568Y-53847266D01*
X59290952Y-53704999D01*
X59260045Y-53660858D01*
X59099141Y-53499954D01*
X58912734Y-53369432D01*
X58912732Y-53369431D01*
X58706497Y-53273261D01*
X58706488Y-53273258D01*
X58486697Y-53214366D01*
X58486693Y-53214365D01*
X58486692Y-53214365D01*
X58486691Y-53214364D01*
X58486686Y-53214364D01*
X58260002Y-53194532D01*
X58259998Y-53194532D01*
X58033313Y-53214364D01*
X58033302Y-53214366D01*
X57813511Y-53273258D01*
X57813502Y-53273261D01*
X57607267Y-53369431D01*
X57607265Y-53369432D01*
X57420858Y-53499954D01*
X57259954Y-53660858D01*
X57129432Y-53847265D01*
X57129431Y-53847267D01*
X57033261Y-54053502D01*
X57033258Y-54053511D01*
X56974366Y-54273302D01*
X56974364Y-54273313D01*
X56954532Y-54499998D01*
X56954532Y-54500001D01*
X56466719Y-54500001D01*
X56459852Y-54421508D01*
X56455635Y-54373308D01*
X56400407Y-54167193D01*
X56396741Y-54153511D01*
X56396738Y-54153502D01*
X56373814Y-54104341D01*
X56300568Y-53947266D01*
X56191208Y-53791082D01*
X56170045Y-53760858D01*
X56009141Y-53599954D01*
X55822734Y-53469432D01*
X55822732Y-53469431D01*
X55616497Y-53373261D01*
X55616488Y-53373258D01*
X55396697Y-53314366D01*
X55396693Y-53314365D01*
X55396692Y-53314365D01*
X55396691Y-53314364D01*
X55396686Y-53314364D01*
X55170002Y-53294532D01*
X55169998Y-53294532D01*
X54943313Y-53314364D01*
X54943302Y-53314366D01*
X54723511Y-53373258D01*
X54723502Y-53373261D01*
X54517267Y-53469431D01*
X54517265Y-53469432D01*
X54330858Y-53599954D01*
X54169954Y-53760858D01*
X54039432Y-53947265D01*
X54039431Y-53947267D01*
X53943261Y-54153502D01*
X53943258Y-54153511D01*
X53884366Y-54373302D01*
X53884364Y-54373313D01*
X53864532Y-54599998D01*
X53864532Y-54600001D01*
X51474966Y-54600001D01*
X51474966Y-54599997D01*
X51455141Y-54373400D01*
X51455139Y-54373389D01*
X51396269Y-54153682D01*
X51396265Y-54153673D01*
X51300133Y-53947516D01*
X51300131Y-53947512D01*
X51249026Y-53874526D01*
X51249025Y-53874526D01*
X50567953Y-54555598D01*
X50555165Y-54474852D01*
X50497641Y-54361955D01*
X50408045Y-54272359D01*
X50295148Y-54214835D01*
X50214400Y-54202046D01*
X50895472Y-53520974D01*
X50895471Y-53520973D01*
X50822483Y-53469866D01*
X50822481Y-53469865D01*
X50616326Y-53373734D01*
X50616317Y-53373730D01*
X50396610Y-53314860D01*
X50396599Y-53314858D01*
X50170002Y-53295034D01*
X50169998Y-53295034D01*
X49943400Y-53314858D01*
X49943389Y-53314860D01*
X49723682Y-53373730D01*
X49723673Y-53373734D01*
X49517513Y-53469868D01*
X49444527Y-53520972D01*
X49444526Y-53520973D01*
X50125600Y-54202046D01*
X50044852Y-54214835D01*
X49931955Y-54272359D01*
X49842359Y-54361955D01*
X49784835Y-54474852D01*
X49772046Y-54555599D01*
X49090973Y-53874526D01*
X49090972Y-53874527D01*
X49039868Y-53947513D01*
X48943734Y-54153673D01*
X48943730Y-54153682D01*
X48884860Y-54373389D01*
X48884858Y-54373400D01*
X48865034Y-54599997D01*
X48865034Y-54600002D01*
X37500500Y-54600002D01*
X37500499Y-53152128D01*
X37494091Y-53092517D01*
X37485785Y-53070248D01*
X37443797Y-52957671D01*
X37443793Y-52957664D01*
X37357547Y-52842455D01*
X37357544Y-52842452D01*
X37242335Y-52756206D01*
X37242328Y-52756202D01*
X37189505Y-52736501D01*
X37133571Y-52694630D01*
X37109154Y-52629166D01*
X37124005Y-52560893D01*
X37141602Y-52536343D01*
X37208979Y-52463153D01*
X37335924Y-52268849D01*
X37429157Y-52056300D01*
X37486134Y-51831305D01*
X37486135Y-51831297D01*
X37505300Y-51600006D01*
X37505300Y-51599993D01*
X37486135Y-51368702D01*
X37486133Y-51368691D01*
X37429157Y-51143699D01*
X37335924Y-50931151D01*
X37208983Y-50736852D01*
X37208980Y-50736849D01*
X37208979Y-50736847D01*
X37083005Y-50600002D01*
X48965034Y-50600002D01*
X48984858Y-50826599D01*
X48984860Y-50826610D01*
X49043730Y-51046317D01*
X49043734Y-51046326D01*
X49139865Y-51252481D01*
X49139866Y-51252483D01*
X49190973Y-51325471D01*
X49190974Y-51325472D01*
X49872046Y-50644399D01*
X49884835Y-50725148D01*
X49942359Y-50838045D01*
X50031955Y-50927641D01*
X50144852Y-50985165D01*
X50225599Y-50997953D01*
X49544526Y-51679025D01*
X49544526Y-51679026D01*
X49617512Y-51730131D01*
X49617516Y-51730133D01*
X49823673Y-51826265D01*
X49823682Y-51826269D01*
X50043389Y-51885139D01*
X50043400Y-51885141D01*
X50269998Y-51904966D01*
X50270002Y-51904966D01*
X50496599Y-51885141D01*
X50496610Y-51885139D01*
X50716317Y-51826269D01*
X50716331Y-51826264D01*
X50922478Y-51730136D01*
X50995472Y-51679025D01*
X50314401Y-50997953D01*
X50395148Y-50985165D01*
X50508045Y-50927641D01*
X50597641Y-50838045D01*
X50655165Y-50725148D01*
X50667953Y-50644400D01*
X51349025Y-51325472D01*
X51400136Y-51252478D01*
X51496264Y-51046331D01*
X51496269Y-51046317D01*
X51555139Y-50826610D01*
X51555141Y-50826599D01*
X51574966Y-50600002D01*
X51574966Y-50600001D01*
X53964532Y-50600001D01*
X53984364Y-50826686D01*
X53984366Y-50826697D01*
X54043258Y-51046488D01*
X54043261Y-51046497D01*
X54139431Y-51252732D01*
X54139432Y-51252734D01*
X54269954Y-51439141D01*
X54430858Y-51600045D01*
X54430861Y-51600047D01*
X54617266Y-51730568D01*
X54823504Y-51826739D01*
X54823509Y-51826740D01*
X54823511Y-51826741D01*
X54840556Y-51831308D01*
X55043308Y-51885635D01*
X55205230Y-51899801D01*
X55269998Y-51905468D01*
X55270000Y-51905468D01*
X55270002Y-51905468D01*
X55326673Y-51900509D01*
X55496692Y-51885635D01*
X55716496Y-51826739D01*
X55922734Y-51730568D01*
X56109139Y-51600047D01*
X56270047Y-51439139D01*
X56400568Y-51252734D01*
X56496739Y-51046496D01*
X56555635Y-50826692D01*
X56575468Y-50600000D01*
X56566719Y-50500001D01*
X56954532Y-50500001D01*
X56974364Y-50726686D01*
X56974366Y-50726697D01*
X57033258Y-50946488D01*
X57033261Y-50946497D01*
X57129431Y-51152732D01*
X57129432Y-51152734D01*
X57259954Y-51339141D01*
X57420858Y-51500045D01*
X57420861Y-51500047D01*
X57607266Y-51630568D01*
X57813504Y-51726739D01*
X57813509Y-51726740D01*
X57813511Y-51726741D01*
X57827790Y-51730567D01*
X58033308Y-51785635D01*
X58195230Y-51799801D01*
X58259998Y-51805468D01*
X58260000Y-51805468D01*
X58260002Y-51805468D01*
X58316673Y-51800509D01*
X58486692Y-51785635D01*
X58706496Y-51726739D01*
X58912734Y-51630568D01*
X59099139Y-51500047D01*
X59260047Y-51339139D01*
X59390568Y-51152734D01*
X59486739Y-50946496D01*
X59545635Y-50726692D01*
X59565468Y-50500000D01*
X59564345Y-50487169D01*
X59553795Y-50366574D01*
X59545635Y-50273308D01*
X59486739Y-50053504D01*
X59390568Y-49847266D01*
X59260047Y-49660861D01*
X59260045Y-49660858D01*
X59099141Y-49499954D01*
X58912734Y-49369432D01*
X58912732Y-49369431D01*
X58706497Y-49273261D01*
X58706488Y-49273258D01*
X58486697Y-49214366D01*
X58486693Y-49214365D01*
X58486692Y-49214365D01*
X58486691Y-49214364D01*
X58486686Y-49214364D01*
X58260002Y-49194532D01*
X58259998Y-49194532D01*
X58033313Y-49214364D01*
X58033302Y-49214366D01*
X57813511Y-49273258D01*
X57813502Y-49273261D01*
X57607267Y-49369431D01*
X57607265Y-49369432D01*
X57420858Y-49499954D01*
X57259954Y-49660858D01*
X57129432Y-49847265D01*
X57129431Y-49847267D01*
X57033261Y-50053502D01*
X57033258Y-50053511D01*
X56974366Y-50273302D01*
X56974364Y-50273313D01*
X56954532Y-50499998D01*
X56954532Y-50500001D01*
X56566719Y-50500001D01*
X56555635Y-50373308D01*
X56496739Y-50153504D01*
X56400568Y-49947266D01*
X56270047Y-49760861D01*
X56270045Y-49760858D01*
X56109141Y-49599954D01*
X55922734Y-49469432D01*
X55922732Y-49469431D01*
X55716497Y-49373261D01*
X55716488Y-49373258D01*
X55496697Y-49314366D01*
X55496693Y-49314365D01*
X55496692Y-49314365D01*
X55496691Y-49314364D01*
X55496686Y-49314364D01*
X55270002Y-49294532D01*
X55269998Y-49294532D01*
X55043313Y-49314364D01*
X55043302Y-49314366D01*
X54823511Y-49373258D01*
X54823502Y-49373261D01*
X54617267Y-49469431D01*
X54617265Y-49469432D01*
X54430858Y-49599954D01*
X54269954Y-49760858D01*
X54139432Y-49947265D01*
X54139431Y-49947267D01*
X54043261Y-50153502D01*
X54043258Y-50153511D01*
X53984366Y-50373302D01*
X53984364Y-50373313D01*
X53964532Y-50599998D01*
X53964532Y-50600001D01*
X51574966Y-50600001D01*
X51574966Y-50599997D01*
X51555141Y-50373400D01*
X51555139Y-50373389D01*
X51496269Y-50153682D01*
X51496265Y-50153673D01*
X51400133Y-49947516D01*
X51400131Y-49947512D01*
X51349026Y-49874526D01*
X51349025Y-49874526D01*
X50667953Y-50555598D01*
X50655165Y-50474852D01*
X50597641Y-50361955D01*
X50508045Y-50272359D01*
X50395148Y-50214835D01*
X50314400Y-50202046D01*
X50995472Y-49520974D01*
X50995471Y-49520973D01*
X50922483Y-49469866D01*
X50922481Y-49469865D01*
X50716326Y-49373734D01*
X50716317Y-49373730D01*
X50496610Y-49314860D01*
X50496599Y-49314858D01*
X50270002Y-49295034D01*
X50269998Y-49295034D01*
X50043400Y-49314858D01*
X50043389Y-49314860D01*
X49823682Y-49373730D01*
X49823673Y-49373734D01*
X49617513Y-49469868D01*
X49544527Y-49520972D01*
X49544526Y-49520973D01*
X50225600Y-50202046D01*
X50144852Y-50214835D01*
X50031955Y-50272359D01*
X49942359Y-50361955D01*
X49884835Y-50474852D01*
X49872046Y-50555599D01*
X49190973Y-49874526D01*
X49190972Y-49874527D01*
X49139868Y-49947513D01*
X49043734Y-50153673D01*
X49043730Y-50153682D01*
X48984860Y-50373389D01*
X48984858Y-50373400D01*
X48965034Y-50599997D01*
X48965034Y-50600002D01*
X37083005Y-50600002D01*
X37051784Y-50566087D01*
X37005738Y-50530248D01*
X36899469Y-50447535D01*
X36858656Y-50390825D01*
X36854982Y-50321052D01*
X36889614Y-50260369D01*
X36898794Y-50252413D01*
X36898798Y-50252351D01*
X36232533Y-49586086D01*
X36242315Y-49584680D01*
X36373100Y-49524952D01*
X36481761Y-49430798D01*
X36559493Y-49309844D01*
X36583076Y-49229524D01*
X37251186Y-49897634D01*
X37335484Y-49768606D01*
X37428682Y-49556135D01*
X37485638Y-49331218D01*
X37504798Y-49100005D01*
X37504798Y-49099994D01*
X37485638Y-48868781D01*
X37428682Y-48643864D01*
X37335483Y-48431390D01*
X37251186Y-48302364D01*
X36583076Y-48970475D01*
X36559493Y-48890156D01*
X36481761Y-48769202D01*
X36373100Y-48675048D01*
X36242315Y-48615320D01*
X36232534Y-48613913D01*
X36898799Y-47947648D01*
X36898799Y-47947647D01*
X36868349Y-47923949D01*
X36664302Y-47813523D01*
X36664293Y-47813520D01*
X36444860Y-47738188D01*
X36216007Y-47700000D01*
X35983993Y-47700000D01*
X35755139Y-47738188D01*
X35535706Y-47813520D01*
X35535698Y-47813523D01*
X35331644Y-47923952D01*
X35301200Y-47947646D01*
X35301200Y-47947647D01*
X35967466Y-48613913D01*
X35957685Y-48615320D01*
X35826900Y-48675048D01*
X35718239Y-48769202D01*
X35640507Y-48890156D01*
X35616923Y-48970476D01*
X34948812Y-48302365D01*
X34864516Y-48431391D01*
X34864514Y-48431395D01*
X34771317Y-48643864D01*
X34714361Y-48868781D01*
X34695202Y-49099994D01*
X34695202Y-49100005D01*
X34714361Y-49331218D01*
X34771317Y-49556135D01*
X34864516Y-49768609D01*
X34948811Y-49897633D01*
X35616922Y-49229523D01*
X35640507Y-49309844D01*
X35718239Y-49430798D01*
X35826900Y-49524952D01*
X35957685Y-49584680D01*
X35967466Y-49586086D01*
X35301199Y-50252351D01*
X35301227Y-50252801D01*
X35341341Y-50308537D01*
X35345017Y-50378310D01*
X35310387Y-50438994D01*
X35300530Y-50447536D01*
X35148218Y-50566085D01*
X34991016Y-50736852D01*
X34864075Y-50931151D01*
X34770842Y-51143699D01*
X34713866Y-51368691D01*
X34713864Y-51368702D01*
X34694700Y-51599993D01*
X34694700Y-51600006D01*
X21200000Y-51600006D01*
X21200000Y-46868129D01*
X26475767Y-46868129D01*
X26505552Y-47138827D01*
X26505554Y-47138840D01*
X26574431Y-47402302D01*
X26574438Y-47402326D01*
X26680953Y-47652975D01*
X26787176Y-47827027D01*
X26822824Y-47885439D01*
X26822831Y-47885449D01*
X26959641Y-48049844D01*
X26997037Y-48094779D01*
X27199869Y-48276518D01*
X27427002Y-48426788D01*
X27673594Y-48542386D01*
X27934389Y-48620847D01*
X28203829Y-48660500D01*
X28203834Y-48660500D01*
X28928005Y-48660500D01*
X28979780Y-48656710D01*
X29131616Y-48645597D01*
X29242723Y-48620847D01*
X29397435Y-48586384D01*
X29397437Y-48586383D01*
X29397442Y-48586382D01*
X29651814Y-48489093D01*
X29889310Y-48355804D01*
X30104868Y-48189355D01*
X30293894Y-47993295D01*
X30452358Y-47771802D01*
X30576885Y-47529597D01*
X30636340Y-47355320D01*
X30664815Y-47271854D01*
X30664815Y-47271850D01*
X30664819Y-47271841D01*
X30714286Y-47004029D01*
X30724232Y-46731869D01*
X30694446Y-46461161D01*
X30625562Y-46197674D01*
X30519047Y-45947025D01*
X30377173Y-45714556D01*
X30202963Y-45505221D01*
X30202958Y-45505216D01*
X30175973Y-45481037D01*
X30139179Y-45421640D01*
X30140339Y-45351780D01*
X30179084Y-45293637D01*
X30243113Y-45265671D01*
X30311123Y-45276302D01*
X30333504Y-45286739D01*
X30553308Y-45345635D01*
X30710780Y-45359412D01*
X30779998Y-45365468D01*
X30780000Y-45365468D01*
X30780002Y-45365468D01*
X30849220Y-45359412D01*
X31006692Y-45345635D01*
X31226496Y-45286739D01*
X31432734Y-45190568D01*
X31619139Y-45060047D01*
X31780047Y-44899139D01*
X31910568Y-44712734D01*
X31937618Y-44654724D01*
X31983790Y-44602285D01*
X32050983Y-44583133D01*
X32117865Y-44603348D01*
X32162382Y-44654725D01*
X32189429Y-44712728D01*
X32189432Y-44712734D01*
X32319954Y-44899141D01*
X32480858Y-45060045D01*
X32480861Y-45060047D01*
X32667266Y-45190568D01*
X32873504Y-45286739D01*
X33093308Y-45345635D01*
X33250780Y-45359412D01*
X33319998Y-45365468D01*
X33320000Y-45365468D01*
X33320002Y-45365468D01*
X33389220Y-45359412D01*
X33546692Y-45345635D01*
X33766496Y-45286739D01*
X33972734Y-45190568D01*
X34159139Y-45060047D01*
X34320047Y-44899139D01*
X34450568Y-44712734D01*
X34477618Y-44654724D01*
X34523790Y-44602285D01*
X34590983Y-44583133D01*
X34657865Y-44603348D01*
X34702382Y-44654725D01*
X34729429Y-44712728D01*
X34729432Y-44712734D01*
X34859954Y-44899141D01*
X35020858Y-45060045D01*
X35020861Y-45060047D01*
X35207266Y-45190568D01*
X35413504Y-45286739D01*
X35633308Y-45345635D01*
X35790780Y-45359412D01*
X35859998Y-45365468D01*
X35860000Y-45365468D01*
X35860002Y-45365468D01*
X35929220Y-45359412D01*
X36086692Y-45345635D01*
X36306496Y-45286739D01*
X36512734Y-45190568D01*
X36699139Y-45060047D01*
X36860047Y-44899139D01*
X36990568Y-44712734D01*
X37017618Y-44654724D01*
X37063790Y-44602285D01*
X37130983Y-44583133D01*
X37197865Y-44603348D01*
X37242382Y-44654725D01*
X37269429Y-44712728D01*
X37269432Y-44712734D01*
X37399954Y-44899141D01*
X37560858Y-45060045D01*
X37560861Y-45060047D01*
X37747266Y-45190568D01*
X37953504Y-45286739D01*
X38173308Y-45345635D01*
X38330780Y-45359412D01*
X38399998Y-45365468D01*
X38400000Y-45365468D01*
X38400002Y-45365468D01*
X38469220Y-45359412D01*
X38626692Y-45345635D01*
X38846496Y-45286739D01*
X39052734Y-45190568D01*
X39239139Y-45060047D01*
X39400047Y-44899139D01*
X39530568Y-44712734D01*
X39557618Y-44654724D01*
X39603790Y-44602285D01*
X39670983Y-44583133D01*
X39737865Y-44603348D01*
X39782382Y-44654725D01*
X39809429Y-44712728D01*
X39809432Y-44712734D01*
X39939954Y-44899141D01*
X40100858Y-45060045D01*
X40100861Y-45060047D01*
X40287266Y-45190568D01*
X40493504Y-45286739D01*
X40713308Y-45345635D01*
X40870780Y-45359412D01*
X40939998Y-45365468D01*
X40940000Y-45365468D01*
X40940002Y-45365468D01*
X41009220Y-45359412D01*
X41166692Y-45345635D01*
X41386496Y-45286739D01*
X41592734Y-45190568D01*
X41779139Y-45060047D01*
X41940047Y-44899139D01*
X42070568Y-44712734D01*
X42097618Y-44654724D01*
X42143790Y-44602285D01*
X42210983Y-44583133D01*
X42277865Y-44603348D01*
X42322382Y-44654725D01*
X42349429Y-44712728D01*
X42349432Y-44712734D01*
X42479954Y-44899141D01*
X42640858Y-45060045D01*
X42640861Y-45060047D01*
X42827266Y-45190568D01*
X43033504Y-45286739D01*
X43253308Y-45345635D01*
X43410780Y-45359412D01*
X43479998Y-45365468D01*
X43480000Y-45365468D01*
X43480002Y-45365468D01*
X43549220Y-45359412D01*
X43706692Y-45345635D01*
X43926496Y-45286739D01*
X44132734Y-45190568D01*
X44319139Y-45060047D01*
X44480047Y-44899139D01*
X44610568Y-44712734D01*
X44637618Y-44654724D01*
X44683790Y-44602285D01*
X44750983Y-44583133D01*
X44817865Y-44603348D01*
X44862382Y-44654725D01*
X44889429Y-44712728D01*
X44889432Y-44712734D01*
X45019954Y-44899141D01*
X45180858Y-45060045D01*
X45180861Y-45060047D01*
X45367266Y-45190568D01*
X45573504Y-45286739D01*
X45793308Y-45345635D01*
X45950780Y-45359412D01*
X46019998Y-45365468D01*
X46020000Y-45365468D01*
X46020002Y-45365468D01*
X46089220Y-45359412D01*
X46246692Y-45345635D01*
X46466496Y-45286739D01*
X46672734Y-45190568D01*
X46859139Y-45060047D01*
X47020047Y-44899139D01*
X47150568Y-44712734D01*
X47177618Y-44654724D01*
X47223790Y-44602285D01*
X47290983Y-44583133D01*
X47357865Y-44603348D01*
X47402382Y-44654725D01*
X47429429Y-44712728D01*
X47429432Y-44712734D01*
X47559954Y-44899141D01*
X47720858Y-45060045D01*
X47720861Y-45060047D01*
X47907266Y-45190568D01*
X48113504Y-45286739D01*
X48333308Y-45345635D01*
X48490780Y-45359412D01*
X48559998Y-45365468D01*
X48560000Y-45365468D01*
X48560002Y-45365468D01*
X48629220Y-45359412D01*
X48786692Y-45345635D01*
X49006496Y-45286739D01*
X49212734Y-45190568D01*
X49399139Y-45060047D01*
X49560047Y-44899139D01*
X49690568Y-44712734D01*
X49717618Y-44654724D01*
X49763790Y-44602285D01*
X49830983Y-44583133D01*
X49897865Y-44603348D01*
X49942382Y-44654725D01*
X49969429Y-44712728D01*
X49969432Y-44712734D01*
X50099954Y-44899141D01*
X50260858Y-45060045D01*
X50260861Y-45060047D01*
X50447266Y-45190568D01*
X50653504Y-45286739D01*
X50873308Y-45345635D01*
X51030780Y-45359412D01*
X51099998Y-45365468D01*
X51100000Y-45365468D01*
X51100002Y-45365468D01*
X51169220Y-45359412D01*
X51326692Y-45345635D01*
X51395048Y-45327319D01*
X51464896Y-45328980D01*
X51514822Y-45359412D01*
X53739194Y-47583784D01*
X53749019Y-47596048D01*
X53749240Y-47595866D01*
X53754210Y-47601873D01*
X53754213Y-47601876D01*
X53754214Y-47601877D01*
X53804651Y-47649241D01*
X53825530Y-47670120D01*
X53831004Y-47674366D01*
X53835442Y-47678156D01*
X53869418Y-47710062D01*
X53869422Y-47710064D01*
X53886973Y-47719713D01*
X53903231Y-47730392D01*
X53919064Y-47742674D01*
X53941015Y-47752172D01*
X53961837Y-47761183D01*
X53967081Y-47763752D01*
X54007908Y-47786197D01*
X54027312Y-47791179D01*
X54045710Y-47797478D01*
X54064105Y-47805438D01*
X54110129Y-47812726D01*
X54115832Y-47813907D01*
X54160981Y-47825500D01*
X54181016Y-47825500D01*
X54200413Y-47827026D01*
X54220196Y-47830160D01*
X54266584Y-47825775D01*
X54272422Y-47825500D01*
X64789548Y-47825500D01*
X64856587Y-47845185D01*
X64877229Y-47861819D01*
X66000672Y-48985263D01*
X66034157Y-49046586D01*
X66029173Y-49116278D01*
X65987301Y-49172211D01*
X65921837Y-49196628D01*
X65902187Y-49196472D01*
X65880006Y-49194532D01*
X65879998Y-49194532D01*
X65653313Y-49214364D01*
X65653302Y-49214366D01*
X65433511Y-49273258D01*
X65433502Y-49273261D01*
X65227267Y-49369431D01*
X65227265Y-49369432D01*
X65040858Y-49499954D01*
X64879954Y-49660858D01*
X64749432Y-49847265D01*
X64749431Y-49847267D01*
X64653261Y-50053502D01*
X64653258Y-50053511D01*
X64594366Y-50273302D01*
X64594364Y-50273313D01*
X64574532Y-50499998D01*
X64574532Y-50500001D01*
X64594364Y-50726686D01*
X64594366Y-50726697D01*
X64653258Y-50946488D01*
X64653261Y-50946497D01*
X64749431Y-51152732D01*
X64749432Y-51152734D01*
X64879954Y-51339141D01*
X65040858Y-51500045D01*
X65040861Y-51500047D01*
X65227266Y-51630568D01*
X65433504Y-51726739D01*
X65433509Y-51726740D01*
X65433511Y-51726741D01*
X65447790Y-51730567D01*
X65653308Y-51785635D01*
X65815230Y-51799801D01*
X65879998Y-51805468D01*
X65880000Y-51805468D01*
X65880002Y-51805468D01*
X65936673Y-51800509D01*
X66106692Y-51785635D01*
X66326496Y-51726739D01*
X66532734Y-51630568D01*
X66719139Y-51500047D01*
X66880047Y-51339139D01*
X67010568Y-51152734D01*
X67106739Y-50946496D01*
X67165635Y-50726692D01*
X67185468Y-50500000D01*
X67183527Y-50477815D01*
X67197293Y-50409316D01*
X67245908Y-50359133D01*
X67313937Y-50343199D01*
X67379780Y-50366574D01*
X67394736Y-50379327D01*
X71104197Y-54088788D01*
X71114022Y-54101051D01*
X71114243Y-54100869D01*
X71119214Y-54106878D01*
X71145217Y-54131295D01*
X71169635Y-54154226D01*
X71190529Y-54175120D01*
X71196011Y-54179373D01*
X71200443Y-54183157D01*
X71234418Y-54215062D01*
X71251976Y-54224714D01*
X71268235Y-54235395D01*
X71284064Y-54247673D01*
X71326838Y-54266182D01*
X71332056Y-54268738D01*
X71372908Y-54291197D01*
X71392316Y-54296180D01*
X71410717Y-54302480D01*
X71429104Y-54310437D01*
X71472488Y-54317308D01*
X71475119Y-54317725D01*
X71480839Y-54318909D01*
X71525981Y-54330500D01*
X71546016Y-54330500D01*
X71565414Y-54332026D01*
X71585194Y-54335159D01*
X71585195Y-54335160D01*
X71585195Y-54335159D01*
X71585196Y-54335160D01*
X71631584Y-54330775D01*
X71637422Y-54330500D01*
X71924773Y-54330500D01*
X71991812Y-54350185D01*
X72026348Y-54383377D01*
X72161501Y-54576396D01*
X72161506Y-54576402D01*
X72328597Y-54743493D01*
X72328603Y-54743498D01*
X72514158Y-54873425D01*
X72557783Y-54928002D01*
X72564977Y-54997500D01*
X72533454Y-55059855D01*
X72514158Y-55076575D01*
X72328597Y-55206505D01*
X72161505Y-55373597D01*
X72025965Y-55567169D01*
X72025964Y-55567171D01*
X71926098Y-55781335D01*
X71926094Y-55781344D01*
X71864938Y-56009586D01*
X71864936Y-56009596D01*
X71844341Y-56244999D01*
X71844341Y-56245000D01*
X71864936Y-56480403D01*
X71864938Y-56480413D01*
X71926094Y-56708655D01*
X71926096Y-56708659D01*
X71926097Y-56708663D01*
X72025965Y-56922830D01*
X72025967Y-56922834D01*
X72161501Y-57116395D01*
X72161506Y-57116402D01*
X72328597Y-57283493D01*
X72328603Y-57283498D01*
X72514158Y-57413425D01*
X72557783Y-57468002D01*
X72564977Y-57537500D01*
X72533454Y-57599855D01*
X72514158Y-57616575D01*
X72328597Y-57746505D01*
X72161505Y-57913597D01*
X72025965Y-58107169D01*
X72025964Y-58107171D01*
X71926098Y-58321335D01*
X71926094Y-58321344D01*
X71864938Y-58549586D01*
X71864936Y-58549596D01*
X71844341Y-58784999D01*
X71844341Y-58785000D01*
X71864936Y-59020403D01*
X71864938Y-59020413D01*
X71926094Y-59248655D01*
X71926096Y-59248659D01*
X71926097Y-59248663D01*
X72018893Y-59447664D01*
X72025965Y-59462830D01*
X72025967Y-59462834D01*
X72070685Y-59526697D01*
X72161501Y-59656396D01*
X72161506Y-59656402D01*
X72283430Y-59778326D01*
X72316915Y-59839649D01*
X72311931Y-59909341D01*
X72270059Y-59965274D01*
X72239083Y-59982189D01*
X72107669Y-60031203D01*
X72107664Y-60031206D01*
X71992455Y-60117452D01*
X71992452Y-60117455D01*
X71906206Y-60232664D01*
X71906202Y-60232671D01*
X71855908Y-60367517D01*
X71849501Y-60427116D01*
X71849501Y-60427123D01*
X71849500Y-60427135D01*
X71849500Y-62222870D01*
X71849501Y-62222876D01*
X71855908Y-62282483D01*
X71906202Y-62417328D01*
X71906206Y-62417335D01*
X71992452Y-62532544D01*
X71992455Y-62532547D01*
X72107664Y-62618793D01*
X72107671Y-62618797D01*
X72242517Y-62669091D01*
X72242516Y-62669091D01*
X72249444Y-62669835D01*
X72302127Y-62675500D01*
X74097872Y-62675499D01*
X74157483Y-62669091D01*
X74292331Y-62618796D01*
X74407546Y-62532546D01*
X74493796Y-62417331D01*
X74544091Y-62282483D01*
X74550500Y-62222873D01*
X74550499Y-60427128D01*
X74544091Y-60367517D01*
X74534697Y-60342331D01*
X74493797Y-60232671D01*
X74493793Y-60232664D01*
X74407547Y-60117455D01*
X74407544Y-60117452D01*
X74292335Y-60031206D01*
X74292328Y-60031202D01*
X74160917Y-59982189D01*
X74104983Y-59940318D01*
X74089946Y-59900001D01*
X80994532Y-59900001D01*
X81014364Y-60126686D01*
X81014366Y-60126697D01*
X81073258Y-60346488D01*
X81073261Y-60346497D01*
X81169431Y-60552732D01*
X81169432Y-60552734D01*
X81299954Y-60739141D01*
X81460858Y-60900045D01*
X81460861Y-60900047D01*
X81647266Y-61030568D01*
X81853504Y-61126739D01*
X82073308Y-61185635D01*
X82235230Y-61199801D01*
X82299998Y-61205468D01*
X82300000Y-61205468D01*
X82300002Y-61205468D01*
X82356673Y-61200509D01*
X82526692Y-61185635D01*
X82746496Y-61126739D01*
X82952734Y-61030568D01*
X83139139Y-60900047D01*
X83300047Y-60739139D01*
X83430568Y-60552734D01*
X83526739Y-60346496D01*
X83585635Y-60126692D01*
X83605468Y-59900000D01*
X83605006Y-59894725D01*
X83590153Y-59724952D01*
X83585635Y-59673308D01*
X83526739Y-59453504D01*
X83430568Y-59247266D01*
X83320559Y-59090156D01*
X83300045Y-59060858D01*
X83139141Y-58899954D01*
X82952734Y-58769432D01*
X82952732Y-58769431D01*
X82746497Y-58673261D01*
X82746488Y-58673258D01*
X82526697Y-58614366D01*
X82526693Y-58614365D01*
X82526692Y-58614365D01*
X82526691Y-58614364D01*
X82526686Y-58614364D01*
X82300002Y-58594532D01*
X82299998Y-58594532D01*
X82073313Y-58614364D01*
X82073302Y-58614366D01*
X81853511Y-58673258D01*
X81853502Y-58673261D01*
X81647267Y-58769431D01*
X81647265Y-58769432D01*
X81460858Y-58899954D01*
X81299954Y-59060858D01*
X81169432Y-59247265D01*
X81169431Y-59247267D01*
X81073261Y-59453502D01*
X81073258Y-59453511D01*
X81014366Y-59673302D01*
X81014364Y-59673313D01*
X80994532Y-59899998D01*
X80994532Y-59900001D01*
X74089946Y-59900001D01*
X74080566Y-59874853D01*
X74095418Y-59806580D01*
X74116563Y-59778332D01*
X74238495Y-59656401D01*
X74374035Y-59462830D01*
X74473903Y-59248663D01*
X74535063Y-59020408D01*
X74555659Y-58785000D01*
X74535063Y-58549592D01*
X74473903Y-58321337D01*
X74374035Y-58107171D01*
X74368605Y-58099415D01*
X74238494Y-57913597D01*
X74071402Y-57746506D01*
X74071396Y-57746501D01*
X73885842Y-57616575D01*
X73842217Y-57561998D01*
X73835023Y-57492500D01*
X73866546Y-57430145D01*
X73885842Y-57413425D01*
X73945274Y-57371810D01*
X74071401Y-57283495D01*
X74238495Y-57116401D01*
X74374035Y-56922830D01*
X74473903Y-56708663D01*
X74535063Y-56480408D01*
X74555659Y-56245000D01*
X74535063Y-56009592D01*
X74478282Y-55797679D01*
X74473905Y-55781344D01*
X74473904Y-55781343D01*
X74473903Y-55781337D01*
X74374035Y-55567171D01*
X74363927Y-55552734D01*
X74238494Y-55373597D01*
X74071402Y-55206506D01*
X74071396Y-55206501D01*
X73885842Y-55076575D01*
X73842217Y-55021998D01*
X73835023Y-54952500D01*
X73861563Y-54900001D01*
X80994532Y-54900001D01*
X81014364Y-55126686D01*
X81014366Y-55126697D01*
X81073258Y-55346488D01*
X81073261Y-55346497D01*
X81169431Y-55552732D01*
X81169432Y-55552734D01*
X81299954Y-55739141D01*
X81460858Y-55900045D01*
X81460861Y-55900047D01*
X81647266Y-56030568D01*
X81853504Y-56126739D01*
X82073308Y-56185635D01*
X82235230Y-56199801D01*
X82299998Y-56205468D01*
X82300000Y-56205468D01*
X82300002Y-56205468D01*
X82356673Y-56200509D01*
X82526692Y-56185635D01*
X82746496Y-56126739D01*
X82952734Y-56030568D01*
X83139139Y-55900047D01*
X83300047Y-55739139D01*
X83430568Y-55552734D01*
X83473811Y-55460000D01*
X85044341Y-55460000D01*
X85064936Y-55695403D01*
X85064938Y-55695413D01*
X85126094Y-55923655D01*
X85126096Y-55923659D01*
X85126097Y-55923663D01*
X85175948Y-56030568D01*
X85225965Y-56137830D01*
X85225967Y-56137834D01*
X85301006Y-56245000D01*
X85361505Y-56331401D01*
X85528599Y-56498495D01*
X85704098Y-56621381D01*
X85714594Y-56628730D01*
X85758219Y-56683307D01*
X85765413Y-56752805D01*
X85733890Y-56815160D01*
X85714595Y-56831880D01*
X85528922Y-56961890D01*
X85528920Y-56961891D01*
X85361891Y-57128920D01*
X85361886Y-57128926D01*
X85226400Y-57322420D01*
X85226399Y-57322422D01*
X85126570Y-57536507D01*
X85126567Y-57536513D01*
X85069364Y-57749999D01*
X85069364Y-57750000D01*
X85966314Y-57750000D01*
X85940507Y-57790156D01*
X85900000Y-57928111D01*
X85900000Y-58071889D01*
X85940507Y-58209844D01*
X85966314Y-58250000D01*
X85069364Y-58250000D01*
X85126567Y-58463486D01*
X85126570Y-58463492D01*
X85226399Y-58677578D01*
X85361894Y-58871082D01*
X85483946Y-58993134D01*
X85517431Y-59054457D01*
X85512447Y-59124149D01*
X85470575Y-59180082D01*
X85439598Y-59196997D01*
X85307671Y-59246202D01*
X85307664Y-59246206D01*
X85192455Y-59332452D01*
X85192452Y-59332455D01*
X85106206Y-59447664D01*
X85106202Y-59447671D01*
X85055908Y-59582517D01*
X85050718Y-59630798D01*
X85049501Y-59642123D01*
X85049500Y-59642135D01*
X85049500Y-61437870D01*
X85049501Y-61437876D01*
X85055908Y-61497483D01*
X85106202Y-61632328D01*
X85106206Y-61632335D01*
X85192452Y-61747544D01*
X85192455Y-61747547D01*
X85307664Y-61833793D01*
X85307671Y-61833797D01*
X85442517Y-61884091D01*
X85442516Y-61884091D01*
X85449444Y-61884835D01*
X85502127Y-61890500D01*
X87297872Y-61890499D01*
X87357483Y-61884091D01*
X87492331Y-61833796D01*
X87607546Y-61747546D01*
X87693796Y-61632331D01*
X87744091Y-61497483D01*
X87750500Y-61437873D01*
X87750499Y-59642128D01*
X87745299Y-59593757D01*
X87744091Y-59582516D01*
X87693797Y-59447671D01*
X87693793Y-59447664D01*
X87607547Y-59332455D01*
X87607544Y-59332452D01*
X87492335Y-59246206D01*
X87492328Y-59246202D01*
X87360401Y-59196997D01*
X87304467Y-59155126D01*
X87280050Y-59089662D01*
X87294902Y-59021389D01*
X87316053Y-58993133D01*
X87438108Y-58871078D01*
X87573600Y-58677578D01*
X87673429Y-58463492D01*
X87673432Y-58463486D01*
X87730636Y-58250000D01*
X86833686Y-58250000D01*
X86859493Y-58209844D01*
X86900000Y-58071889D01*
X86900000Y-57928111D01*
X86859493Y-57790156D01*
X86833686Y-57750000D01*
X87730636Y-57750000D01*
X87730635Y-57749999D01*
X87673432Y-57536513D01*
X87673429Y-57536507D01*
X87573600Y-57322422D01*
X87573599Y-57322420D01*
X87438113Y-57128926D01*
X87438108Y-57128920D01*
X87271078Y-56961890D01*
X87085405Y-56831879D01*
X87041780Y-56777302D01*
X87034588Y-56707804D01*
X87066110Y-56645449D01*
X87085406Y-56628730D01*
X87095900Y-56621382D01*
X87271401Y-56498495D01*
X87438495Y-56331401D01*
X87574035Y-56137830D01*
X87673903Y-55923663D01*
X87735063Y-55695408D01*
X87755659Y-55460000D01*
X87735063Y-55224592D01*
X87677736Y-55010643D01*
X87673905Y-54996344D01*
X87673904Y-54996343D01*
X87673903Y-54996337D01*
X87574035Y-54782171D01*
X87546953Y-54743493D01*
X87438494Y-54588597D01*
X87271402Y-54421506D01*
X87271401Y-54421505D01*
X87085405Y-54291269D01*
X87041781Y-54236692D01*
X87034588Y-54167193D01*
X87066110Y-54104839D01*
X87085405Y-54088119D01*
X87271082Y-53958105D01*
X87438105Y-53791082D01*
X87573600Y-53597578D01*
X87673429Y-53383492D01*
X87673432Y-53383486D01*
X87730636Y-53170000D01*
X86833686Y-53170000D01*
X86859493Y-53129844D01*
X86900000Y-52991889D01*
X86900000Y-52848111D01*
X86859493Y-52710156D01*
X86833686Y-52670000D01*
X87730636Y-52670000D01*
X87730635Y-52669999D01*
X87673432Y-52456513D01*
X87673429Y-52456507D01*
X87573600Y-52242422D01*
X87573599Y-52242420D01*
X87438113Y-52048926D01*
X87438108Y-52048920D01*
X87271078Y-51881890D01*
X87085405Y-51751879D01*
X87041780Y-51697302D01*
X87034588Y-51627804D01*
X87066110Y-51565449D01*
X87085406Y-51548730D01*
X87271401Y-51418495D01*
X87438495Y-51251401D01*
X87574035Y-51057830D01*
X87673903Y-50843663D01*
X87735063Y-50615408D01*
X87755659Y-50380000D01*
X87735063Y-50144592D01*
X87682257Y-49947516D01*
X87673905Y-49916344D01*
X87673904Y-49916343D01*
X87673903Y-49916337D01*
X87574035Y-49702171D01*
X87545108Y-49660858D01*
X87438494Y-49508597D01*
X87271402Y-49341506D01*
X87271401Y-49341505D01*
X87089828Y-49214366D01*
X87085405Y-49211269D01*
X87041781Y-49156692D01*
X87034588Y-49087193D01*
X87066110Y-49024839D01*
X87085405Y-49008119D01*
X87271082Y-48878105D01*
X87438105Y-48711082D01*
X87573600Y-48517578D01*
X87673429Y-48303492D01*
X87673432Y-48303486D01*
X87730636Y-48090000D01*
X86833686Y-48090000D01*
X86859493Y-48049844D01*
X86900000Y-47911889D01*
X86900000Y-47768111D01*
X86859493Y-47630156D01*
X86833686Y-47590000D01*
X87730636Y-47590000D01*
X87730635Y-47589999D01*
X87673432Y-47376513D01*
X87673429Y-47376507D01*
X87573600Y-47162422D01*
X87573599Y-47162420D01*
X87438113Y-46968926D01*
X87438108Y-46968920D01*
X87271082Y-46801894D01*
X87077578Y-46666399D01*
X86863492Y-46566570D01*
X86863486Y-46566567D01*
X86650000Y-46509364D01*
X86650000Y-47404498D01*
X86542315Y-47355320D01*
X86435763Y-47340000D01*
X86364237Y-47340000D01*
X86257685Y-47355320D01*
X86150000Y-47404498D01*
X86150000Y-46509364D01*
X86149999Y-46509364D01*
X85936513Y-46566567D01*
X85936507Y-46566570D01*
X85722422Y-46666399D01*
X85722420Y-46666400D01*
X85528926Y-46801886D01*
X85528920Y-46801891D01*
X85361891Y-46968920D01*
X85361886Y-46968926D01*
X85226400Y-47162420D01*
X85226399Y-47162422D01*
X85126570Y-47376507D01*
X85126567Y-47376513D01*
X85069364Y-47589999D01*
X85069364Y-47590000D01*
X85966314Y-47590000D01*
X85940507Y-47630156D01*
X85900000Y-47768111D01*
X85900000Y-47911889D01*
X85940507Y-48049844D01*
X85966314Y-48090000D01*
X85069364Y-48090000D01*
X85126567Y-48303486D01*
X85126570Y-48303492D01*
X85226399Y-48517578D01*
X85361894Y-48711082D01*
X85528917Y-48878105D01*
X85714595Y-49008119D01*
X85758219Y-49062696D01*
X85765412Y-49132195D01*
X85733890Y-49194549D01*
X85714595Y-49211269D01*
X85528594Y-49341508D01*
X85361505Y-49508597D01*
X85225965Y-49702169D01*
X85225964Y-49702171D01*
X85126098Y-49916335D01*
X85126094Y-49916344D01*
X85064938Y-50144586D01*
X85064936Y-50144596D01*
X85044341Y-50379999D01*
X85044341Y-50380000D01*
X85064936Y-50615403D01*
X85064938Y-50615413D01*
X85126094Y-50843655D01*
X85126096Y-50843659D01*
X85126097Y-50843663D01*
X85177340Y-50953553D01*
X85225965Y-51057830D01*
X85225967Y-51057834D01*
X85361501Y-51251395D01*
X85361506Y-51251402D01*
X85528597Y-51418493D01*
X85528603Y-51418498D01*
X85714594Y-51548730D01*
X85758219Y-51603307D01*
X85765413Y-51672805D01*
X85733890Y-51735160D01*
X85714595Y-51751880D01*
X85528922Y-51881890D01*
X85528920Y-51881891D01*
X85361891Y-52048920D01*
X85361886Y-52048926D01*
X85226400Y-52242420D01*
X85226399Y-52242422D01*
X85126570Y-52456507D01*
X85126567Y-52456513D01*
X85069364Y-52669999D01*
X85069364Y-52670000D01*
X85966314Y-52670000D01*
X85940507Y-52710156D01*
X85900000Y-52848111D01*
X85900000Y-52991889D01*
X85940507Y-53129844D01*
X85966314Y-53170000D01*
X85069364Y-53170000D01*
X85126567Y-53383486D01*
X85126570Y-53383492D01*
X85226399Y-53597578D01*
X85361894Y-53791082D01*
X85528917Y-53958105D01*
X85714595Y-54088119D01*
X85758219Y-54142696D01*
X85765412Y-54212195D01*
X85733890Y-54274549D01*
X85714595Y-54291269D01*
X85528594Y-54421508D01*
X85361505Y-54588597D01*
X85225965Y-54782169D01*
X85225964Y-54782171D01*
X85126098Y-54996335D01*
X85126094Y-54996344D01*
X85064938Y-55224586D01*
X85064936Y-55224596D01*
X85044341Y-55459999D01*
X85044341Y-55460000D01*
X83473811Y-55460000D01*
X83526739Y-55346496D01*
X83585635Y-55126692D01*
X83605468Y-54900000D01*
X83585635Y-54673308D01*
X83526739Y-54453504D01*
X83430568Y-54247266D01*
X83300047Y-54060861D01*
X83300045Y-54060858D01*
X83139141Y-53899954D01*
X82952734Y-53769432D01*
X82952732Y-53769431D01*
X82746497Y-53673261D01*
X82746488Y-53673258D01*
X82546882Y-53619775D01*
X82487221Y-53583410D01*
X82456692Y-53520563D01*
X82464987Y-53451188D01*
X82509472Y-53397310D01*
X82546882Y-53380225D01*
X82571122Y-53373730D01*
X82746496Y-53326739D01*
X82952734Y-53230568D01*
X83139139Y-53100047D01*
X83300047Y-52939139D01*
X83430568Y-52752734D01*
X83526739Y-52546496D01*
X83585635Y-52326692D01*
X83605468Y-52100000D01*
X83585635Y-51873308D01*
X83526739Y-51653504D01*
X83430568Y-51447266D01*
X83300047Y-51260861D01*
X83300045Y-51260858D01*
X83139141Y-51099954D01*
X82952734Y-50969432D01*
X82952732Y-50969431D01*
X82746497Y-50873261D01*
X82746488Y-50873258D01*
X82526697Y-50814366D01*
X82526693Y-50814365D01*
X82526692Y-50814365D01*
X82526691Y-50814364D01*
X82526686Y-50814364D01*
X82300002Y-50794532D01*
X82299998Y-50794532D01*
X82073313Y-50814364D01*
X82073302Y-50814366D01*
X81853511Y-50873258D01*
X81853502Y-50873261D01*
X81647267Y-50969431D01*
X81647265Y-50969432D01*
X81460858Y-51099954D01*
X81299954Y-51260858D01*
X81169432Y-51447265D01*
X81169431Y-51447267D01*
X81073261Y-51653502D01*
X81073258Y-51653511D01*
X81014366Y-51873302D01*
X81014364Y-51873313D01*
X80994532Y-52099998D01*
X80994532Y-52100001D01*
X81014364Y-52326686D01*
X81014366Y-52326697D01*
X81073258Y-52546488D01*
X81073261Y-52546497D01*
X81169431Y-52752732D01*
X81169432Y-52752734D01*
X81299954Y-52939141D01*
X81460858Y-53100045D01*
X81460861Y-53100047D01*
X81647266Y-53230568D01*
X81853504Y-53326739D01*
X81853509Y-53326740D01*
X81853511Y-53326741D01*
X82053117Y-53380225D01*
X82112778Y-53416590D01*
X82143307Y-53479437D01*
X82135012Y-53548812D01*
X82090527Y-53602690D01*
X82053117Y-53619775D01*
X81853511Y-53673258D01*
X81853502Y-53673261D01*
X81647267Y-53769431D01*
X81647265Y-53769432D01*
X81460858Y-53899954D01*
X81299954Y-54060858D01*
X81169432Y-54247265D01*
X81169431Y-54247267D01*
X81073261Y-54453502D01*
X81073258Y-54453511D01*
X81014366Y-54673302D01*
X81014364Y-54673313D01*
X80994532Y-54899998D01*
X80994532Y-54900001D01*
X73861563Y-54900001D01*
X73866546Y-54890145D01*
X73885842Y-54873425D01*
X73952592Y-54826686D01*
X74071401Y-54743495D01*
X74238495Y-54576401D01*
X74374035Y-54382830D01*
X74473903Y-54168663D01*
X74535063Y-53940408D01*
X74555659Y-53705000D01*
X74535063Y-53469592D01*
X74473903Y-53241337D01*
X74374035Y-53027171D01*
X74373652Y-53026623D01*
X74238494Y-52833597D01*
X74071402Y-52666506D01*
X74071396Y-52666501D01*
X73885842Y-52536575D01*
X73842217Y-52481998D01*
X73835023Y-52412500D01*
X73866546Y-52350145D01*
X73885842Y-52333425D01*
X73978067Y-52268848D01*
X74071401Y-52203495D01*
X74238495Y-52036401D01*
X74374035Y-51842830D01*
X74473903Y-51628663D01*
X74535063Y-51400408D01*
X74555659Y-51165000D01*
X74535063Y-50929592D01*
X74473903Y-50701337D01*
X74374035Y-50487171D01*
X74373652Y-50486623D01*
X74238494Y-50293597D01*
X74071402Y-50126506D01*
X74071401Y-50126505D01*
X73885405Y-49996269D01*
X73841781Y-49941692D01*
X73834588Y-49872193D01*
X73866110Y-49809839D01*
X73885405Y-49793119D01*
X74071082Y-49663105D01*
X74238105Y-49496082D01*
X74373600Y-49302578D01*
X74473429Y-49088492D01*
X74473432Y-49088486D01*
X74530636Y-48875000D01*
X73633686Y-48875000D01*
X73659493Y-48834844D01*
X73700000Y-48696889D01*
X73700000Y-48553111D01*
X73659493Y-48415156D01*
X73633686Y-48375000D01*
X74530636Y-48375000D01*
X74530635Y-48374999D01*
X74473432Y-48161513D01*
X74473429Y-48161507D01*
X74373600Y-47947422D01*
X74373599Y-47947420D01*
X74238113Y-47753926D01*
X74238108Y-47753920D01*
X74071078Y-47586890D01*
X73885405Y-47456879D01*
X73841780Y-47402302D01*
X73834588Y-47332804D01*
X73866110Y-47270449D01*
X73885406Y-47253730D01*
X74071401Y-47123495D01*
X74094895Y-47100001D01*
X80994532Y-47100001D01*
X81014364Y-47326686D01*
X81014366Y-47326697D01*
X81073258Y-47546488D01*
X81073261Y-47546497D01*
X81169431Y-47752732D01*
X81169432Y-47752734D01*
X81299954Y-47939141D01*
X81460858Y-48100045D01*
X81460861Y-48100047D01*
X81647266Y-48230568D01*
X81853504Y-48326739D01*
X82073308Y-48385635D01*
X82235230Y-48399801D01*
X82299998Y-48405468D01*
X82300000Y-48405468D01*
X82300002Y-48405468D01*
X82356673Y-48400509D01*
X82526692Y-48385635D01*
X82746496Y-48326739D01*
X82952734Y-48230568D01*
X83139139Y-48100047D01*
X83300047Y-47939139D01*
X83430568Y-47752734D01*
X83526739Y-47546496D01*
X83585635Y-47326692D01*
X83605468Y-47100000D01*
X83585635Y-46873308D01*
X83540916Y-46706415D01*
X83526741Y-46653511D01*
X83526738Y-46653502D01*
X83491653Y-46578262D01*
X83430568Y-46447266D01*
X83300047Y-46260861D01*
X83300045Y-46260858D01*
X83139141Y-46099954D01*
X82952734Y-45969432D01*
X82952732Y-45969431D01*
X82746497Y-45873261D01*
X82746488Y-45873258D01*
X82526697Y-45814366D01*
X82526693Y-45814365D01*
X82526692Y-45814365D01*
X82526691Y-45814364D01*
X82526686Y-45814364D01*
X82300002Y-45794532D01*
X82299998Y-45794532D01*
X82073313Y-45814364D01*
X82073302Y-45814366D01*
X81853511Y-45873258D01*
X81853502Y-45873261D01*
X81647267Y-45969431D01*
X81647265Y-45969432D01*
X81460858Y-46099954D01*
X81299954Y-46260858D01*
X81169432Y-46447265D01*
X81169431Y-46447267D01*
X81073261Y-46653502D01*
X81073258Y-46653511D01*
X81014366Y-46873302D01*
X81014364Y-46873313D01*
X80994532Y-47099998D01*
X80994532Y-47100001D01*
X74094895Y-47100001D01*
X74238495Y-46956401D01*
X74374035Y-46762830D01*
X74473903Y-46548663D01*
X74535063Y-46320408D01*
X74555659Y-46085000D01*
X74535063Y-45849592D01*
X74473903Y-45621337D01*
X74374035Y-45407171D01*
X74373587Y-45406530D01*
X74238494Y-45213597D01*
X74071402Y-45046506D01*
X74071395Y-45046501D01*
X73877834Y-44910967D01*
X73877830Y-44910965D01*
X73852469Y-44899139D01*
X73663663Y-44811097D01*
X73663659Y-44811096D01*
X73663655Y-44811094D01*
X73435413Y-44749938D01*
X73435403Y-44749936D01*
X73200001Y-44729341D01*
X73199999Y-44729341D01*
X72964596Y-44749936D01*
X72964586Y-44749938D01*
X72736344Y-44811094D01*
X72736335Y-44811098D01*
X72522171Y-44910964D01*
X72522169Y-44910965D01*
X72328597Y-45046505D01*
X72161505Y-45213597D01*
X72025965Y-45407169D01*
X72025964Y-45407171D01*
X71926098Y-45621335D01*
X71926094Y-45621344D01*
X71864938Y-45849586D01*
X71864936Y-45849596D01*
X71844341Y-46084999D01*
X71844341Y-46085000D01*
X71864936Y-46320403D01*
X71864938Y-46320413D01*
X71926094Y-46548655D01*
X71926096Y-46548659D01*
X71926097Y-46548663D01*
X71980999Y-46666400D01*
X72025965Y-46762830D01*
X72025967Y-46762834D01*
X72161501Y-46956395D01*
X72161506Y-46956402D01*
X72328597Y-47123493D01*
X72328603Y-47123498D01*
X72514594Y-47253730D01*
X72558219Y-47308307D01*
X72565413Y-47377805D01*
X72533890Y-47440160D01*
X72514595Y-47456880D01*
X72328922Y-47586890D01*
X72328920Y-47586891D01*
X72161891Y-47753920D01*
X72161886Y-47753926D01*
X72026400Y-47947420D01*
X72026399Y-47947422D01*
X71926570Y-48161507D01*
X71926567Y-48161513D01*
X71869364Y-48374999D01*
X71869364Y-48375000D01*
X72766314Y-48375000D01*
X72740507Y-48415156D01*
X72700000Y-48553111D01*
X72700000Y-48696889D01*
X72740507Y-48834844D01*
X72766314Y-48875000D01*
X71869364Y-48875000D01*
X71926567Y-49088486D01*
X71926570Y-49088492D01*
X72026399Y-49302578D01*
X72161894Y-49496082D01*
X72328917Y-49663105D01*
X72514595Y-49793119D01*
X72558219Y-49847696D01*
X72565412Y-49917195D01*
X72533890Y-49979549D01*
X72514595Y-49996269D01*
X72328594Y-50126508D01*
X72161505Y-50293597D01*
X72026348Y-50486623D01*
X71971771Y-50530248D01*
X71924773Y-50539500D01*
X70975452Y-50539500D01*
X70908413Y-50519815D01*
X70887771Y-50503181D01*
X65917238Y-45532647D01*
X65883753Y-45471324D01*
X65888737Y-45401632D01*
X65930609Y-45345699D01*
X65996073Y-45321282D01*
X66037007Y-45325190D01*
X66113308Y-45345635D01*
X66270780Y-45359412D01*
X66339998Y-45365468D01*
X66340000Y-45365468D01*
X66340002Y-45365468D01*
X66409220Y-45359412D01*
X66566692Y-45345635D01*
X66786496Y-45286739D01*
X66992734Y-45190568D01*
X67179139Y-45060047D01*
X67340047Y-44899139D01*
X67470568Y-44712734D01*
X67566739Y-44506496D01*
X67625635Y-44286692D01*
X67645468Y-44060000D01*
X67625635Y-43833308D01*
X67566739Y-43613504D01*
X67470568Y-43407266D01*
X67340047Y-43220861D01*
X67340045Y-43220858D01*
X67179141Y-43059954D01*
X66992734Y-42929432D01*
X66992732Y-42929431D01*
X66786497Y-42833261D01*
X66786488Y-42833258D01*
X66566697Y-42774366D01*
X66566693Y-42774365D01*
X66566692Y-42774365D01*
X66566691Y-42774364D01*
X66566686Y-42774364D01*
X66340002Y-42754532D01*
X66339998Y-42754532D01*
X66113313Y-42774364D01*
X66113302Y-42774366D01*
X65893511Y-42833258D01*
X65893502Y-42833261D01*
X65687267Y-42929431D01*
X65687265Y-42929432D01*
X65500858Y-43059954D01*
X65339954Y-43220858D01*
X65209432Y-43407265D01*
X65209431Y-43407267D01*
X65113261Y-43613502D01*
X65113258Y-43613511D01*
X65054366Y-43833302D01*
X65054364Y-43833313D01*
X65034532Y-44059998D01*
X65034532Y-44060001D01*
X65054364Y-44286686D01*
X65054366Y-44286697D01*
X65113258Y-44506488D01*
X65113261Y-44506497D01*
X65209431Y-44712732D01*
X65209432Y-44712734D01*
X65339954Y-44899141D01*
X65399202Y-44958389D01*
X65432687Y-45019712D01*
X65427703Y-45089404D01*
X65385831Y-45145337D01*
X65323190Y-45169520D01*
X65319804Y-45169840D01*
X65284132Y-45173212D01*
X65273416Y-45174225D01*
X65267578Y-45174500D01*
X63423472Y-45174500D01*
X63356433Y-45154815D01*
X63316085Y-45112500D01*
X63232534Y-44967785D01*
X63105870Y-44827111D01*
X62952734Y-44715851D01*
X62952729Y-44715848D01*
X62779807Y-44638857D01*
X62779802Y-44638855D01*
X62596789Y-44599955D01*
X62535307Y-44566763D01*
X62501531Y-44505600D01*
X62502794Y-44446574D01*
X62545635Y-44286692D01*
X62565468Y-44060000D01*
X62545635Y-43833308D01*
X62486739Y-43613504D01*
X62390568Y-43407266D01*
X62260047Y-43220861D01*
X62260045Y-43220858D01*
X62099141Y-43059954D01*
X61912734Y-42929432D01*
X61912732Y-42929431D01*
X61706497Y-42833261D01*
X61706491Y-42833259D01*
X61524753Y-42784563D01*
X61465093Y-42748198D01*
X61434564Y-42685351D01*
X61442859Y-42615975D01*
X61487344Y-42562097D01*
X61497114Y-42556124D01*
X61503727Y-42552488D01*
X61503727Y-42552487D01*
X61503732Y-42552486D01*
X61541449Y-42525082D01*
X61546305Y-42521892D01*
X61586420Y-42498170D01*
X61600589Y-42483999D01*
X61615379Y-42471368D01*
X61631587Y-42459594D01*
X61661299Y-42423676D01*
X61665212Y-42419376D01*
X62383787Y-41700802D01*
X62396042Y-41690986D01*
X62395859Y-41690764D01*
X62401866Y-41685792D01*
X62401877Y-41685786D01*
X62432775Y-41652882D01*
X62449227Y-41635364D01*
X62459671Y-41624918D01*
X62470120Y-41614471D01*
X62474379Y-41608978D01*
X62478152Y-41604561D01*
X62510062Y-41570582D01*
X62519715Y-41553020D01*
X62530389Y-41536770D01*
X62542673Y-41520936D01*
X62561180Y-41478167D01*
X62563749Y-41472924D01*
X62586196Y-41432093D01*
X62586197Y-41432092D01*
X62591177Y-41412691D01*
X62597478Y-41394288D01*
X62605438Y-41375896D01*
X62612730Y-41329849D01*
X62613911Y-41324152D01*
X62625500Y-41279019D01*
X62625500Y-41258983D01*
X62627027Y-41239582D01*
X62630160Y-41219804D01*
X62625775Y-41173415D01*
X62625500Y-41167577D01*
X62625500Y-39734675D01*
X63471748Y-39734675D01*
X63481748Y-39995593D01*
X63531462Y-40251928D01*
X63531462Y-40251930D01*
X63619718Y-40497663D01*
X63629417Y-40515499D01*
X63744459Y-40727057D01*
X63902750Y-40934716D01*
X64090886Y-41115778D01*
X64090891Y-41115781D01*
X64090895Y-41115785D01*
X64304441Y-41265989D01*
X64304445Y-41265991D01*
X64304456Y-41265999D01*
X64526410Y-41375896D01*
X64538455Y-41381860D01*
X64606014Y-41403240D01*
X64787395Y-41460641D01*
X65045445Y-41500500D01*
X65045449Y-41500500D01*
X66141177Y-41500500D01*
X66336344Y-41485516D01*
X66590586Y-41426021D01*
X66669341Y-41394280D01*
X66832758Y-41328418D01*
X66832763Y-41328415D01*
X66832766Y-41328414D01*
X67057208Y-41194982D01*
X67258652Y-41028852D01*
X67432375Y-40833920D01*
X67508221Y-40716800D01*
X67574304Y-40614757D01*
X67574304Y-40614755D01*
X67574306Y-40614753D01*
X67681118Y-40376489D01*
X67750307Y-40124713D01*
X67780252Y-39865325D01*
X67770251Y-39604407D01*
X67720538Y-39348073D01*
X67675801Y-39223511D01*
X67632281Y-39102336D01*
X67568610Y-38985247D01*
X67507541Y-38872943D01*
X67349250Y-38665284D01*
X67161114Y-38484222D01*
X67161108Y-38484218D01*
X67161104Y-38484214D01*
X66947558Y-38334010D01*
X66947551Y-38334006D01*
X66947544Y-38334001D01*
X66812474Y-38267123D01*
X66713544Y-38218139D01*
X66464608Y-38139360D01*
X66464605Y-38139359D01*
X66206555Y-38099500D01*
X65110823Y-38099500D01*
X64915656Y-38114484D01*
X64915652Y-38114484D01*
X64661416Y-38173978D01*
X64661406Y-38173981D01*
X64419241Y-38271581D01*
X64419232Y-38271586D01*
X64194793Y-38405017D01*
X63993345Y-38571150D01*
X63819631Y-38766071D01*
X63819618Y-38766088D01*
X63677695Y-38985242D01*
X63677694Y-38985246D01*
X63570881Y-39223511D01*
X63501693Y-39475285D01*
X63471748Y-39734675D01*
X62625500Y-39734675D01*
X62625500Y-36410452D01*
X62645185Y-36343413D01*
X62661814Y-36322775D01*
X62822773Y-36161816D01*
X62884095Y-36128334D01*
X62910453Y-36125500D01*
X69917257Y-36125500D01*
X69932877Y-36127224D01*
X69932904Y-36126939D01*
X69940660Y-36127671D01*
X69940667Y-36127673D01*
X70009814Y-36125500D01*
X70039350Y-36125500D01*
X70046228Y-36124630D01*
X70052041Y-36124172D01*
X70098627Y-36122709D01*
X70117869Y-36117117D01*
X70136912Y-36113174D01*
X70156792Y-36110664D01*
X70200122Y-36093507D01*
X70205646Y-36091617D01*
X70209396Y-36090527D01*
X70250390Y-36078618D01*
X70267629Y-36068422D01*
X70285103Y-36059862D01*
X70303727Y-36052488D01*
X70303727Y-36052487D01*
X70303732Y-36052486D01*
X70341449Y-36025082D01*
X70346305Y-36021892D01*
X70386420Y-35998170D01*
X70400589Y-35983999D01*
X70415379Y-35971368D01*
X70431587Y-35959594D01*
X70461299Y-35923676D01*
X70465212Y-35919376D01*
X70992199Y-35392390D01*
X71010182Y-35377514D01*
X71016938Y-35372924D01*
X71054918Y-35329842D01*
X71057558Y-35327032D01*
X71070120Y-35314471D01*
X71081012Y-35300427D01*
X71083465Y-35297463D01*
X71121450Y-35254378D01*
X71125157Y-35247100D01*
X71137663Y-35227394D01*
X71142673Y-35220936D01*
X71165482Y-35168224D01*
X71167112Y-35164758D01*
X71193198Y-35113565D01*
X71194980Y-35105589D01*
X71202195Y-35083386D01*
X71205437Y-35075896D01*
X71214419Y-35019178D01*
X71215149Y-35015357D01*
X71227673Y-34959333D01*
X71227416Y-34951164D01*
X71228883Y-34927867D01*
X71229910Y-34921382D01*
X71230160Y-34919804D01*
X71224755Y-34862642D01*
X71224512Y-34858772D01*
X71222709Y-34801373D01*
X71220428Y-34793523D01*
X71216055Y-34770601D01*
X71215287Y-34762467D01*
X71195840Y-34708450D01*
X71194636Y-34704745D01*
X71187335Y-34679615D01*
X71178618Y-34649610D01*
X71178614Y-34649604D01*
X71175699Y-34642866D01*
X71165500Y-34593617D01*
X71165500Y-34175226D01*
X71185185Y-34108187D01*
X71218374Y-34073654D01*
X71411401Y-33938495D01*
X71578495Y-33771401D01*
X71629982Y-33697870D01*
X75114500Y-33697870D01*
X75114501Y-33697876D01*
X75120908Y-33757483D01*
X75171202Y-33892328D01*
X75171206Y-33892335D01*
X75257452Y-34007544D01*
X75257455Y-34007547D01*
X75372664Y-34093793D01*
X75372671Y-34093797D01*
X75507517Y-34144091D01*
X75507516Y-34144091D01*
X75514444Y-34144835D01*
X75567127Y-34150500D01*
X77362872Y-34150499D01*
X77422483Y-34144091D01*
X77557331Y-34093796D01*
X77672546Y-34007546D01*
X77758796Y-33892331D01*
X77808002Y-33760401D01*
X77849872Y-33704468D01*
X77915337Y-33680050D01*
X77983610Y-33694901D01*
X78011865Y-33716053D01*
X78133917Y-33838105D01*
X78327421Y-33973600D01*
X78541507Y-34073429D01*
X78541516Y-34073433D01*
X78755000Y-34130634D01*
X78755000Y-33235501D01*
X78862685Y-33284680D01*
X78969237Y-33300000D01*
X79040763Y-33300000D01*
X79147315Y-33284680D01*
X79255000Y-33235501D01*
X79255000Y-34130633D01*
X79468483Y-34073433D01*
X79468492Y-34073429D01*
X79682578Y-33973600D01*
X79876082Y-33838105D01*
X80043105Y-33671082D01*
X80045429Y-33667763D01*
X84745787Y-33667763D01*
X84775413Y-33937013D01*
X84775415Y-33937024D01*
X84843926Y-34199082D01*
X84843928Y-34199088D01*
X84949870Y-34448390D01*
X85080315Y-34662131D01*
X85090979Y-34679605D01*
X85090986Y-34679615D01*
X85264253Y-34887819D01*
X85264259Y-34887824D01*
X85406595Y-35015357D01*
X85465998Y-35068582D01*
X85691910Y-35218044D01*
X85937176Y-35333020D01*
X85937183Y-35333022D01*
X85937185Y-35333023D01*
X86196557Y-35411057D01*
X86196564Y-35411058D01*
X86196569Y-35411060D01*
X86464561Y-35450500D01*
X86464566Y-35450500D01*
X86667636Y-35450500D01*
X86719133Y-35446730D01*
X86870156Y-35435677D01*
X86982758Y-35410593D01*
X87134546Y-35376782D01*
X87134548Y-35376781D01*
X87134553Y-35376780D01*
X87387558Y-35280014D01*
X87623777Y-35147441D01*
X87838177Y-34981888D01*
X88026186Y-34786881D01*
X88183799Y-34566579D01*
X88257787Y-34422669D01*
X88307649Y-34325690D01*
X88307651Y-34325684D01*
X88307656Y-34325675D01*
X88395118Y-34069305D01*
X88444319Y-33802933D01*
X88454212Y-33532235D01*
X88424586Y-33262982D01*
X88356072Y-33000912D01*
X88250130Y-32751610D01*
X88109018Y-32520390D01*
X88102959Y-32513109D01*
X87935746Y-32312180D01*
X87935740Y-32312175D01*
X87734002Y-32131418D01*
X87508092Y-31981957D01*
X87476143Y-31966980D01*
X87262824Y-31866980D01*
X87262819Y-31866978D01*
X87262814Y-31866976D01*
X87003442Y-31788942D01*
X87003428Y-31788939D01*
X86887791Y-31771921D01*
X86735439Y-31749500D01*
X86532369Y-31749500D01*
X86532364Y-31749500D01*
X86329844Y-31764323D01*
X86329831Y-31764325D01*
X86065453Y-31823217D01*
X86065446Y-31823220D01*
X85812439Y-31919987D01*
X85576226Y-32052557D01*
X85576224Y-32052558D01*
X85576223Y-32052559D01*
X85538152Y-32081956D01*
X85361822Y-32218112D01*
X85173822Y-32413109D01*
X85173816Y-32413116D01*
X85016202Y-32633419D01*
X85016199Y-32633424D01*
X84892350Y-32874309D01*
X84892343Y-32874327D01*
X84804884Y-33130685D01*
X84804881Y-33130699D01*
X84787472Y-33224952D01*
X84761853Y-33363655D01*
X84755681Y-33397068D01*
X84755680Y-33397075D01*
X84745787Y-33667763D01*
X80045429Y-33667763D01*
X80178600Y-33477578D01*
X80278429Y-33263492D01*
X80278432Y-33263486D01*
X80335636Y-33050000D01*
X79438686Y-33050000D01*
X79464493Y-33009844D01*
X79505000Y-32871889D01*
X79505000Y-32728111D01*
X79464493Y-32590156D01*
X79438686Y-32550000D01*
X80335636Y-32550000D01*
X80335635Y-32549999D01*
X80278432Y-32336513D01*
X80278429Y-32336507D01*
X80178600Y-32122422D01*
X80178599Y-32122420D01*
X80043113Y-31928926D01*
X80043108Y-31928920D01*
X79876082Y-31761894D01*
X79682578Y-31626399D01*
X79468492Y-31526570D01*
X79468486Y-31526567D01*
X79255000Y-31469364D01*
X79255000Y-32364498D01*
X79147315Y-32315320D01*
X79040763Y-32300000D01*
X78969237Y-32300000D01*
X78862685Y-32315320D01*
X78755000Y-32364498D01*
X78755000Y-31469364D01*
X78754999Y-31469364D01*
X78541513Y-31526567D01*
X78541507Y-31526570D01*
X78327422Y-31626399D01*
X78327420Y-31626400D01*
X78133926Y-31761886D01*
X78011865Y-31883947D01*
X77950542Y-31917431D01*
X77880850Y-31912447D01*
X77824917Y-31870575D01*
X77808002Y-31839598D01*
X77801893Y-31823220D01*
X77779021Y-31761894D01*
X77758797Y-31707671D01*
X77758793Y-31707664D01*
X77672547Y-31592455D01*
X77672544Y-31592452D01*
X77557335Y-31506206D01*
X77557328Y-31506202D01*
X77422482Y-31455908D01*
X77422483Y-31455908D01*
X77362883Y-31449501D01*
X77362881Y-31449500D01*
X77362873Y-31449500D01*
X77362864Y-31449500D01*
X75567129Y-31449500D01*
X75567123Y-31449501D01*
X75507516Y-31455908D01*
X75372671Y-31506202D01*
X75372664Y-31506206D01*
X75257455Y-31592452D01*
X75257452Y-31592455D01*
X75171206Y-31707664D01*
X75171202Y-31707671D01*
X75120908Y-31842517D01*
X75114501Y-31902116D01*
X75114500Y-31902135D01*
X75114500Y-33697870D01*
X71629982Y-33697870D01*
X71714035Y-33577830D01*
X71813903Y-33363663D01*
X71875063Y-33135408D01*
X71895659Y-32900000D01*
X71875063Y-32664592D01*
X71813903Y-32436337D01*
X71714035Y-32222171D01*
X71673988Y-32164977D01*
X71578494Y-32028597D01*
X71411402Y-31861506D01*
X71411395Y-31861501D01*
X71217834Y-31725967D01*
X71217830Y-31725965D01*
X71217828Y-31725964D01*
X71003663Y-31626097D01*
X71003659Y-31626096D01*
X71003655Y-31626094D01*
X70775413Y-31564938D01*
X70775403Y-31564936D01*
X70540001Y-31544341D01*
X70539999Y-31544341D01*
X70304596Y-31564936D01*
X70304586Y-31564938D01*
X70076344Y-31626094D01*
X70076337Y-31626096D01*
X70076337Y-31626097D01*
X70075687Y-31626400D01*
X69862171Y-31725964D01*
X69862169Y-31725965D01*
X69668600Y-31861503D01*
X69546673Y-31983430D01*
X69485350Y-32016914D01*
X69415658Y-32011930D01*
X69359725Y-31970058D01*
X69342810Y-31939081D01*
X69293797Y-31807671D01*
X69293793Y-31807664D01*
X69207547Y-31692455D01*
X69207544Y-31692452D01*
X69092335Y-31606206D01*
X69092328Y-31606202D01*
X68957482Y-31555908D01*
X68957483Y-31555908D01*
X68897883Y-31549501D01*
X68897881Y-31549500D01*
X68897873Y-31549500D01*
X68897864Y-31549500D01*
X67102129Y-31549500D01*
X67102123Y-31549501D01*
X67042516Y-31555908D01*
X66907671Y-31606202D01*
X66907664Y-31606206D01*
X66792455Y-31692452D01*
X66792452Y-31692455D01*
X66706206Y-31807664D01*
X66706202Y-31807671D01*
X66655908Y-31942517D01*
X66649501Y-32002116D01*
X66649501Y-32002123D01*
X66649500Y-32002135D01*
X66649500Y-32150500D01*
X66629815Y-32217539D01*
X66577011Y-32263294D01*
X66525500Y-32274500D01*
X63482737Y-32274500D01*
X63467120Y-32272776D01*
X63467093Y-32273062D01*
X63459331Y-32272327D01*
X63390203Y-32274500D01*
X63360650Y-32274500D01*
X63359929Y-32274590D01*
X63353757Y-32275369D01*
X63347945Y-32275826D01*
X63301373Y-32277290D01*
X63301372Y-32277290D01*
X63282129Y-32282881D01*
X63263079Y-32286825D01*
X63243211Y-32289334D01*
X63243209Y-32289335D01*
X63199884Y-32306488D01*
X63194357Y-32308380D01*
X63149610Y-32321381D01*
X63149609Y-32321382D01*
X63132367Y-32331579D01*
X63114899Y-32340137D01*
X63096269Y-32347513D01*
X63096267Y-32347514D01*
X63058576Y-32374898D01*
X63053694Y-32378105D01*
X63013579Y-32401830D01*
X62999408Y-32416000D01*
X62984623Y-32428628D01*
X62968412Y-32440407D01*
X62938709Y-32476310D01*
X62934777Y-32480631D01*
X60416208Y-34999199D01*
X60403951Y-35009020D01*
X60404134Y-35009241D01*
X60398123Y-35014213D01*
X60350772Y-35064636D01*
X60329889Y-35085519D01*
X60329877Y-35085532D01*
X60325621Y-35091017D01*
X60321837Y-35095447D01*
X60289937Y-35129418D01*
X60289936Y-35129420D01*
X60280284Y-35146976D01*
X60269610Y-35163226D01*
X60257329Y-35179061D01*
X60257324Y-35179068D01*
X60238815Y-35221838D01*
X60236245Y-35227084D01*
X60213803Y-35267906D01*
X60208822Y-35287307D01*
X60202521Y-35305710D01*
X60194562Y-35324102D01*
X60194561Y-35324105D01*
X60187271Y-35370127D01*
X60186087Y-35375846D01*
X60174501Y-35420972D01*
X60174500Y-35420982D01*
X60174500Y-35441016D01*
X60172973Y-35460415D01*
X60169840Y-35480194D01*
X60169840Y-35480195D01*
X60174225Y-35526583D01*
X60174500Y-35532421D01*
X60174500Y-40550500D01*
X60154815Y-40617539D01*
X60102011Y-40663294D01*
X60050500Y-40674500D01*
X59376745Y-40674500D01*
X59309706Y-40654815D01*
X59263951Y-40602011D01*
X59254007Y-40532853D01*
X59283032Y-40469297D01*
X59302433Y-40451234D01*
X59332718Y-40428562D01*
X59407546Y-40372546D01*
X59493796Y-40257331D01*
X59544091Y-40122483D01*
X59550500Y-40062873D01*
X59550499Y-38267128D01*
X59544091Y-38207517D01*
X59514019Y-38126891D01*
X59493797Y-38072671D01*
X59493793Y-38072664D01*
X59407547Y-37957455D01*
X59407544Y-37957452D01*
X59292335Y-37871206D01*
X59292328Y-37871202D01*
X59157482Y-37820908D01*
X59157483Y-37820908D01*
X59097883Y-37814501D01*
X59097881Y-37814500D01*
X59097873Y-37814500D01*
X59097864Y-37814500D01*
X57302129Y-37814500D01*
X57302123Y-37814501D01*
X57242516Y-37820908D01*
X57107671Y-37871202D01*
X57107664Y-37871206D01*
X56992455Y-37957452D01*
X56992452Y-37957455D01*
X56906206Y-38072664D01*
X56906202Y-38072671D01*
X56868056Y-38174948D01*
X56826185Y-38230882D01*
X56760721Y-38255299D01*
X56692448Y-38240447D01*
X56664193Y-38219297D01*
X56618874Y-38173978D01*
X56571401Y-38126505D01*
X56571397Y-38126502D01*
X56571396Y-38126501D01*
X56377834Y-37990967D01*
X56377830Y-37990965D01*
X56377828Y-37990964D01*
X56163663Y-37891097D01*
X56163659Y-37891096D01*
X56163655Y-37891094D01*
X55935413Y-37829938D01*
X55935403Y-37829936D01*
X55700001Y-37809341D01*
X55699999Y-37809341D01*
X55464596Y-37829936D01*
X55464586Y-37829938D01*
X55236344Y-37891094D01*
X55236335Y-37891098D01*
X55022171Y-37990964D01*
X55022169Y-37990965D01*
X54828597Y-38126505D01*
X54661505Y-38293597D01*
X54551575Y-38450595D01*
X54496998Y-38494220D01*
X54427500Y-38501414D01*
X54365145Y-38469891D01*
X54348425Y-38450595D01*
X54238494Y-38293597D01*
X54071402Y-38126506D01*
X54071395Y-38126501D01*
X53877834Y-37990967D01*
X53877830Y-37990965D01*
X53877828Y-37990964D01*
X53663663Y-37891097D01*
X53663659Y-37891096D01*
X53663655Y-37891094D01*
X53435413Y-37829938D01*
X53435403Y-37829936D01*
X53200001Y-37809341D01*
X53199999Y-37809341D01*
X52964596Y-37829936D01*
X52964586Y-37829938D01*
X52736344Y-37891094D01*
X52736335Y-37891098D01*
X52522171Y-37990964D01*
X52522169Y-37990965D01*
X52328597Y-38126505D01*
X52161508Y-38293594D01*
X52051269Y-38451032D01*
X51996692Y-38494656D01*
X51927193Y-38501849D01*
X51864839Y-38470327D01*
X51848119Y-38451031D01*
X51738113Y-38293926D01*
X51738108Y-38293920D01*
X51571082Y-38126894D01*
X51377578Y-37991399D01*
X51163492Y-37891570D01*
X51163486Y-37891567D01*
X50950000Y-37834364D01*
X50950000Y-38729498D01*
X50842315Y-38680320D01*
X50735763Y-38665000D01*
X50664237Y-38665000D01*
X50557685Y-38680320D01*
X50450000Y-38729498D01*
X50450000Y-37834364D01*
X50449999Y-37834364D01*
X50236513Y-37891567D01*
X50236507Y-37891570D01*
X50022422Y-37991399D01*
X50022420Y-37991400D01*
X49828926Y-38126886D01*
X49828920Y-38126891D01*
X49661891Y-38293920D01*
X49661886Y-38293926D01*
X49526400Y-38487420D01*
X49526399Y-38487422D01*
X49426570Y-38701507D01*
X49426567Y-38701513D01*
X49369364Y-38914999D01*
X49369364Y-38915000D01*
X50266314Y-38915000D01*
X50240507Y-38955156D01*
X50200000Y-39093111D01*
X50200000Y-39236889D01*
X50240507Y-39374844D01*
X50266314Y-39415000D01*
X49369364Y-39415000D01*
X49426567Y-39628486D01*
X49426570Y-39628492D01*
X49526399Y-39842578D01*
X49661894Y-40036082D01*
X49828917Y-40203105D01*
X50022421Y-40338600D01*
X50236507Y-40438429D01*
X50236516Y-40438433D01*
X50450000Y-40495634D01*
X50450000Y-39600501D01*
X50557685Y-39649680D01*
X50664237Y-39665000D01*
X50735763Y-39665000D01*
X50842315Y-39649680D01*
X50950000Y-39600501D01*
X50950000Y-40495634D01*
X50980132Y-40518756D01*
X51026544Y-40550167D01*
X51054050Y-40614395D01*
X51042465Y-40683297D01*
X51018608Y-40716800D01*
X48974821Y-42760586D01*
X48913498Y-42794071D01*
X48855048Y-42792680D01*
X48786697Y-42774366D01*
X48786693Y-42774365D01*
X48786692Y-42774365D01*
X48673346Y-42764448D01*
X48560001Y-42754532D01*
X48559998Y-42754532D01*
X48333313Y-42774364D01*
X48333302Y-42774366D01*
X48113511Y-42833258D01*
X48113502Y-42833261D01*
X47907267Y-42929431D01*
X47907265Y-42929432D01*
X47720858Y-43059954D01*
X47559954Y-43220858D01*
X47429432Y-43407265D01*
X47429431Y-43407267D01*
X47402382Y-43465275D01*
X47356209Y-43517714D01*
X47289016Y-43536866D01*
X47222135Y-43516650D01*
X47177618Y-43465275D01*
X47150568Y-43407267D01*
X47150567Y-43407265D01*
X47020045Y-43220858D01*
X46859141Y-43059954D01*
X46672734Y-42929432D01*
X46672732Y-42929431D01*
X46466497Y-42833261D01*
X46466488Y-42833258D01*
X46246697Y-42774366D01*
X46246693Y-42774365D01*
X46246692Y-42774365D01*
X46246691Y-42774364D01*
X46246686Y-42774364D01*
X46020002Y-42754532D01*
X46019998Y-42754532D01*
X45793313Y-42774364D01*
X45793302Y-42774366D01*
X45573511Y-42833258D01*
X45573502Y-42833261D01*
X45367267Y-42929431D01*
X45367265Y-42929432D01*
X45180858Y-43059954D01*
X45019954Y-43220858D01*
X44889432Y-43407265D01*
X44889431Y-43407267D01*
X44862382Y-43465275D01*
X44816209Y-43517714D01*
X44749016Y-43536866D01*
X44682135Y-43516650D01*
X44637618Y-43465275D01*
X44610568Y-43407267D01*
X44610567Y-43407265D01*
X44480045Y-43220858D01*
X44319141Y-43059954D01*
X44132734Y-42929432D01*
X44132732Y-42929431D01*
X43926497Y-42833261D01*
X43926488Y-42833258D01*
X43706697Y-42774366D01*
X43706693Y-42774365D01*
X43706692Y-42774365D01*
X43706691Y-42774364D01*
X43706686Y-42774364D01*
X43480002Y-42754532D01*
X43479998Y-42754532D01*
X43253313Y-42774364D01*
X43253302Y-42774366D01*
X43033511Y-42833258D01*
X43033502Y-42833261D01*
X42827267Y-42929431D01*
X42827265Y-42929432D01*
X42640858Y-43059954D01*
X42479954Y-43220858D01*
X42349432Y-43407265D01*
X42349431Y-43407267D01*
X42322382Y-43465275D01*
X42276209Y-43517714D01*
X42209016Y-43536866D01*
X42142135Y-43516650D01*
X42097618Y-43465275D01*
X42070568Y-43407267D01*
X42070567Y-43407265D01*
X41940045Y-43220858D01*
X41779141Y-43059954D01*
X41592734Y-42929432D01*
X41592732Y-42929431D01*
X41386497Y-42833261D01*
X41386488Y-42833258D01*
X41166697Y-42774366D01*
X41166693Y-42774365D01*
X41166692Y-42774365D01*
X41166691Y-42774364D01*
X41166686Y-42774364D01*
X40940002Y-42754532D01*
X40939998Y-42754532D01*
X40713313Y-42774364D01*
X40713302Y-42774366D01*
X40493511Y-42833258D01*
X40493502Y-42833261D01*
X40287267Y-42929431D01*
X40287265Y-42929432D01*
X40100858Y-43059954D01*
X39939954Y-43220858D01*
X39809432Y-43407265D01*
X39809431Y-43407267D01*
X39782382Y-43465275D01*
X39736209Y-43517714D01*
X39669016Y-43536866D01*
X39602135Y-43516650D01*
X39557618Y-43465275D01*
X39530568Y-43407267D01*
X39530567Y-43407265D01*
X39400045Y-43220858D01*
X39239141Y-43059954D01*
X39052734Y-42929432D01*
X39052732Y-42929431D01*
X38846497Y-42833261D01*
X38846488Y-42833258D01*
X38626697Y-42774366D01*
X38626693Y-42774365D01*
X38626692Y-42774365D01*
X38626691Y-42774364D01*
X38626686Y-42774364D01*
X38400002Y-42754532D01*
X38399998Y-42754532D01*
X38173313Y-42774364D01*
X38173302Y-42774366D01*
X37953511Y-42833258D01*
X37953502Y-42833261D01*
X37747267Y-42929431D01*
X37747265Y-42929432D01*
X37560858Y-43059954D01*
X37399954Y-43220858D01*
X37269432Y-43407265D01*
X37269431Y-43407267D01*
X37242382Y-43465275D01*
X37196209Y-43517714D01*
X37129016Y-43536866D01*
X37062135Y-43516650D01*
X37017618Y-43465275D01*
X36990568Y-43407267D01*
X36990567Y-43407265D01*
X36860045Y-43220858D01*
X36699141Y-43059954D01*
X36512734Y-42929432D01*
X36512732Y-42929431D01*
X36306497Y-42833261D01*
X36306488Y-42833258D01*
X36086697Y-42774366D01*
X36086693Y-42774365D01*
X36086692Y-42774365D01*
X36086691Y-42774364D01*
X36086686Y-42774364D01*
X35860002Y-42754532D01*
X35859998Y-42754532D01*
X35633313Y-42774364D01*
X35633302Y-42774366D01*
X35413511Y-42833258D01*
X35413502Y-42833261D01*
X35207267Y-42929431D01*
X35207265Y-42929432D01*
X35020858Y-43059954D01*
X34859954Y-43220858D01*
X34729432Y-43407265D01*
X34729431Y-43407267D01*
X34702382Y-43465275D01*
X34656209Y-43517714D01*
X34589016Y-43536866D01*
X34522135Y-43516650D01*
X34477618Y-43465275D01*
X34450568Y-43407267D01*
X34450567Y-43407265D01*
X34320045Y-43220858D01*
X34159141Y-43059954D01*
X33972734Y-42929432D01*
X33972732Y-42929431D01*
X33766497Y-42833261D01*
X33766488Y-42833258D01*
X33546697Y-42774366D01*
X33546693Y-42774365D01*
X33546692Y-42774365D01*
X33546691Y-42774364D01*
X33546686Y-42774364D01*
X33320002Y-42754532D01*
X33319998Y-42754532D01*
X33093313Y-42774364D01*
X33093302Y-42774366D01*
X32873511Y-42833258D01*
X32873502Y-42833261D01*
X32667267Y-42929431D01*
X32667265Y-42929432D01*
X32480858Y-43059954D01*
X32319954Y-43220858D01*
X32189432Y-43407265D01*
X32189431Y-43407267D01*
X32162382Y-43465275D01*
X32116209Y-43517714D01*
X32049016Y-43536866D01*
X31982135Y-43516650D01*
X31937618Y-43465275D01*
X31910568Y-43407267D01*
X31910567Y-43407265D01*
X31780045Y-43220858D01*
X31619141Y-43059954D01*
X31432734Y-42929432D01*
X31432732Y-42929431D01*
X31226497Y-42833261D01*
X31226488Y-42833258D01*
X31006697Y-42774366D01*
X31006693Y-42774365D01*
X31006692Y-42774365D01*
X31006691Y-42774364D01*
X31006686Y-42774364D01*
X30780002Y-42754532D01*
X30779998Y-42754532D01*
X30553313Y-42774364D01*
X30553302Y-42774366D01*
X30333511Y-42833258D01*
X30333502Y-42833261D01*
X30127267Y-42929431D01*
X30127265Y-42929432D01*
X29940858Y-43059954D01*
X29779954Y-43220858D01*
X29649432Y-43407265D01*
X29649431Y-43407267D01*
X29553261Y-43613502D01*
X29553258Y-43613511D01*
X29494366Y-43833302D01*
X29494364Y-43833313D01*
X29474532Y-44059998D01*
X29474532Y-44060001D01*
X29494364Y-44286686D01*
X29494366Y-44286697D01*
X29553258Y-44506488D01*
X29553261Y-44506497D01*
X29649431Y-44712732D01*
X29649432Y-44712734D01*
X29779954Y-44899141D01*
X29801788Y-44920975D01*
X29835273Y-44982298D01*
X29830289Y-45051990D01*
X29788417Y-45107923D01*
X29722953Y-45132340D01*
X29661475Y-45120932D01*
X29526406Y-45057614D01*
X29265611Y-44979153D01*
X29265609Y-44979152D01*
X29265607Y-44979152D01*
X29168996Y-44964934D01*
X28996171Y-44939500D01*
X28272000Y-44939500D01*
X28271995Y-44939500D01*
X28068384Y-44954403D01*
X28068370Y-44954405D01*
X27802564Y-45013615D01*
X27802557Y-45013618D01*
X27548183Y-45110908D01*
X27310691Y-45244195D01*
X27310686Y-45244198D01*
X27095133Y-45410643D01*
X27095124Y-45410652D01*
X26906109Y-45606701D01*
X26906102Y-45606709D01*
X26747647Y-45828189D01*
X26747640Y-45828201D01*
X26623117Y-46070397D01*
X26623111Y-46070411D01*
X26535184Y-46328145D01*
X26535180Y-46328163D01*
X26485715Y-46595959D01*
X26485713Y-46595979D01*
X26475767Y-46868129D01*
X21200000Y-46868129D01*
X21200000Y-39734675D01*
X41119748Y-39734675D01*
X41129748Y-39995593D01*
X41179462Y-40251928D01*
X41179462Y-40251930D01*
X41267718Y-40497663D01*
X41277417Y-40515499D01*
X41392459Y-40727057D01*
X41550750Y-40934716D01*
X41738886Y-41115778D01*
X41738891Y-41115781D01*
X41738895Y-41115785D01*
X41952441Y-41265989D01*
X41952445Y-41265991D01*
X41952456Y-41265999D01*
X42174410Y-41375896D01*
X42186455Y-41381860D01*
X42254014Y-41403240D01*
X42435395Y-41460641D01*
X42693445Y-41500500D01*
X42693449Y-41500500D01*
X43789177Y-41500500D01*
X43984344Y-41485516D01*
X44238586Y-41426021D01*
X44317341Y-41394280D01*
X44480758Y-41328418D01*
X44480763Y-41328415D01*
X44480766Y-41328414D01*
X44705208Y-41194982D01*
X44906652Y-41028852D01*
X45080375Y-40833920D01*
X45156221Y-40716800D01*
X45222304Y-40614757D01*
X45222304Y-40614755D01*
X45222306Y-40614753D01*
X45329118Y-40376489D01*
X45398307Y-40124713D01*
X45428252Y-39865325D01*
X45418251Y-39604407D01*
X45368538Y-39348073D01*
X45323801Y-39223511D01*
X45280281Y-39102336D01*
X45216610Y-38985247D01*
X45155541Y-38872943D01*
X44997250Y-38665284D01*
X44809114Y-38484222D01*
X44809108Y-38484218D01*
X44809104Y-38484214D01*
X44595558Y-38334010D01*
X44595551Y-38334006D01*
X44595544Y-38334001D01*
X44460474Y-38267123D01*
X44361544Y-38218139D01*
X44112608Y-38139360D01*
X44112605Y-38139359D01*
X43854555Y-38099500D01*
X42758823Y-38099500D01*
X42563656Y-38114484D01*
X42563652Y-38114484D01*
X42309416Y-38173978D01*
X42309406Y-38173981D01*
X42067241Y-38271581D01*
X42067232Y-38271586D01*
X41842793Y-38405017D01*
X41641345Y-38571150D01*
X41467631Y-38766071D01*
X41467618Y-38766088D01*
X41325695Y-38985242D01*
X41325694Y-38985246D01*
X41218881Y-39223511D01*
X41149693Y-39475285D01*
X41119748Y-39734675D01*
X21200000Y-39734675D01*
X21200000Y-33767763D01*
X24145787Y-33767763D01*
X24175413Y-34037013D01*
X24175415Y-34037024D01*
X24231225Y-34250499D01*
X24243928Y-34299088D01*
X24349870Y-34548390D01*
X24446435Y-34706617D01*
X24490979Y-34779605D01*
X24490986Y-34779615D01*
X24664253Y-34987819D01*
X24664259Y-34987824D01*
X24749986Y-35064635D01*
X24865998Y-35168582D01*
X25091910Y-35318044D01*
X25337176Y-35433020D01*
X25337183Y-35433022D01*
X25337185Y-35433023D01*
X25596557Y-35511057D01*
X25596564Y-35511058D01*
X25596569Y-35511060D01*
X25864561Y-35550500D01*
X25864566Y-35550500D01*
X26067636Y-35550500D01*
X26119133Y-35546730D01*
X26270156Y-35535677D01*
X26382758Y-35510593D01*
X26534546Y-35476782D01*
X26534548Y-35476781D01*
X26534553Y-35476780D01*
X26787558Y-35380014D01*
X27023777Y-35247441D01*
X27238177Y-35081888D01*
X27426186Y-34886881D01*
X27583799Y-34666579D01*
X27657787Y-34522669D01*
X27707649Y-34425690D01*
X27707651Y-34425684D01*
X27707656Y-34425675D01*
X27795118Y-34169305D01*
X27844319Y-33902933D01*
X27848159Y-33797870D01*
X32789500Y-33797870D01*
X32789501Y-33797876D01*
X32795908Y-33857483D01*
X32846202Y-33992328D01*
X32846206Y-33992335D01*
X32932452Y-34107544D01*
X32932455Y-34107547D01*
X33047664Y-34193793D01*
X33047671Y-34193797D01*
X33182517Y-34244091D01*
X33182516Y-34244091D01*
X33189444Y-34244835D01*
X33242127Y-34250500D01*
X35037872Y-34250499D01*
X35097483Y-34244091D01*
X35232331Y-34193796D01*
X35347546Y-34107546D01*
X35433796Y-33992331D01*
X35484091Y-33857483D01*
X35490500Y-33797873D01*
X35490500Y-33697870D01*
X41329500Y-33697870D01*
X41329501Y-33697876D01*
X41335908Y-33757483D01*
X41386202Y-33892328D01*
X41386206Y-33892335D01*
X41472452Y-34007544D01*
X41472455Y-34007547D01*
X41587664Y-34093793D01*
X41587671Y-34093797D01*
X41722517Y-34144091D01*
X41722516Y-34144091D01*
X41729444Y-34144835D01*
X41782127Y-34150500D01*
X43577872Y-34150499D01*
X43637483Y-34144091D01*
X43772331Y-34093796D01*
X43887546Y-34007546D01*
X43973796Y-33892331D01*
X44022810Y-33760916D01*
X44064681Y-33704984D01*
X44130145Y-33680566D01*
X44198418Y-33695417D01*
X44226673Y-33716569D01*
X44348599Y-33838495D01*
X44440613Y-33902924D01*
X44542165Y-33974032D01*
X44542167Y-33974033D01*
X44542170Y-33974035D01*
X44756337Y-34073903D01*
X44756343Y-34073904D01*
X44756344Y-34073905D01*
X44811285Y-34088626D01*
X44984592Y-34135063D01*
X45161034Y-34150500D01*
X45219999Y-34155659D01*
X45220000Y-34155659D01*
X45220001Y-34155659D01*
X45278966Y-34150500D01*
X45455408Y-34135063D01*
X45683663Y-34073903D01*
X45897830Y-33974035D01*
X46091401Y-33838495D01*
X46258495Y-33671401D01*
X46372891Y-33508026D01*
X46388425Y-33485842D01*
X46443002Y-33442217D01*
X46512500Y-33435023D01*
X46574855Y-33466546D01*
X46591575Y-33485842D01*
X46721281Y-33671082D01*
X46721505Y-33671401D01*
X46888599Y-33838495D01*
X46980613Y-33902924D01*
X47082165Y-33974032D01*
X47082167Y-33974033D01*
X47082170Y-33974035D01*
X47296337Y-34073903D01*
X47296343Y-34073904D01*
X47296344Y-34073905D01*
X47351285Y-34088626D01*
X47524592Y-34135063D01*
X47701034Y-34150500D01*
X47759999Y-34155659D01*
X47760000Y-34155659D01*
X47760001Y-34155659D01*
X47818966Y-34150500D01*
X47995408Y-34135063D01*
X48223663Y-34073903D01*
X48437830Y-33974035D01*
X48631401Y-33838495D01*
X48798495Y-33671401D01*
X48928730Y-33485405D01*
X48983307Y-33441781D01*
X49052805Y-33434587D01*
X49115160Y-33466110D01*
X49131879Y-33485405D01*
X49261890Y-33671078D01*
X49428917Y-33838105D01*
X49622421Y-33973600D01*
X49836507Y-34073429D01*
X49836516Y-34073433D01*
X50050000Y-34130634D01*
X50050000Y-33235501D01*
X50157685Y-33284680D01*
X50264237Y-33300000D01*
X50335763Y-33300000D01*
X50442315Y-33284680D01*
X50550000Y-33235501D01*
X50550000Y-34130633D01*
X50763483Y-34073433D01*
X50763492Y-34073429D01*
X50977578Y-33973600D01*
X51171082Y-33838105D01*
X51338105Y-33671082D01*
X51473600Y-33477578D01*
X51573429Y-33263492D01*
X51573432Y-33263486D01*
X51630636Y-33050000D01*
X50733686Y-33050000D01*
X50759493Y-33009844D01*
X50800000Y-32871889D01*
X50800000Y-32728111D01*
X50759493Y-32590156D01*
X50733686Y-32550000D01*
X51630636Y-32550000D01*
X51630635Y-32549999D01*
X51573432Y-32336513D01*
X51573429Y-32336507D01*
X51473600Y-32122422D01*
X51473599Y-32122420D01*
X51338113Y-31928926D01*
X51338108Y-31928920D01*
X51171082Y-31761894D01*
X50977578Y-31626399D01*
X50763492Y-31526570D01*
X50763486Y-31526567D01*
X50550000Y-31469364D01*
X50550000Y-32364498D01*
X50442315Y-32315320D01*
X50335763Y-32300000D01*
X50264237Y-32300000D01*
X50157685Y-32315320D01*
X50050000Y-32364498D01*
X50050000Y-31469364D01*
X50049999Y-31469364D01*
X49836513Y-31526567D01*
X49836507Y-31526570D01*
X49622422Y-31626399D01*
X49622420Y-31626400D01*
X49428926Y-31761886D01*
X49428920Y-31761891D01*
X49261891Y-31928920D01*
X49261890Y-31928922D01*
X49131880Y-32114595D01*
X49077303Y-32158219D01*
X49007804Y-32165412D01*
X48945450Y-32133890D01*
X48928730Y-32114594D01*
X48798494Y-31928597D01*
X48631402Y-31761506D01*
X48631395Y-31761501D01*
X48437834Y-31625967D01*
X48437830Y-31625965D01*
X48395457Y-31606206D01*
X48223663Y-31526097D01*
X48223659Y-31526096D01*
X48223655Y-31526094D01*
X47995413Y-31464938D01*
X47995403Y-31464936D01*
X47760001Y-31444341D01*
X47759999Y-31444341D01*
X47524596Y-31464936D01*
X47524586Y-31464938D01*
X47296344Y-31526094D01*
X47296335Y-31526098D01*
X47082171Y-31625964D01*
X47082169Y-31625965D01*
X46888597Y-31761505D01*
X46721505Y-31928597D01*
X46591575Y-32114158D01*
X46536998Y-32157783D01*
X46467500Y-32164977D01*
X46405145Y-32133454D01*
X46388425Y-32114158D01*
X46258494Y-31928597D01*
X46091402Y-31761506D01*
X46091395Y-31761501D01*
X45897834Y-31625967D01*
X45897830Y-31625965D01*
X45855457Y-31606206D01*
X45683663Y-31526097D01*
X45683659Y-31526096D01*
X45683655Y-31526094D01*
X45455413Y-31464938D01*
X45455403Y-31464936D01*
X45220001Y-31444341D01*
X45219999Y-31444341D01*
X44984596Y-31464936D01*
X44984586Y-31464938D01*
X44756344Y-31526094D01*
X44756335Y-31526098D01*
X44542171Y-31625964D01*
X44542169Y-31625965D01*
X44348600Y-31761503D01*
X44226673Y-31883430D01*
X44165350Y-31916914D01*
X44095658Y-31911930D01*
X44039725Y-31870058D01*
X44022810Y-31839081D01*
X43973797Y-31707671D01*
X43973793Y-31707664D01*
X43887547Y-31592455D01*
X43887544Y-31592452D01*
X43772335Y-31506206D01*
X43772328Y-31506202D01*
X43637482Y-31455908D01*
X43637483Y-31455908D01*
X43577883Y-31449501D01*
X43577881Y-31449500D01*
X43577873Y-31449500D01*
X43577864Y-31449500D01*
X41782129Y-31449500D01*
X41782123Y-31449501D01*
X41722516Y-31455908D01*
X41587671Y-31506202D01*
X41587664Y-31506206D01*
X41472455Y-31592452D01*
X41472452Y-31592455D01*
X41386206Y-31707664D01*
X41386202Y-31707671D01*
X41335908Y-31842517D01*
X41329501Y-31902116D01*
X41329500Y-31902135D01*
X41329500Y-33697870D01*
X35490500Y-33697870D01*
X35490499Y-32002128D01*
X35484091Y-31942517D01*
X35482809Y-31939081D01*
X35433797Y-31807671D01*
X35433793Y-31807664D01*
X35347547Y-31692455D01*
X35347544Y-31692452D01*
X35232335Y-31606206D01*
X35232328Y-31606202D01*
X35097482Y-31555908D01*
X35097483Y-31555908D01*
X35037883Y-31549501D01*
X35037881Y-31549500D01*
X35037873Y-31549500D01*
X35037864Y-31549500D01*
X33242129Y-31549500D01*
X33242123Y-31549501D01*
X33182516Y-31555908D01*
X33047671Y-31606202D01*
X33047664Y-31606206D01*
X32932455Y-31692452D01*
X32932452Y-31692455D01*
X32846206Y-31807664D01*
X32846202Y-31807671D01*
X32795908Y-31942517D01*
X32789501Y-32002116D01*
X32789501Y-32002123D01*
X32789500Y-32002135D01*
X32789500Y-33797870D01*
X27848159Y-33797870D01*
X27854212Y-33632235D01*
X27824586Y-33362982D01*
X27756072Y-33100912D01*
X27650130Y-32851610D01*
X27509018Y-32620390D01*
X27462583Y-32564592D01*
X27335746Y-32412180D01*
X27335740Y-32412175D01*
X27134002Y-32231418D01*
X26908092Y-32081957D01*
X26896803Y-32076665D01*
X26662824Y-31966980D01*
X26662819Y-31966978D01*
X26662814Y-31966976D01*
X26403442Y-31888942D01*
X26403428Y-31888939D01*
X26275129Y-31870058D01*
X26135439Y-31849500D01*
X25932369Y-31849500D01*
X25932364Y-31849500D01*
X25729844Y-31864323D01*
X25729831Y-31864325D01*
X25465453Y-31923217D01*
X25465446Y-31923220D01*
X25212439Y-32019987D01*
X24976226Y-32152557D01*
X24976224Y-32152558D01*
X24976223Y-32152559D01*
X24969458Y-32157783D01*
X24761822Y-32318112D01*
X24573822Y-32513109D01*
X24573816Y-32513116D01*
X24416202Y-32733419D01*
X24416199Y-32733424D01*
X24292350Y-32974309D01*
X24292343Y-32974327D01*
X24204884Y-33230685D01*
X24204881Y-33230699D01*
X24194455Y-33287145D01*
X24156400Y-33493178D01*
X24155681Y-33497068D01*
X24155680Y-33497075D01*
X24145787Y-33767763D01*
X21200000Y-33767763D01*
X21200000Y-33116607D01*
X21204369Y-33083981D01*
X21299977Y-32733419D01*
X21496181Y-32014001D01*
X21506949Y-31987259D01*
X22093459Y-30911991D01*
X22108991Y-30889723D01*
X22789166Y-30112381D01*
X22813693Y-30090871D01*
X23400000Y-29700000D01*
X24187491Y-29207817D01*
X24213994Y-29195335D01*
X24780911Y-29006363D01*
X24820123Y-29000000D01*
X86584734Y-29000000D01*
X86614808Y-29003702D01*
G37*
G04 #@! TD.AperFunction*
G04 #@! TD*
M02*
