G04 #@! TF.GenerationSoftware,KiCad,Pcbnew,7.0.8*
G04 #@! TF.CreationDate,2024-01-30T12:30:03+00:00*
G04 #@! TF.ProjectId,NanoVFO,4e616e6f-5646-44f2-9e6b-696361645f70,rev?*
G04 #@! TF.SameCoordinates,Original*
G04 #@! TF.FileFunction,Soldermask,Top*
G04 #@! TF.FilePolarity,Negative*
%FSLAX46Y46*%
G04 Gerber Fmt 4.6, Leading zero omitted, Abs format (unit mm)*
G04 Created by KiCad (PCBNEW 7.0.8) date 2024-01-30 12:30:03*
%MOMM*%
%LPD*%
G01*
G04 APERTURE LIST*
G04 Aperture macros list*
%AMRoundRect*
0 Rectangle with rounded corners*
0 $1 Rounding radius*
0 $2 $3 $4 $5 $6 $7 $8 $9 X,Y pos of 4 corners*
0 Add a 4 corners polygon primitive as box body*
4,1,4,$2,$3,$4,$5,$6,$7,$8,$9,$2,$3,0*
0 Add four circle primitives for the rounded corners*
1,1,$1+$1,$2,$3*
1,1,$1+$1,$4,$5*
1,1,$1+$1,$6,$7*
1,1,$1+$1,$8,$9*
0 Add four rect primitives between the rounded corners*
20,1,$1+$1,$2,$3,$4,$5,0*
20,1,$1+$1,$4,$5,$6,$7,0*
20,1,$1+$1,$6,$7,$8,$9,0*
20,1,$1+$1,$8,$9,$2,$3,0*%
G04 Aperture macros list end*
%ADD10O,3.800000X2.900000*%
%ADD11R,1.700000X1.700000*%
%ADD12O,1.700000X1.700000*%
%ADD13R,2.000000X2.000000*%
%ADD14C,2.000000*%
%ADD15R,2.000000X3.200000*%
%ADD16C,3.200000*%
%ADD17RoundRect,0.650000X0.650000X-0.650000X0.650000X0.650000X-0.650000X0.650000X-0.650000X-0.650000X0*%
%ADD18O,2.100000X3.100000*%
%ADD19O,3.240000X2.720000*%
%ADD20R,1.800000X1.800000*%
%ADD21C,1.800000*%
%ADD22C,1.600000*%
%ADD23O,1.600000X1.600000*%
%ADD24R,1.600000X1.600000*%
G04 APERTURE END LIST*
D10*
G04 #@! TO.C,J3*
X43274000Y-39800000D03*
X43274000Y-62914000D03*
X65626000Y-39800000D03*
X65626000Y-62914000D03*
D11*
X58200000Y-39165000D03*
D12*
X55700000Y-39165000D03*
X53200000Y-39165000D03*
X50700000Y-39165000D03*
G04 #@! TD*
D13*
G04 #@! TO.C,SW2*
X64500000Y-69750000D03*
D14*
X59500000Y-69750000D03*
X62000000Y-69750000D03*
D15*
X67600000Y-77250000D03*
X56400000Y-77250000D03*
D14*
X59500000Y-84250000D03*
X64500000Y-84250000D03*
G04 #@! TD*
D16*
G04 #@! TO.C,REF\u002A\u002A*
X26000000Y-33700000D03*
G04 #@! TD*
G04 #@! TO.C,REF\u002A\u002A*
X86600000Y-33600000D03*
G04 #@! TD*
G04 #@! TO.C,REF\u002A\u002A*
X86500000Y-83800000D03*
G04 #@! TD*
D14*
G04 #@! TO.C,SW1*
X27200000Y-71400000D03*
X32200000Y-71400000D03*
X27200000Y-76400000D03*
X32200000Y-76400000D03*
G04 #@! TD*
D17*
G04 #@! TO.C,J1*
X85700000Y-75100000D03*
D18*
X88800000Y-75100000D03*
D17*
X77400000Y-75100000D03*
G04 #@! TD*
D19*
G04 #@! TO.C,RV1*
X28600000Y-56400000D03*
X28600000Y-46800000D03*
D20*
X36100000Y-54100000D03*
D21*
X36100000Y-51600000D03*
X36100000Y-49100000D03*
G04 #@! TD*
D16*
G04 #@! TO.C,REF\u002A\u002A*
X26000000Y-83100000D03*
G04 #@! TD*
D14*
G04 #@! TO.C,SW3*
X40200000Y-71400000D03*
X45200000Y-71400000D03*
X40200000Y-76400000D03*
X45200000Y-76400000D03*
G04 #@! TD*
D11*
G04 #@! TO.C,J2*
X49360000Y-64900000D03*
D12*
X51900000Y-64900000D03*
G04 #@! TD*
D22*
G04 #@! TO.C,C7*
X82300000Y-47100000D03*
X82300000Y-52100000D03*
G04 #@! TD*
D11*
G04 #@! TO.C,J12*
X76465000Y-32800000D03*
D12*
X79005000Y-32800000D03*
G04 #@! TD*
D22*
G04 #@! TO.C,C6*
X82300000Y-54900000D03*
X82300000Y-59900000D03*
G04 #@! TD*
D11*
G04 #@! TO.C,J6*
X42680000Y-32800000D03*
D12*
X45220000Y-32800000D03*
X47760000Y-32800000D03*
X50300000Y-32800000D03*
G04 #@! TD*
G04 #@! TO.C,J8*
X25820000Y-64300000D03*
X28360000Y-64300000D03*
X30900000Y-64300000D03*
X33440000Y-64300000D03*
D11*
X35980000Y-64300000D03*
G04 #@! TD*
G04 #@! TO.C,J4*
X34140000Y-32900000D03*
G04 #@! TD*
D23*
G04 #@! TO.C,A1*
X66340000Y-44060000D03*
X63800000Y-44060000D03*
X61260000Y-44060000D03*
X58720000Y-44060000D03*
X56180000Y-44060000D03*
X53640000Y-44060000D03*
X51100000Y-44060000D03*
X48560000Y-44060000D03*
X46020000Y-44060000D03*
X43480000Y-44060000D03*
X40940000Y-44060000D03*
X38400000Y-44060000D03*
X35860000Y-44060000D03*
X33320000Y-44060000D03*
X30780000Y-44060000D03*
X30780000Y-59300000D03*
X33320000Y-59300000D03*
X35860000Y-59300000D03*
X38400000Y-59300000D03*
X40940000Y-59300000D03*
X43480000Y-59300000D03*
X46020000Y-59300000D03*
X48560000Y-59300000D03*
X51100000Y-59300000D03*
X53640000Y-59300000D03*
X56180000Y-59300000D03*
X58720000Y-59300000D03*
X61260000Y-59300000D03*
X63800000Y-59300000D03*
D24*
X66340000Y-59300000D03*
G04 #@! TD*
D22*
G04 #@! TO.C,C4*
X55170000Y-54600000D03*
X50170000Y-54600000D03*
G04 #@! TD*
G04 #@! TO.C,R1*
X65880000Y-50500000D03*
D23*
X58260000Y-50500000D03*
G04 #@! TD*
D11*
G04 #@! TO.C,J9*
X68000000Y-32900000D03*
D12*
X70540000Y-32900000D03*
G04 #@! TD*
D11*
G04 #@! TO.C,J5*
X86400000Y-60540000D03*
D12*
X86400000Y-58000000D03*
X86400000Y-55460000D03*
X86400000Y-52920000D03*
X86400000Y-50380000D03*
X86400000Y-47840000D03*
G04 #@! TD*
D22*
G04 #@! TO.C,C5*
X55270000Y-50600000D03*
X50270000Y-50600000D03*
G04 #@! TD*
G04 #@! TO.C,C1*
X82300000Y-68100000D03*
X82300000Y-63100000D03*
G04 #@! TD*
D23*
G04 #@! TO.C,R2*
X58260000Y-54500000D03*
D22*
X65880000Y-54500000D03*
G04 #@! TD*
D11*
G04 #@! TO.C,J10*
X73200000Y-61325000D03*
D12*
X73200000Y-58785000D03*
X73200000Y-56245000D03*
X73200000Y-53705000D03*
X73200000Y-51165000D03*
X73200000Y-48625000D03*
X73200000Y-46085000D03*
G04 #@! TD*
M02*
